<svg id="Layer_1" data-name="Layer 1" xmlns="http://www.w3.org/2000/svg" xmlns:xlink="http://www.w3.org/1999/xlink" viewBox="0 0 150 150"><defs><style>.cls-1,.cls-11,.cls-13,.cls-14,.cls-18,.cls-2,.cls-3,.cls-33,.cls-44,.cls-6,.cls-7{fill:none;}.cls-13,.cls-15,.cls-16,.cls-17,.cls-2,.cls-20,.cls-21,.cls-22,.cls-23,.cls-24,.cls-27,.cls-3,.cls-33,.cls-34,.cls-35,.cls-36,.cls-37,.cls-38,.cls-40,.cls-41,.cls-42{stroke:#ad1719;}.cls-10,.cls-11,.cls-13,.cls-14,.cls-16,.cls-18,.cls-2,.cls-20,.cls-21,.cls-22,.cls-23,.cls-24,.cls-25,.cls-26,.cls-27,.cls-28,.cls-29,.cls-3,.cls-30,.cls-33,.cls-34,.cls-35,.cls-36,.cls-37,.cls-38,.cls-40,.cls-41,.cls-42,.cls-43,.cls-5,.cls-6,.cls-7,.cls-8,.cls-9{stroke-miterlimit:10;}.cls-11,.cls-2,.cls-3,.cls-41{stroke-width:0.25px;}.cls-10,.cls-11,.cls-12,.cls-13,.cls-14,.cls-15,.cls-16,.cls-17,.cls-18,.cls-20,.cls-21,.cls-22,.cls-23,.cls-24,.cls-25,.cls-26,.cls-27,.cls-28,.cls-29,.cls-3,.cls-30,.cls-33,.cls-34,.cls-35,.cls-36,.cls-37,.cls-38,.cls-4,.cls-40,.cls-41,.cls-42,.cls-43,.cls-44,.cls-5,.cls-6,.cls-7,.cls-8,.cls-9{stroke-linecap:round;}.cls-10,.cls-12,.cls-15,.cls-16,.cls-17,.cls-20,.cls-21,.cls-22,.cls-23,.cls-24,.cls-28,.cls-34,.cls-35,.cls-36,.cls-37,.cls-38,.cls-39,.cls-4,.cls-40,.cls-41,.cls-42,.cls-43,.cls-5,.cls-8,.cls-9{fill:#fff;}.cls-10,.cls-11,.cls-14,.cls-18,.cls-4,.cls-5,.cls-6,.cls-7,.cls-8,.cls-9{stroke:#1d1d1b;}.cls-12,.cls-15,.cls-17,.cls-4,.cls-44{stroke-linejoin:round;}.cls-4{stroke-width:3.07px;}.cls-6{stroke-width:0.79px;}.cls-7{stroke-width:0.76px;}.cls-8{stroke-width:0.15px;}.cls-14,.cls-9{stroke-width:0.28px;}.cls-10{stroke-width:0.93px;}.cls-12,.cls-28,.cls-43,.cls-44{stroke:#000;}.cls-13{stroke-width:0.29px;}.cls-17,.cls-20{stroke-width:0.5px;}.cls-18{stroke-width:1.04px;}.cls-19,.cls-25,.cls-26,.cls-27,.cls-29,.cls-30{fill:#ad1719;}.cls-21{stroke-width:0.75px;}.cls-22{stroke-width:0.14px;}.cls-23{stroke-width:0.57px;}.cls-24{stroke-width:0.63px;}.cls-25,.cls-26,.cls-29,.cls-30{stroke:#fff;}.cls-25{stroke-width:0.71px;}.cls-26{stroke-width:0.8px;}.cls-29{stroke-width:0.4px;}.cls-30{stroke-width:0.39px;}.cls-31{clip-path:url(#clip-path);}.cls-32{clip-path:url(#clip-path-2);}.cls-34{stroke-width:1.03px;}.cls-35{stroke-width:1.29px;}.cls-36{stroke-width:1.23px;}.cls-37{stroke-width:0.96px;}.cls-38{stroke-width:1.09px;}.cls-40{stroke-width:0.7px;}.cls-42{stroke-width:1.28px;}.cls-43,.cls-44{stroke-width:2px;}.cls-45{clip-path:url(#clip-path-3);}.cls-46{clip-path:url(#clip-path-4);}</style><clipPath id="clip-path"><path class="cls-1" d="M93,51.87h36.17a5.24,5.24,0,0,1,3.17,1c1.24.94,2.5,2.73,2.58,6.19.16,6.92,1.78,10-1.73,10.49S90,69.81,90,69.81s-2.51.77-2.41-4.2c0-2.26,0-5.31-.16-8A5.55,5.55,0,0,1,93,51.87Z"/></clipPath><clipPath id="clip-path-2"><polygon class="cls-2" points="125.22 50.41 125.22 72.44 72.79 72.44 72.79 49.23 125.22 49.23 125.22 50.41"/></clipPath><clipPath id="clip-path-3"><path class="cls-3" d="M78.11,51.81c.25-.11,6.12-.84,6.32,2s0,15.36,0,15.36-5.88-1.27-6.57-6.76S76.52,52.56,78.11,51.81Z"/></clipPath><clipPath id="clip-path-4"><polygon class="cls-3" points="128.12 52.13 128.12 72.85 74.48 72.85 74.48 51.02 128.12 51.02 128.12 52.13"/></clipPath></defs><path class="cls-4" d="M148.56,68.23c0-2.13-.79-2.88-1.73-3.11l0-1.65c1.07,0,1.59,0,1.68-1.46.11-1.75.24-5.23-1-5.23h-.72v-.19a.47.47,0,0,0,0-.16c-.09-.38.76-4.74-8-4a7.94,7.94,0,0,0-2.79-4.13c0-.58-.06-1.61-.13-3.42a8.28,8.28,0,0,0-3.52-6.94c-1.25-.93-5.2-1.64-6.94-2-.4-.09-2.45-.16-5.42-.22a6.79,6.79,0,0,0,.88-4.6c-.4-3.23-3.86-4.11-5.42-4.34V23.8L58.68,20.19,2.43,48.05,3,92v9.1H7l-.3,4.12,4.62.31c0,.11,0,.21,0,.32,0,.62-.14,3.93,1.87,5.11a2,2,0,0,0,.83.29h5.18a4.29,4.29,0,0,0,1.8,2.46,2.57,2.57,0,0,0,1.06.36h5a3.67,3.67,0,0,0,1,.85,2.75,2.75,0,0,0,.72.31v.07H29a1.93,1.93,0,0,0,.83,0l4.92-.1s2.92-2.06,3-8.56l1.95.43v.86l7.52,2.38a38.77,38.77,0,0,0,0,4.16c.06,1-.23,6.63,3.16,8.63a3.12,3.12,0,0,0,1.83.51h0l6.36-.14s1.59-1.3,2.54-5c2.09.48,4.56,1,5.86,1.24-.13,2.74-.23,4.89-.23,4.89h3.49a7.91,7.91,0,0,0,3.35,4.89,4,4,0,0,0,2.33.64v0l9.37-.19s3-2.09,4.2-8.21c7.32.06,20.48,0,31.93-.05.38,2.53,1.32,5.44,3.67,6.9a3.84,3.84,0,0,0,2.29.66v0l8-.19s2.26-1.94,3.4-7.51l4.36,0s1.5-.33,1.56-2.57c0-1.48-.1-3.33-.19-4.42l.05-.06c.83-1.23,0-13.33,0-13.33a3.15,3.15,0,0,0-2.67-3.43V95.24a3,3,0,0,0,1.11-.16,1.53,1.53,0,0,0,.65-1.3c0-.53,0-8.25,0-8.25l-1.88-6.61v-4l-.07-.5c.47,0,1-.08,1.61-.15a3.53,3.53,0,0,0,3.54-3.59A2.26,2.26,0,0,0,148.56,68.23Zm-7,5.22L138.84,53.4c7.42-.1,6.6,2.92,6.6,3.41a1.1,1.1,0,0,0-1,.88c-.16,1.12,0,5.3,0,5.3s0,.43,1,.5v1.78a2.59,2.59,0,0,0-1.07,2.39,4.3,4.3,0,0,0,1.56,3.14C145.63,72.77,143.37,73.49,141.6,73.45Z"/><polygon class="cls-5" points="15.37 91.68 11.95 95.75 14.25 99.3 37.81 99.51 37.3 91.68 15.37 91.68"/><path class="cls-5" d="M29.16,114.16,35,114s3.63-2.51,2.88-10.9-8.55-6.57-8.55-6.57"/><polyline class="cls-5" points="14.64 110.2 21.49 110.2 21.49 97.3 15.06 97.3"/><path class="cls-5" d="M66.24,93.48s-5,2.35-7.06,3.71a5.51,5.51,0,0,0-2.44,3.23l.18,5.71,14.76,1.19s7.22-11.39,7.1-11.72S66.24,93.48,66.24,93.48Z"/><path class="cls-5" d="M126.41,99.12s-7.47-1.27-6.51,16.95c.07,1.34-.28,8.5,3.89,11.07C133,132.82,133.36,100.33,126.41,99.12Z"/><line class="cls-6" x1="128.32" y1="126.88" x2="135.88" y2="126.88"/><line class="cls-7" x1="129.23" y1="125.48" x2="136.22" y2="125.48"/><line class="cls-7" x1="129.73" y1="123.9" x2="136.72" y2="123.9"/><line class="cls-7" x1="130.27" y1="122.29" x2="137.26" y2="122.29"/><line class="cls-7" x1="130.66" y1="120.75" x2="137.66" y2="120.75"/><line class="cls-7" x1="130.9" y1="119.11" x2="137.9" y2="119.11"/><line class="cls-7" x1="131.11" y1="117.43" x2="138.11" y2="117.43"/><line class="cls-7" x1="131.3" y1="116.14" x2="138.3" y2="116.14"/><line class="cls-8" x1="108.92" y1="89.69" x2="108.92" y2="92.26"/><line class="cls-8" x1="109.49" y1="89.69" x2="109.49" y2="92.26"/><line class="cls-8" x1="110.03" y1="89.69" x2="110.03" y2="92.26"/><line class="cls-8" x1="110.52" y1="89.69" x2="110.52" y2="92.26"/><line class="cls-8" x1="111" y1="89.69" x2="111" y2="92.26"/><polygon class="cls-8" points="111.63 89.69 111.63 92.26 59.46 92.34 59.46 30.09 111.97 30.97 111.42 42.66 111.63 89.69"/><line class="cls-8" x1="112.32" y1="89.69" x2="112.32" y2="92.26"/><line class="cls-8" x1="112.92" y1="89.69" x2="112.92" y2="92.26"/><line class="cls-8" x1="113.5" y1="89.69" x2="113.5" y2="92.26"/><line class="cls-8" x1="114.02" y1="89.69" x2="114.02" y2="92.26"/><line class="cls-8" x1="114.71" y1="89.77" x2="114.71" y2="92.34"/><line class="cls-8" x1="115.27" y1="89.77" x2="115.27" y2="92.34"/><line class="cls-8" x1="115.82" y1="89.77" x2="115.82" y2="92.34"/><line class="cls-8" x1="116.3" y1="89.77" x2="116.3" y2="92.34"/><line class="cls-8" x1="116.79" y1="89.77" x2="116.79" y2="92.34"/><line class="cls-8" x1="117.42" y1="89.77" x2="117.42" y2="92.34"/><line class="cls-8" x1="118.11" y1="89.77" x2="118.11" y2="92.34"/><line class="cls-8" x1="118.71" y1="89.77" x2="118.71" y2="92.34"/><line class="cls-8" x1="119.29" y1="89.77" x2="119.29" y2="92.34"/><line class="cls-8" x1="119.81" y1="89.77" x2="119.81" y2="92.34"/><line class="cls-8" x1="120.44" y1="89.77" x2="120.44" y2="92.34"/><line class="cls-8" x1="121.16" y1="89.77" x2="121.16" y2="92.34"/><path class="cls-9" d="M75.49,128.65l9.2-.18s5.7-4,4.51-17.1-13.4-10.31-13.4-10.31"/><polygon class="cls-10" points="3.75 91.44 3.75 100.31 7.24 100.31 9.88 96.23 12.66 88.41 3.75 91.44"/><line class="cls-11" x1="16.93" y1="109.08" x2="21.43" y2="109.08"/><line class="cls-11" x1="17.25" y1="108.23" x2="21.75" y2="108.23"/><line class="cls-11" x1="17.29" y1="107.28" x2="21.79" y2="107.28"/><line class="cls-11" x1="17.49" y1="106.27" x2="21.99" y2="106.27"/><line class="cls-11" x1="17.49" y1="105.22" x2="21.99" y2="105.22"/><line class="cls-11" x1="17.49" y1="104.21" x2="21.99" y2="104.21"/><line class="cls-11" x1="17.41" y1="103.17" x2="21.91" y2="103.17"/><line class="cls-11" x1="17.43" y1="102.28" x2="21.93" y2="102.28"/><line class="cls-11" x1="17.27" y1="101.19" x2="21.77" y2="101.19"/><line class="cls-11" x1="17.25" y1="100.34" x2="21.75" y2="100.34"/><line class="cls-11" x1="17.05" y1="99.4" x2="21.55" y2="99.4"/><line class="cls-11" x1="17.05" y1="98.42" x2="21.55" y2="98.42"/><polygon class="cls-12" points="3.41 48.24 58.66 21.09 58.66 93.6 3.94 92.21 3.41 48.24"/><line class="cls-13" x1="61.08" y1="57.03" x2="75.46" y2="42.66"/><line class="cls-13" x1="61.02" y1="55.19" x2="75.39" y2="40.81"/><line class="cls-13" x1="60.51" y1="53.12" x2="74.88" y2="38.75"/><line class="cls-13" x1="60.27" y1="50.96" x2="74.64" y2="36.59"/><line class="cls-13" x1="59.91" y1="49.01" x2="74.28" y2="34.63"/><line class="cls-13" x1="59.91" y1="47.39" x2="74.28" y2="33.02"/><line class="cls-13" x1="59.46" y1="45.93" x2="73.83" y2="31.56"/><line class="cls-13" x1="59.11" y1="44.46" x2="73.48" y2="30.09"/><line class="cls-13" x1="59.75" y1="41.43" x2="74.12" y2="27.05"/><line class="cls-13" x1="61.26" y1="75.88" x2="75.63" y2="61.51"/><line class="cls-13" x1="61.19" y1="74.04" x2="75.56" y2="59.66"/><line class="cls-13" x1="60.68" y1="71.97" x2="75.05" y2="57.6"/><line class="cls-13" x1="60.44" y1="69.81" x2="74.81" y2="55.44"/><line class="cls-13" x1="60.09" y1="67.86" x2="74.46" y2="53.48"/><line class="cls-13" x1="60.09" y1="66.24" x2="74.46" y2="51.87"/><line class="cls-13" x1="59.64" y1="64.78" x2="74.01" y2="50.41"/><line class="cls-13" x1="59.28" y1="63.31" x2="73.65" y2="48.94"/><line class="cls-13" x1="59.92" y1="60.28" x2="74.29" y2="45.9"/><line class="cls-13" x1="62.48" y1="94.05" x2="76.86" y2="79.68"/><line class="cls-13" x1="62.42" y1="92.2" x2="76.79" y2="77.83"/><line class="cls-13" x1="61.91" y1="90.14" x2="76.28" y2="75.77"/><line class="cls-13" x1="61.67" y1="87.98" x2="76.04" y2="73.61"/><line class="cls-13" x1="61.31" y1="86.03" x2="75.69" y2="71.65"/><line class="cls-13" x1="61.31" y1="84.41" x2="75.69" y2="70.04"/><line class="cls-13" x1="60.86" y1="82.95" x2="75.24" y2="68.58"/><line class="cls-13" x1="60.51" y1="81.48" x2="74.88" y2="67.11"/><line class="cls-13" x1="61.15" y1="78.44" x2="75.52" y2="64.07"/><polygon class="cls-14" points="112.67 28.5 61.59 25.09 61.59 90.78 68.2 90.78 112.67 28.5"/><polygon class="cls-15" points="58.48 21.47 58.48 93.97 94.63 93.97 95.6 90.78 61.49 90.78 61.49 34.81 112.59 35.09 114.16 29.93 114.16 24.98 58.48 21.47"/><path class="cls-16" d="M117.49,37.8s2.51-1.68,2-5.75-6.08-4.31-6.08-4.31l-52.83-3.6V36.59Z"/><path class="cls-16" d="M80.51,34.39a2.7,2.7,0,0,1,1.85-.86l33,.45s1,.26,1.14.9"/><polygon class="cls-17" points="94.2 32.92 94.14 36.85 105.96 37.04 106.02 33.11 95.6 32.95 94.2 32.92"/><line class="cls-17" x1="104.8" y1="37.02" x2="104.86" y2="33.09"/><line class="cls-17" x1="95.56" y1="36.88" x2="95.62" y2="32.95"/><line class="cls-17" x1="97.53" y1="36.8" x2="97.59" y2="33.11"/><line class="cls-17" x1="99.22" y1="36.83" x2="99.28" y2="33.12"/><line class="cls-17" x1="100.73" y1="36.96" x2="100.79" y2="33.03"/><line class="cls-17" x1="102.07" y1="36.98" x2="102.13" y2="33.05"/><line class="cls-17" x1="103.44" y1="37" x2="103.5" y2="33.07"/><polyline class="cls-5" points="22.53 112.96 30.24 112.96 30.24 96.93 23 96.93"/><path class="cls-5" d="M52.21,122.26l6.24-.15s3.87-3.09,3.06-13.4-9.09-8.08-9.09-8.08"/><polygon class="cls-5" points="14.64 97.84 7.91 97.79 7.43 104.33 14.64 104.8 14.64 97.84"/><line class="cls-18" x1="77.72" y1="127.51" x2="85.8" y2="127.51"/><line class="cls-18" x1="78.23" y1="125.93" x2="86.2" y2="125.93"/><line class="cls-18" x1="79.16" y1="124.15" x2="87.2" y2="124.15"/><line class="cls-18" x1="79.78" y1="122.34" x2="87.85" y2="122.34"/><line class="cls-18" x1="80.34" y1="120.6" x2="88.57" y2="120.6"/><line class="cls-18" x1="79.93" y1="118.75" x2="88.13" y2="118.75"/><line class="cls-18" x1="80.13" y1="116.85" x2="88.37" y2="116.85"/><line class="cls-18" x1="80.3" y1="115.39" x2="88.61" y2="115.39"/><line class="cls-11" x1="53.99" y1="121.32" x2="59.11" y2="121.32"/><line class="cls-11" x1="54.24" y1="120.8" x2="59.36" y2="120.8"/><line class="cls-11" x1="54.61" y1="120.22" x2="59.73" y2="120.22"/><line class="cls-11" x1="55" y1="119.63" x2="60.12" y2="119.63"/><line class="cls-11" x1="55.29" y1="119.06" x2="60.41" y2="119.06"/><line class="cls-11" x1="55.47" y1="118.45" x2="60.59" y2="118.45"/><line class="cls-11" x1="55.62" y1="117.83" x2="60.75" y2="117.83"/><line class="cls-11" x1="55.76" y1="117.35" x2="60.88" y2="117.35"/><line class="cls-11" x1="55.76" y1="116.63" x2="60.88" y2="116.63"/><line class="cls-11" x1="55.95" y1="115.98" x2="61.07" y2="115.98"/><line class="cls-11" x1="53.49" y1="121.77" x2="58.61" y2="121.77"/><line class="cls-11" x1="30.81" y1="114.54" x2="35.79" y2="114.54"/><line class="cls-11" x1="31.2" y1="113.87" x2="36.18" y2="113.87"/><line class="cls-11" x1="31.56" y1="113.12" x2="36.54" y2="113.12"/><line class="cls-11" x1="31.81" y1="112.36" x2="36.79" y2="112.36"/><line class="cls-11" x1="32.05" y1="111.63" x2="37.03" y2="111.63"/><line class="cls-11" x1="32.28" y1="110.85" x2="37.25" y2="110.85"/><line class="cls-11" x1="32.54" y1="110.06" x2="37.52" y2="110.06"/><line class="cls-11" x1="32.54" y1="109.3" x2="37.52" y2="109.3"/><line class="cls-11" x1="32.68" y1="108.57" x2="37.66" y2="108.57"/><line class="cls-11" x1="32.81" y1="107.7" x2="37.79" y2="107.7"/><line class="cls-11" x1="32.9" y1="106.72" x2="37.88" y2="106.72"/><line class="cls-11" x1="32.9" y1="105.96" x2="37.88" y2="105.96"/><line class="cls-11" x1="32.9" y1="105.05" x2="37.88" y2="105.05"/><line class="cls-11" x1="33.02" y1="104.12" x2="38" y2="104.12"/><line class="cls-11" x1="33.02" y1="103.33" x2="38" y2="103.33"/><line class="cls-11" x1="32.9" y1="102.35" x2="37.88" y2="102.35"/><line class="cls-11" x1="32.9" y1="101.59" x2="37.88" y2="101.59"/><line class="cls-11" x1="32.9" y1="100.74" x2="37.88" y2="100.74"/><line class="cls-11" x1="32.71" y1="99.86" x2="37.69" y2="99.86"/><line class="cls-11" x1="32.59" y1="99.02" x2="37.57" y2="99.02"/><line class="cls-11" x1="32.5" y1="98.45" x2="37.48" y2="98.45"/><line class="cls-11" x1="32.37" y1="97.71" x2="37.35" y2="97.71"/><line class="cls-11" x1="32.31" y1="96.93" x2="37.29" y2="96.93"/><line class="cls-11" x1="24.35" y1="111.94" x2="29.86" y2="111.74"/><line class="cls-11" x1="24.97" y1="110.85" x2="30.48" y2="110.65"/><line class="cls-11" x1="25.43" y1="108.82" x2="30.94" y2="108.62"/><line class="cls-11" x1="25.67" y1="107.28" x2="31.18" y2="107.08"/><line class="cls-11" x1="25.79" y1="106.56" x2="31.31" y2="106.36"/><line class="cls-11" x1="25.91" y1="105.7" x2="31.42" y2="105.5"/><line class="cls-11" x1="25.98" y1="104.72" x2="31.49" y2="104.52"/><line class="cls-11" x1="25.95" y1="103.98" x2="31.46" y2="103.78"/><line class="cls-11" x1="25.92" y1="103.09" x2="31.43" y2="102.88"/><line class="cls-11" x1="25.79" y1="102.17" x2="31.3" y2="101.97"/><line class="cls-11" x1="25.78" y1="101.39" x2="31.3" y2="101.19"/><line class="cls-11" x1="25.55" y1="99.71" x2="31.06" y2="99.51"/><line class="cls-11" x1="25.25" y1="98.65" x2="30.76" y2="98.45"/><line class="cls-11" x1="24.87" y1="97.81" x2="30.38" y2="97.61"/><line class="cls-11" x1="24.59" y1="96.4" x2="30.1" y2="96.2"/><polygon class="cls-19" points="55.95 90.44 55.95 24.75 4.85 49.51 5.64 90.44 55.95 90.44"/><path class="cls-5" d="M23,96.94s-4.34-.71-3.79,9.48c0,.74-.16,4.75,2.27,6.18C26.88,115.78,27.07,97.62,23,96.94Z"/><path class="cls-20" d="M22.69,99.22s-2.33-.5-2,6.61c0,.52-.09,3.31,1.21,4.31C24.75,112.36,24.86,99.69,22.69,99.22Z"/><path class="cls-20" d="M22.91,99.22s-2-.5-1.74,6.61c0,.52-.08,3.31,1,4.31C24.67,112.36,24.76,99.69,22.91,99.22Z"/><path class="cls-20" d="M23.68,100.46c-.26,0-1.49.21-1.31,5.21,0,.41-.06,2.61.82,3.4a.56.56,0,0,0,.5.19A19.51,19.51,0,0,0,23.68,100.46Z"/><path class="cls-5" d="M15.06,97.31s-3.53-.57-3.08,7.63c0,.6-.13,3.82,1.84,5C18.19,112.47,18.35,97.86,15.06,97.31Z"/><path class="cls-20" d="M14.86,99.91s-1.13-.34-1,4.45c0,.35,0,2.24.59,2.91C15.86,108.77,15.91,100.22,14.86,99.91Z"/><path class="cls-21" d="M15.08,101.81s-.56-.16-.49,2.2c0,.18,0,1.11.29,1.44C15.57,106.19,15.6,102,15.08,101.81Z"/><path class="cls-21" d="M23.7,102.59s-.66-.2-.58,2.62c0,.21,0,1.31.35,1.71C24.29,107.8,24.32,102.78,23.7,102.59Z"/><path class="cls-22" d="M30.81,103.55s-.56-.16-.49,2.21c0,.17,0,1.1.29,1.44C31.3,107.93,31.32,103.71,30.81,103.55Z"/><path class="cls-5" d="M30.12,96.49S25.35,95.7,26,107c.05.82-.18,5.25,2.49,6.83C34.36,117.3,34.57,97.24,30.12,96.49Z"/><path class="cls-21" d="M29.6,99.6s-2.4-.5-2.09,6.74c0,.53-.09,3.38,1.24,4.4C31.72,113,31.83,100.08,29.6,99.6Z"/><path class="cls-21" d="M29.82,99.6s-2.05-.5-1.79,6.74c0,.53-.08,3.38,1.07,4.4C31.64,113,31.73,100.08,29.82,99.6Z"/><path class="cls-21" d="M30.62,100.87c-.27,0-1.54.22-1.35,5.31,0,.42-.06,2.67.84,3.47a.61.61,0,0,0,.52.2A19.74,19.74,0,0,0,30.62,100.87Z"/><polygon class="cls-5" points="33.58 94.77 33.89 104.8 42.03 106.59 42.03 95.04 33.58 94.77"/><path class="cls-5" d="M44.8,97.42s-3.74-1.21-3.49,3.45"/><path class="cls-5" d="M47.72,97.19s-5-1-4.35,3.56"/><path class="cls-5" d="M50,97s-4.77-.85-4.26,3.91"/><path class="cls-5" d="M51.55,96.76s-4.22-.05-3.8,4.6"/><polygon class="cls-5" points="48.8 100.31 39.91 99.93 39.91 106.96 48.53 109.67 48.8 100.31"/><polygon class="cls-5" points="45.71 103.02 45.71 106.27 41.18 105.3 41.18 102.38 45.71 103.02"/><path class="cls-5" d="M52.51,100.44s-6-1-5.2,12.89c0,1-.23,6.47,3.1,8.42C57.79,126.07,58.07,101.36,52.51,100.44Z"/><path class="cls-5" d="M69.61,102.38c-.27-.26-13.26-1.06-13.26-1.06a12,12,0,0,0-1.59,8.36c.69,5.27,2,6.34,2.76,6.71s9.48,2.23,10.07,2.23,4.09-3.46,4.09-3.46Z"/><path class="cls-16" d="M51.75,104.81s-2.69-.57-2.34,7.64c0,.6-.11,3.83,1.4,5C54.13,120,54.25,105.36,51.75,104.81Z"/><path class="cls-16" d="M52,104.81s-2.3-.57-2,7.64c0,.6-.08,3.83,1.2,5C54,120,54.14,105.36,52,104.81Z"/><path class="cls-16" d="M52.9,106.25c-.31,0-1.73.25-1.52,6,0,.47-.07,3,.94,3.93a.68.68,0,0,0,.59.22A22.68,22.68,0,0,0,52.9,106.25Z"/><path class="cls-5" d="M66.48,102.08c.12,0-6.51.24-2.51,15.59"/><path class="cls-5" d="M62.68,101.77c.12,0-6.5.23-2.51,15.25"/><path class="cls-9" d="M78.15,103.21l-6.2,20H66.48s.71-14.69.74-15.92a29.87,29.87,0,0,1,.32-4.21,9.34,9.34,0,0,1,3.3-5.83,4.22,4.22,0,0,1,.55-.42C74.51,95.2,77.71,98,78.15,103.21Z"/><path class="cls-5" d="M75.87,100.82s-7.61-1.23-6.63,16.45c.07,1.29-.29,8.25,4,10.74C82.62,133.52,83,102,75.87,100.82Z"/><path class="cls-16" d="M75.2,106.31s-3.34-.75-2.92,10c0,.78-.12,5,1.75,6.5C78.16,126.11,78.31,107,75.2,106.31Z"/><path class="cls-16" d="M74.45,107.74s-2.81-.62-2.45,8.37c0,.65-.11,4.19,1.46,5.46C76.93,124.37,77.06,108.34,74.45,107.74Z"/><path class="cls-16" d="M72.55,108.72s-2.58-.51-2.25,6.83c0,.53-.1,3.42,1.35,4.45C74.85,122.29,75,109.21,72.55,108.72Z"/><path class="cls-23" d="M86.32,102.08l-8.84-.37,1.38,17.93a.94.94,0,0,0,.93.86H88Z"/><path class="cls-20" d="M148.56,68.06c0-2.08-.77-2.81-1.7-3l0-1.61c1,0,1.56,0,1.65-1.43.11-1.7.24-5.1-1-5.1h-.7v-.19a.39.39,0,0,0,0-.15c-.09-.39.86-5-9.11-3.84h-.09c-.6.12-7,1.31.24.91,8.61-.46,7.7,2.78,7.7,3.29a1,1,0,0,0-1,.86c-.16,1.09,0,5.16,0,5.16s0,.42,1,.48v1.74a2.48,2.48,0,0,0-1,2.33A4.19,4.19,0,0,0,146,70.56c-.38,2.65-4.49,3-5.9,2.25-.29-.15-.62.2-.7.51h0a.69.69,0,0,0,.65.87,33.86,33.86,0,0,0,3.42-.24,3.46,3.46,0,0,0,3.48-3.5A2.22,2.22,0,0,0,148.56,68.06Z"/><path class="cls-16" d="M68.7,49.58a25.18,25.18,0,0,1-.48-4.26,22,22,0,0,1,1.11-4.58,9,9,0,0,1,3.14-2.87,40,40,0,0,1,12.19-1.66c6.23.11,37.59.16,39.29.54s5.59,1.06,6.81,2a8,8,0,0,1,3.46,6.76l.16,4.1s-14.21-1.6-48-1.41c-1.63,0-5,.2-6.51.31s-9.5,1.8-9.94,1.92S68.7,49.58,68.7,49.58Z"/><path class="cls-16" d="M142,85.14l-1.85-6.45V74.81l-3-21.93s-1-4.15-4.95-5.06-29.1-.43-29.1-.43-29.41-.64-31.82,1a6,6,0,0,0-2.53,6c.39,3.11,1,30.58,1,30.58s-2.57,1.19-2.57,2.74V99.18h1.69l1.78-2a2.85,2.85,0,0,1,1.51-.77h0a6,6,0,0,1,2.25.5c2.33,1,3.16,6.14,3.26,6.27s5.84.28,6.21.2,56.43,0,56.43,0V94.6a3,3,0,0,0,1.1-.16,1.48,1.48,0,0,0,.64-1.26C141.94,92.66,142,85.14,142,85.14Z"/><path class="cls-24" d="M95.28,89.65s1.25,2.6,2.33,2.73,31.29,0,31.29,0a3.15,3.15,0,0,0,2.73-2.18l.3-.7Z"/><path class="cls-25" d="M92.09,84.35s1.43,3.83,2.65,4,35.45,0,35.45,0,2.06,0,3.1-3.21l.33-1Z"/><line class="cls-26" x1="95.28" y1="84.41" x2="95.28" y2="88.06"/><line class="cls-26" x1="96.92" y1="84.41" x2="96.92" y2="88.06"/><line class="cls-26" x1="98.49" y1="84.41" x2="98.49" y2="88.06"/><line class="cls-26" x1="99.89" y1="84.41" x2="99.89" y2="88.06"/><line class="cls-26" x1="101.29" y1="84.41" x2="101.29" y2="88.06"/><line class="cls-26" x1="103.1" y1="84.41" x2="103.1" y2="88.06"/><line class="cls-26" x1="105.1" y1="84.41" x2="105.1" y2="88.06"/><line class="cls-26" x1="106.84" y1="84.41" x2="106.84" y2="88.06"/><line class="cls-26" x1="108.51" y1="84.41" x2="108.51" y2="88.06"/><line class="cls-26" x1="110" y1="84.41" x2="110" y2="88.06"/><line class="cls-26" x1="111.98" y1="84.53" x2="111.98" y2="88.17"/><line class="cls-26" x1="113.62" y1="84.53" x2="113.62" y2="88.17"/><line class="cls-26" x1="115.19" y1="84.53" x2="115.19" y2="88.17"/><line class="cls-26" x1="116.6" y1="84.53" x2="116.6" y2="88.17"/><line class="cls-26" x1="118" y1="84.53" x2="118" y2="88.17"/><line class="cls-26" x1="119.8" y1="84.53" x2="119.8" y2="88.17"/><line class="cls-26" x1="121.81" y1="84.53" x2="121.81" y2="88.17"/><line class="cls-26" x1="123.55" y1="84.53" x2="123.55" y2="88.17"/><line class="cls-26" x1="125.22" y1="84.53" x2="125.22" y2="88.17"/><line class="cls-26" x1="126.7" y1="84.53" x2="126.7" y2="88.17"/><line class="cls-26" x1="128.52" y1="84.53" x2="128.52" y2="88.17"/><line class="cls-26" x1="130.6" y1="84.53" x2="130.6" y2="88.17"/><polygon class="cls-27" points="86.9 84.41 86.9 80.8 139.46 80.8 139.46 84.63 138.45 84.68 138.47 82.39 88.94 82.39 88.94 84.68 86.9 84.41"/><path class="cls-16" d="M139.47,70s.3,2.72-5.73,2.8c-5.78.07-43.84,0-47.1,0a2.77,2.77,0,0,1-.49,0,16,16,0,0,1-9.87-6.45,7.38,7.38,0,0,1-.72-2.12c-.4-2.64-1.79-10.87-1.55-12.36h-.92s.9,12.56,2,14.37A14.42,14.42,0,0,0,86,73.8c7.15,1.07,48.71,0,48.71,0a10.4,10.4,0,0,0,2.67-.4A3,3,0,0,0,139.47,70Z"/><path class="cls-28" d="M80.2,75c-6.76,3.53-8.6.37-8.6.37a2.81,2.81,0,0,0,.75-1s.87-4-.87-5.64v-3a2,2,0,0,0,1.21-1.29c.52-1.75,0-8.12,0-8.12a2.77,2.77,0,0,0-1.21-2.14l0-1.49s.1-1,2.3-.19c1.31.5.45-1,.45-1s-1.76-2.21-3.52-1.08a1.84,1.84,0,0,0-.76,1.35l-.08,2.1c-.27,0,0,0-.33,0-3,.52-2.8,3.71-3,3.86s0,6.72,0,6.72-.1,1.9,1.56,1.75A18.5,18.5,0,0,0,70,66.09l0,2.1c-3.48-.33-3.08,3.13-3.08,3.23L67,73.61a2.59,2.59,0,0,0,2.37,2.64,1.76,1.76,0,0,0,.73,0s2,2.16,4,2.2a14.2,14.2,0,0,0,7.07-2.07S80.43,74.88,80.2,75Z"/><path class="cls-16" d="M78.17,51.92c.24-.12,6-.84,6.18,2s0,15.36,0,15.36-5.75-1.27-6.43-6.76S76.62,52.67,78.17,51.92Z"/><path class="cls-21" d="M126.36,53.63h2.75a3.22,3.22,0,0,1,3.44,3.2c.12,3.35,0,10.7,0,10.7H126.2Z"/><path class="cls-16" d="M84.6,113.83a3.85,3.85,0,0,0-1.74,2.56c-.26,1.7,0,3.82.45,3.93,2,.43,58.17,0,58.17,0s1.47-.32,1.52-2.5a47.5,47.5,0,0,0-.27-5.22l-48.81-.27Z"/><path class="cls-29" d="M132.1,114.85H98.37s.51,2.89,1.18,3.5,29.43,0,29.43,0S131.44,118.45,132.1,114.85Z"/><line class="cls-30" x1="101.88" y1="114.85" x2="101.88" y2="118.45"/><line class="cls-30" x1="103.48" y1="114.85" x2="103.48" y2="118.45"/><line class="cls-30" x1="105.48" y1="114.85" x2="105.48" y2="118.45"/><line class="cls-30" x1="107.12" y1="114.85" x2="107.12" y2="118.42"/><line class="cls-30" x1="108.91" y1="114.85" x2="108.91" y2="118.47"/><line class="cls-30" x1="110.71" y1="114.85" x2="110.71" y2="118.47"/><line class="cls-30" x1="112.55" y1="114.85" x2="112.55" y2="118.45"/><line class="cls-30" x1="114.93" y1="114.88" x2="114.93" y2="118.45"/><line class="cls-30" x1="117.02" y1="114.88" x2="117.02" y2="118.38"/><line class="cls-30" x1="118.7" y1="114.88" x2="118.7" y2="118.38"/><line class="cls-30" x1="120.54" y1="114.88" x2="120.56" y2="118.38"/><line class="cls-30" x1="122.57" y1="114.85" x2="122.57" y2="118.33"/><line class="cls-30" x1="124.45" y1="114.85" x2="124.45" y2="118.29"/><line class="cls-30" x1="126.65" y1="114.85" x2="126.65" y2="118.29"/><line class="cls-30" x1="128.56" y1="114.85" x2="128.56" y2="118.24"/><line class="cls-30" x1="98.95" y1="116.66" x2="131.46" y2="116.66"/><g class="cls-31"><g class="cls-32"><line class="cls-3" x1="123.73" y1="52.16" x2="123.73" y2="70.31"/><line class="cls-3" x1="122.66" y1="52.16" x2="122.66" y2="70.31"/><line class="cls-3" x1="121.74" y1="52.16" x2="121.74" y2="70.31"/><line class="cls-3" x1="120.61" y1="52.02" x2="120.61" y2="70.16"/><line class="cls-3" x1="119.59" y1="52.02" x2="119.59" y2="70.16"/><line class="cls-3" x1="118.51" y1="52.02" x2="118.51" y2="70.16"/><line class="cls-3" x1="117.59" y1="52.02" x2="117.59" y2="70.16"/><line class="cls-3" x1="116.47" y1="51.87" x2="116.47" y2="70.02"/><line class="cls-3" x1="115.51" y1="51.58" x2="115.51" y2="69.73"/><line class="cls-3" x1="114.43" y1="51.58" x2="114.43" y2="69.73"/><line class="cls-3" x1="113.51" y1="51.58" x2="113.51" y2="69.73"/><line class="cls-3" x1="112.39" y1="51.44" x2="112.39" y2="69.59"/><line class="cls-3" x1="111.36" y1="51.44" x2="111.36" y2="69.59"/><line class="cls-3" x1="110.28" y1="51.44" x2="110.28" y2="69.59"/><line class="cls-3" x1="109.37" y1="51.44" x2="109.37" y2="69.59"/><line class="cls-3" x1="108.24" y1="51.3" x2="108.24" y2="69.44"/><line class="cls-3" x1="107.19" y1="51.73" x2="107.19" y2="69.88"/><line class="cls-3" x1="106.12" y1="51.73" x2="106.12" y2="69.88"/><line class="cls-3" x1="105.2" y1="51.73" x2="105.2" y2="69.88"/><line class="cls-3" x1="104.08" y1="51.58" x2="104.08" y2="69.73"/><line class="cls-3" x1="103.05" y1="51.58" x2="103.05" y2="69.73"/><line class="cls-3" x1="101.97" y1="51.58" x2="101.97" y2="69.73"/><line class="cls-3" x1="101.05" y1="51.58" x2="101.05" y2="69.73"/><line class="cls-3" x1="99.93" y1="51.44" x2="99.93" y2="69.59"/><line class="cls-3" x1="98.97" y1="51.15" x2="98.97" y2="69.3"/><line class="cls-3" x1="97.89" y1="51.15" x2="97.89" y2="69.3"/><line class="cls-3" x1="96.97" y1="51.15" x2="96.97" y2="69.3"/><line class="cls-3" x1="95.85" y1="51.01" x2="95.85" y2="69.16"/><line class="cls-3" x1="94.82" y1="51.01" x2="94.82" y2="69.16"/><line class="cls-3" x1="93.75" y1="51.01" x2="93.75" y2="69.16"/><line class="cls-3" x1="92.83" y1="51.01" x2="92.83" y2="69.16"/><line class="cls-3" x1="91.7" y1="50.86" x2="91.7" y2="69.01"/><line class="cls-3" x1="90.8" y1="51.05" x2="90.8" y2="69.2"/><line class="cls-3" x1="89.73" y1="51.05" x2="89.73" y2="69.2"/><line class="cls-3" x1="88.81" y1="51.05" x2="88.81" y2="69.2"/><line class="cls-3" x1="86.66" y1="50.91" x2="86.66" y2="69.06"/><line class="cls-3" x1="85.58" y1="50.91" x2="85.58" y2="69.06"/><line class="cls-3" x1="84.66" y1="50.91" x2="84.66" y2="69.06"/><line class="cls-3" x1="83.54" y1="50.76" x2="83.54" y2="68.91"/><line class="cls-3" x1="82.58" y1="50.47" x2="82.58" y2="68.62"/><line class="cls-3" x1="81.5" y1="50.47" x2="81.5" y2="68.62"/><line class="cls-3" x1="80.58" y1="50.47" x2="80.58" y2="68.62"/><line class="cls-3" x1="79.46" y1="50.33" x2="79.46" y2="68.48"/><line class="cls-3" x1="78.43" y1="50.33" x2="78.43" y2="68.48"/><line class="cls-3" x1="77.35" y1="50.33" x2="77.35" y2="68.48"/><line class="cls-3" x1="76.44" y1="50.33" x2="76.44" y2="68.48"/><line class="cls-3" x1="75.31" y1="50.19" x2="75.31" y2="68.34"/></g><polygon class="cls-2" points="125.22 50.41 125.22 72.44 72.79 72.44 72.79 49.23 125.22 49.23 125.22 50.41"/></g><path class="cls-33" d="M93,51.87h36.17a5.24,5.24,0,0,1,3.17,1c1.24.94,2.5,2.73,2.58,6.19.16,6.92,1.78,10-1.73,10.49S90,69.81,90,69.81s-2.44.17-2.41-4.2c0-2.26,0-5.31-.16-8A5.55,5.55,0,0,1,93,51.87Z"/><path class="cls-19" d="M128.15,69.81s1-4.11-8-4.92c-2.76,0-4.24,2-4.27,3h-6.65a3.33,3.33,0,0,0-3.5-1.7c-2.34.5-18.1,0-18.1,0s0,3.53,2.41,3.53C103.13,69.85,128.15,69.81,128.15,69.81Z"/><path class="cls-16" d="M94,96.47s-11,.47-11,4.26c0,2,0,11.77,0,11.77s.11,2.13,1.2,2.66,53.69,0,53.69,0,4.09-.56,4.91-1.76,0-13,0-13,.4-2.9-3.09-3.43S94,96.47,94,96.47Z"/><path class="cls-34" d="M98.66,106.07s.67,4.65,2.1,5.08,25.84,0,25.84,0a7,7,0,0,0,2.78-5.4Z"/><path class="cls-35" d="M98.23,112.78c.42-.07.73-8.54-12.86-8.41C85.37,104.37,82.05,115.35,98.23,112.78Z"/><path class="cls-16" d="M95.62,111.17c.26,0,.44-5.11-7.7-5C87.92,106.14,85.93,112.71,95.62,111.17Z"/><line class="cls-16" x1="87.75" y1="107.69" x2="94" y2="107.69"/><line class="cls-16" x1="95.46" y1="109.57" x2="88.33" y2="109.57"/><path class="cls-36" d="M129.83,112.78c-.39-.07-.67-8.54,11.74-8.41C141.57,104.37,144.6,115.35,129.83,112.78Z"/><path class="cls-37" d="M132.21,111.17c-.23,0-.4-5.11,7-5C139.24,106.14,141.06,112.71,132.21,111.17Z"/><line class="cls-37" x1="139.39" y1="107.69" x2="133.69" y2="107.69"/><line class="cls-37" x1="132.36" y1="109.57" x2="138.86" y2="109.57"/><path class="cls-16" d="M94.5,93.09a4.44,4.44,0,0,0,2.62,1.84c1.75.4,32.54,0,32.54,0l4.78-3,.89.12-5.28,3.4.88,1.78s.5,1.27-1.31,3.21c-3.58,3.83-4.88,3.83-4.88,3.83H99.67s-1.72,0-3-3.19S95.48,97.3,94,96.36a9.42,9.42,0,0,1-2.49-2.93l1.13-1.17Z"/><line class="cls-38" x1="124.75" y1="99.83" x2="124.75" y2="104.2"/><line class="cls-38" x1="122.33" y1="99.83" x2="122.33" y2="104.2"/><line class="cls-38" x1="119.7" y1="99.83" x2="119.7" y2="104.2"/><line class="cls-38" x1="116.94" y1="99.83" x2="116.94" y2="104.2"/><line class="cls-38" x1="114.31" y1="99.83" x2="114.31" y2="104.2"/><line class="cls-38" x1="111.12" y1="99.83" x2="111.12" y2="104.2"/><line class="cls-38" x1="108.32" y1="99.83" x2="108.32" y2="104.2"/><line class="cls-38" x1="105.63" y1="99.83" x2="105.63" y2="104.2"/><line class="cls-38" x1="102.92" y1="99.83" x2="102.92" y2="104.2"/><line class="cls-38" x1="99.89" y1="99.83" x2="99.89" y2="104.2"/><path class="cls-16" d="M129.59,99.74c-9.92.12-33.11.09-33.11.09l-.6-1.29,34.72-.09S130.06,99.74,129.59,99.74Z"/><path class="cls-16" d="M87.16,84.13s-2.76,1.75-2.23,3.72a8.53,8.53,0,0,0,3.57,4.78c1.27.6,4.84.49,5.27.39S93.45,85.88,87.16,84.13Z"/><path class="cls-16" d="M138.65,84.13s2.5,1.7,2,3.61a8.27,8.27,0,0,1-3.23,4.63c-1.15.57-4.38.47-4.77.37S133,85.83,138.65,84.13Z"/><polyline class="cls-5" points="51.55 100.47 51.55 95.35 62.42 95.35"/><path class="cls-39" d="M77.85,40.66a16.67,16.67,0,0,1,.88,3.74"/><path class="cls-19" d="M77.88,40.65a9.62,9.62,0,0,1,.81,1.79,3.16,3.16,0,0,1,.27.94,2.1,2.1,0,0,1-.19,1,0,0,0,0,1-.06,0l0,0a2.84,2.84,0,0,1-.47-.89,4.17,4.17,0,0,1-.11-.94c-.08-.63-.17-1.26-.3-1.89,0,0,0,0,0,0S77.87,40.63,77.88,40.65Z"/><path class="cls-39" d="M79.72,40.66a16.67,16.67,0,0,1,.88,3.74"/><path class="cls-19" d="M79.75,40.65a9.62,9.62,0,0,1,.81,1.79,2.89,2.89,0,0,1,.27.94,2.1,2.1,0,0,1-.19,1,0,0,0,0,1-.06,0l0,0a2.84,2.84,0,0,1-.47-.89,4.17,4.17,0,0,1-.11-.94c-.08-.63-.17-1.26-.3-1.89,0,0,0,0,0,0S79.74,40.63,79.75,40.65Z"/><path class="cls-39" d="M81.47,40.66a16.37,16.37,0,0,1,.89,3.74"/><path class="cls-19" d="M81.51,40.65a9.62,9.62,0,0,1,.81,1.79,3.16,3.16,0,0,1,.27.94,2.36,2.36,0,0,1-.19,1s0,0-.06,0l0,0a2.84,2.84,0,0,1-.47-.89,4.17,4.17,0,0,1-.11-.94c-.08-.63-.17-1.26-.3-1.89a0,0,0,0,1,0,0A0,0,0,0,1,81.51,40.65Z"/><path class="cls-39" d="M83.31,40.66a16.67,16.67,0,0,1,.88,3.74"/><path class="cls-19" d="M83.34,40.65a9.62,9.62,0,0,1,.81,1.79,3.16,3.16,0,0,1,.27.94,2.1,2.1,0,0,1-.19,1,0,0,0,0,1-.06,0l0,0a2.84,2.84,0,0,1-.47-.89,4.17,4.17,0,0,1-.11-.94c-.08-.63-.17-1.26-.3-1.89,0,0,0,0,0,0S83.33,40.63,83.34,40.65Z"/><path class="cls-39" d="M85.07,40.66A16.05,16.05,0,0,1,86,44.4"/><path class="cls-19" d="M85.1,40.65a9.66,9.66,0,0,1,.82,1.79,2.87,2.87,0,0,1,.26.94,2.1,2.1,0,0,1-.19,1,0,0,0,0,1-.06,0s0,0,0,0a2.65,2.65,0,0,1-.47-.89,3.67,3.67,0,0,1-.12-.94c-.08-.63-.17-1.26-.3-1.89,0,0,0,0,0,0S85.1,40.63,85.1,40.65Z"/><path class="cls-39" d="M87.14,40.66A16.37,16.37,0,0,1,88,44.4"/><path class="cls-19" d="M87.18,40.65A9.62,9.62,0,0,1,88,42.44a3.16,3.16,0,0,1,.27.94,2.36,2.36,0,0,1-.19,1,0,0,0,0,1-.06,0l0,0a2.84,2.84,0,0,1-.47-.89,4.17,4.17,0,0,1-.11-.94c-.08-.63-.17-1.26-.3-1.89,0,0,0,0,0,0A0,0,0,0,1,87.18,40.65Z"/><path class="cls-39" d="M89,40.66a16.37,16.37,0,0,1,.89,3.74"/><path class="cls-19" d="M89.05,40.65a9.62,9.62,0,0,1,.81,1.79,3.16,3.16,0,0,1,.27.94,2.22,2.22,0,0,1-.19,1,0,0,0,0,1-.06,0l0,0a2.84,2.84,0,0,1-.47-.89,4.17,4.17,0,0,1-.11-.94c-.08-.63-.17-1.26-.3-1.89,0,0,0,0,0,0S89,40.63,89.05,40.65Z"/><path class="cls-39" d="M90.77,40.66a16.37,16.37,0,0,1,.89,3.74"/><path class="cls-19" d="M90.81,40.65a9.62,9.62,0,0,1,.81,1.79,3.16,3.16,0,0,1,.27.94,2.24,2.24,0,0,1-.2,1,0,0,0,0,1,0,0l0,0a2.65,2.65,0,0,1-.47-.89,4.84,4.84,0,0,1-.12-.94c-.07-.63-.17-1.26-.29-1.89a0,0,0,0,1,0,0A0,0,0,0,1,90.81,40.65Z"/><path class="cls-39" d="M92.6,40.66a16.37,16.37,0,0,1,.89,3.74"/><path class="cls-19" d="M92.64,40.65a9.62,9.62,0,0,1,.81,1.79,3.16,3.16,0,0,1,.27.94,2.36,2.36,0,0,1-.19,1,0,0,0,0,1-.06,0l0,0a2.84,2.84,0,0,1-.47-.89,4.17,4.17,0,0,1-.11-.94c-.08-.63-.17-1.26-.3-1.89a0,0,0,0,1,0,0A0,0,0,0,1,92.64,40.65Z"/><path class="cls-39" d="M94.37,40.66a16.05,16.05,0,0,1,.88,3.74"/><path class="cls-19" d="M94.4,40.65a9.62,9.62,0,0,1,.81,1.79,2.66,2.66,0,0,1,.27.94,2.1,2.1,0,0,1-.19,1,0,0,0,0,1-.06,0s0,0,0,0a2.88,2.88,0,0,1-.48-.89,4.17,4.17,0,0,1-.11-.94c-.08-.63-.17-1.26-.3-1.89,0,0,0,0,0,0S94.39,40.63,94.4,40.65Z"/><path class="cls-39" d="M96.25,40.66a16.37,16.37,0,0,1,.89,3.74"/><path class="cls-19" d="M96.29,40.65a9.62,9.62,0,0,1,.81,1.79,3.16,3.16,0,0,1,.27.94,2.24,2.24,0,0,1-.2,1,0,0,0,0,1,0,0l0,0a2.65,2.65,0,0,1-.47-.89,4.84,4.84,0,0,1-.12-.94c-.07-.63-.17-1.26-.29-1.89a0,0,0,0,1,0,0A0,0,0,0,1,96.29,40.65Z"/><path class="cls-39" d="M98.12,40.66A16.37,16.37,0,0,1,99,44.4"/><path class="cls-19" d="M98.16,40.65A9.62,9.62,0,0,1,99,42.44a3.16,3.16,0,0,1,.27.94,2.24,2.24,0,0,1-.2,1,0,0,0,0,1-.05,0l0,0a2.65,2.65,0,0,1-.47-.89,4.84,4.84,0,0,1-.12-.94c-.07-.63-.17-1.26-.29-1.89a0,0,0,0,1,0,0A0,0,0,0,1,98.16,40.65Z"/><path class="cls-39" d="M99.88,40.66a16.37,16.37,0,0,1,.89,3.74"/><path class="cls-19" d="M99.92,40.65a9.62,9.62,0,0,1,.81,1.79,3.16,3.16,0,0,1,.27.94,2.24,2.24,0,0,1-.2,1,0,0,0,0,1-.06,0s0,0,0,0a2.65,2.65,0,0,1-.47-.89,3.67,3.67,0,0,1-.12-.94c-.07-.63-.17-1.26-.29-1.89,0,0,0,0,0,0S99.91,40.63,99.92,40.65Z"/><path class="cls-39" d="M101.71,40.66a16.37,16.37,0,0,1,.89,3.74"/><path class="cls-19" d="M101.75,40.65a9.62,9.62,0,0,1,.81,1.79,3.16,3.16,0,0,1,.27.94,2.24,2.24,0,0,1-.2,1,0,0,0,0,1,0,0l0,0a2.65,2.65,0,0,1-.47-.89,4.84,4.84,0,0,1-.12-.94c-.07-.63-.17-1.26-.29-1.89a0,0,0,0,1,0,0A0,0,0,0,1,101.75,40.65Z"/><path class="cls-39" d="M103.48,40.66a16.67,16.67,0,0,1,.88,3.74"/><path class="cls-19" d="M103.51,40.65a9.62,9.62,0,0,1,.81,1.79,2.89,2.89,0,0,1,.27.94,2.1,2.1,0,0,1-.19,1,0,0,0,0,1-.06,0l0,0a2.84,2.84,0,0,1-.47-.89,4.17,4.17,0,0,1-.11-.94c-.08-.63-.17-1.26-.3-1.89,0,0,0,0,0,0S103.5,40.63,103.51,40.65Z"/><path class="cls-39" d="M105.55,40.66a16.37,16.37,0,0,1,.89,3.74"/><path class="cls-19" d="M105.59,40.65a9.62,9.62,0,0,1,.81,1.79,3.16,3.16,0,0,1,.27.94,2.24,2.24,0,0,1-.2,1,0,0,0,0,1-.06,0s0,0,0,0a2.65,2.65,0,0,1-.47-.89,4.17,4.17,0,0,1-.12-.94c-.07-.63-.17-1.26-.29-1.89a0,0,0,0,1,0,0A0,0,0,0,1,105.59,40.65Z"/><path class="cls-39" d="M107.42,40.66a16.37,16.37,0,0,1,.89,3.74"/><path class="cls-19" d="M107.46,40.65a9.62,9.62,0,0,1,.81,1.79,3.16,3.16,0,0,1,.27.94,2.24,2.24,0,0,1-.2,1,0,0,0,0,1-.06,0s0,0,0,0a2.65,2.65,0,0,1-.47-.89,4.84,4.84,0,0,1-.12-.94c-.07-.63-.17-1.26-.29-1.89a0,0,0,0,1,0,0A0,0,0,0,1,107.46,40.65Z"/><path class="cls-39" d="M109.18,40.66a16.05,16.05,0,0,1,.88,3.74"/><path class="cls-19" d="M109.21,40.65a9.66,9.66,0,0,1,.82,1.79,2.87,2.87,0,0,1,.26.94,2.1,2.1,0,0,1-.19,1,0,0,0,0,1-.06,0s0,0,0,0a2.65,2.65,0,0,1-.47-.89,3.67,3.67,0,0,1-.12-.94c-.08-.63-.17-1.26-.3-1.89,0,0,0,0,0,0S109.21,40.63,109.21,40.65Z"/><path class="cls-39" d="M111,40.66a16.37,16.37,0,0,1,.89,3.74"/><path class="cls-19" d="M111.05,40.65a9.62,9.62,0,0,1,.81,1.79,3.16,3.16,0,0,1,.27.94,2.24,2.24,0,0,1-.2,1,0,0,0,0,1-.06,0s0,0,0,0a2.65,2.65,0,0,1-.47-.89,4.17,4.17,0,0,1-.12-.94c-.07-.63-.17-1.26-.29-1.89,0,0,0,0,0,0A0,0,0,0,1,111.05,40.65Z"/><path class="cls-39" d="M112.77,40.66a16.37,16.37,0,0,1,.89,3.74"/><path class="cls-19" d="M112.81,40.65a9.62,9.62,0,0,1,.81,1.79,3.16,3.16,0,0,1,.27.94,2.22,2.22,0,0,1-.19,1,0,0,0,0,1-.06,0l0,0a2.84,2.84,0,0,1-.47-.89,4.17,4.17,0,0,1-.11-.94c-.08-.63-.17-1.26-.3-1.89,0,0,0,0,0,0S112.8,40.63,112.81,40.65Z"/><path class="cls-39" d="M114.34,40.66a16.37,16.37,0,0,1,.89,3.74"/><path class="cls-19" d="M114.38,40.65a9.62,9.62,0,0,1,.81,1.79,3.16,3.16,0,0,1,.27.94,2.36,2.36,0,0,1-.19,1,0,0,0,0,1-.06,0l0,0a2.84,2.84,0,0,1-.47-.89,4.17,4.17,0,0,1-.11-.94c-.08-.63-.17-1.26-.3-1.89,0,0,0,0,0,0A0,0,0,0,1,114.38,40.65Z"/><path class="cls-39" d="M116.21,40.66a16.37,16.37,0,0,1,.89,3.74"/><path class="cls-19" d="M116.25,40.65a9.62,9.62,0,0,1,.81,1.79,3.16,3.16,0,0,1,.27.94,2.22,2.22,0,0,1-.19,1,0,0,0,0,1-.06,0l0,0a2.84,2.84,0,0,1-.47-.89,4.17,4.17,0,0,1-.11-.94c-.08-.63-.17-1.26-.3-1.89,0,0,0,0,0,0S116.24,40.63,116.25,40.65Z"/><path class="cls-39" d="M118,40.66a16.37,16.37,0,0,1,.89,3.74"/><path class="cls-19" d="M118,40.65a9.62,9.62,0,0,1,.81,1.79,3.16,3.16,0,0,1,.27.94,2.24,2.24,0,0,1-.2,1,0,0,0,0,1,0,0l0,0a2.65,2.65,0,0,1-.47-.89,4.84,4.84,0,0,1-.12-.94c-.07-.63-.17-1.26-.29-1.89a0,0,0,0,1,0,0A0,0,0,0,1,118,40.65Z"/><path class="cls-39" d="M119.8,40.66a16.37,16.37,0,0,1,.89,3.74"/><path class="cls-19" d="M119.84,40.65a9.62,9.62,0,0,1,.81,1.79,3.16,3.16,0,0,1,.27.94,2.36,2.36,0,0,1-.19,1,0,0,0,0,1-.06,0l0,0a2.84,2.84,0,0,1-.47-.89,4.17,4.17,0,0,1-.11-.94c-.08-.63-.17-1.26-.3-1.89a0,0,0,0,1,0,0A0,0,0,0,1,119.84,40.65Z"/><path class="cls-39" d="M121.57,40.66a16.05,16.05,0,0,1,.88,3.74"/><path class="cls-19" d="M121.6,40.65a9.62,9.62,0,0,1,.81,1.79,2.66,2.66,0,0,1,.27.94,2.1,2.1,0,0,1-.19,1,0,0,0,0,1-.06,0s0,0,0,0a2.88,2.88,0,0,1-.48-.89,4.17,4.17,0,0,1-.11-.94c-.08-.63-.17-1.26-.3-1.89,0,0,0,0,0,0S121.59,40.63,121.6,40.65Z"/><path class="cls-39" d="M123.64,40.66a16.37,16.37,0,0,1,.89,3.74"/><path class="cls-19" d="M123.68,40.65a9.62,9.62,0,0,1,.81,1.79,3.16,3.16,0,0,1,.27.94,2.24,2.24,0,0,1-.2,1,0,0,0,0,1,0,0l0,0a2.65,2.65,0,0,1-.47-.89,4.84,4.84,0,0,1-.12-.94c-.07-.63-.17-1.26-.29-1.89a0,0,0,0,1,0,0A0,0,0,0,1,123.68,40.65Z"/><path class="cls-39" d="M125.51,40.66a16.37,16.37,0,0,1,.89,3.74"/><path class="cls-19" d="M125.55,40.65a9.62,9.62,0,0,1,.81,1.79,3.16,3.16,0,0,1,.27.94,2.36,2.36,0,0,1-.19,1s0,0-.06,0l0,0a2.84,2.84,0,0,1-.47-.89,4.17,4.17,0,0,1-.11-.94c-.08-.63-.17-1.26-.3-1.89a0,0,0,0,1,0,0A0,0,0,0,1,125.55,40.65Z"/><path class="cls-39" d="M127.27,40.66a16.37,16.37,0,0,1,.89,3.74"/><path class="cls-19" d="M127.31,40.65a9.62,9.62,0,0,1,.81,1.79,3.16,3.16,0,0,1,.27.94,2.24,2.24,0,0,1-.2,1,0,0,0,0,1-.06,0s0,0,0,0a2.65,2.65,0,0,1-.47-.89,4.17,4.17,0,0,1-.12-.94c-.07-.63-.17-1.26-.29-1.89,0,0,0,0,0,0A0,0,0,0,1,127.31,40.65Z"/><path class="cls-39" d="M129.1,40.66A16.37,16.37,0,0,1,130,44.4"/><path class="cls-19" d="M129.14,40.65a9.62,9.62,0,0,1,.81,1.79,3.16,3.16,0,0,1,.27.94,2.24,2.24,0,0,1-.2,1,0,0,0,0,1-.05,0l0,0a2.65,2.65,0,0,1-.47-.89,4.84,4.84,0,0,1-.12-.94c-.07-.63-.17-1.26-.29-1.89a0,0,0,0,1,0,0A0,0,0,0,1,129.14,40.65Z"/><path class="cls-39" d="M130.87,40.66a16.67,16.67,0,0,1,.88,3.74"/><path class="cls-19" d="M130.9,40.65a9.62,9.62,0,0,1,.81,1.79,2.89,2.89,0,0,1,.27.94,2.1,2.1,0,0,1-.19,1,0,0,0,0,1-.06,0l0,0a3.07,3.07,0,0,1-.47-.89,4.17,4.17,0,0,1-.11-.94c-.08-.63-.17-1.26-.3-1.89,0,0,0,0,0,0S130.89,40.63,130.9,40.65Z"/><path class="cls-19" d="M75.88,80c.84-.12,1.68-.22,2.52-.29a5.35,5.35,0,0,1,1.26-.09,3.62,3.62,0,0,1,1.27.38,0,0,0,0,1,0,.06,0,0,0,0,1,0,0,3.62,3.62,0,0,1-1.27.38,5.35,5.35,0,0,1-1.26-.09c-.84-.07-1.68-.17-2.52-.29a0,0,0,0,1,0,0A0,0,0,0,1,75.88,80Z"/><path class="cls-19" d="M75.88,82.21c.84-.12,1.68-.22,2.52-.29a5.34,5.34,0,0,1,1.26-.08,3.4,3.4,0,0,1,1.27.37,0,0,0,0,1,0,.07s0,0,0,0a3.4,3.4,0,0,1-1.27.37,5.93,5.93,0,0,1-1.26-.08c-.84-.08-1.68-.17-2.52-.29,0,0,0,0,0,0S75.86,82.22,75.88,82.21Z"/><path class="cls-19" d="M75.88,84.37c.84-.12,1.68-.22,2.52-.29A4.86,4.86,0,0,1,79.66,84a3.4,3.4,0,0,1,1.27.37,0,0,0,0,1,0,.07h0a3.62,3.62,0,0,1-1.27.38,5.93,5.93,0,0,1-1.26-.08q-1.26-.12-2.52-.3s0,0,0,0S75.86,84.37,75.88,84.37Z"/><path class="cls-19" d="M75.88,86.6c.84-.13,1.68-.22,2.52-.3a5.93,5.93,0,0,1,1.26-.08,3.62,3.62,0,0,1,1.27.38,0,0,0,0,1,0,.06s0,0,0,0a3.4,3.4,0,0,1-1.27.37A4.86,4.86,0,0,1,78.4,87c-.84-.07-1.68-.17-2.52-.29a0,0,0,0,1,0-.05A0,0,0,0,1,75.88,86.6Z"/><path class="cls-19" d="M75.88,89c.84-.12,1.68-.22,2.52-.29a5.35,5.35,0,0,1,1.26-.09,3.62,3.62,0,0,1,1.27.38,0,0,0,0,1,0,.06v0a3.62,3.62,0,0,1-1.27.38,5.93,5.93,0,0,1-1.26-.08q-1.26-.12-2.52-.3s0,0,0,0S75.86,89,75.88,89Z"/><path class="cls-19" d="M75.88,91.25c.84-.12,1.68-.21,2.52-.29a5.93,5.93,0,0,1,1.26-.08,3.4,3.4,0,0,1,1.27.37,0,0,0,0,1,0,.07s0,0,0,0a3.4,3.4,0,0,1-1.27.37,5.34,5.34,0,0,1-1.26-.08c-.84-.07-1.68-.17-2.52-.29,0,0,0,0,0,0S75.86,91.26,75.88,91.25Z"/><path class="cls-19" d="M75.88,93.41c.84-.12,1.68-.22,2.52-.29A5.34,5.34,0,0,1,79.66,93a3.4,3.4,0,0,1,1.27.37,0,0,0,0,1,0,.07s0,0,0,0a3.4,3.4,0,0,1-1.27.37,5.93,5.93,0,0,1-1.26-.08c-.84-.08-1.68-.17-2.52-.29,0,0,0,0,0,0S75.86,93.41,75.88,93.41Z"/><path class="cls-19" d="M75.88,95.64q1.26-.18,2.52-.3a5.93,5.93,0,0,1,1.26-.08,3.62,3.62,0,0,1,1.27.38,0,0,0,0,1,0,.06v0a3.62,3.62,0,0,1-1.27.38A5.35,5.35,0,0,1,78.4,96c-.84-.07-1.68-.17-2.52-.29a0,0,0,0,1,0,0A0,0,0,0,1,75.88,95.64Z"/><path class="cls-40" d="M30.78,102.52s-.53-.25-.46,3.27a5.8,5.8,0,0,0,.28,2.13C31.25,109,31.28,102.75,30.78,102.52Z"/><path class="cls-21" d="M72.23,111.73s-.82-.24-.72,3.27c0,.26,0,1.64.43,2.13C73,118.23,73,112,72.23,111.73Z"/><circle class="cls-41" cx="57.2" cy="23.35" r="0.18"/><circle class="cls-41" cx="57.2" cy="25.69" r="0.18"/><circle class="cls-41" cx="57.2" cy="28.03" r="0.18"/><circle class="cls-41" cx="57.2" cy="30.17" r="0.18"/><circle class="cls-41" cx="57.2" cy="32.45" r="0.18"/><circle class="cls-41" cx="57.2" cy="34.79" r="0.18"/><circle class="cls-41" cx="57.2" cy="37.13" r="0.18"/><circle class="cls-41" cx="57.2" cy="39.27" r="0.18"/><circle class="cls-41" cx="57.2" cy="41.6" r="0.18"/><circle class="cls-41" cx="57.2" cy="43.94" r="0.18"/><circle class="cls-41" cx="57.2" cy="46.28" r="0.18"/><circle class="cls-41" cx="57.2" cy="48.42" r="0.18"/><circle class="cls-41" cx="57.2" cy="50.7" r="0.18"/><circle class="cls-41" cx="57.2" cy="53.04" r="0.18"/><circle class="cls-41" cx="57.2" cy="55.38" r="0.18"/><circle class="cls-41" cx="57.2" cy="57.52" r="0.18"/><circle class="cls-41" cx="57.2" cy="57.52" r="0.18"/><circle class="cls-41" cx="57.2" cy="59.86" r="0.18"/><circle class="cls-41" cx="57.2" cy="62.2" r="0.18"/><circle class="cls-41" cx="57.2" cy="64.34" r="0.18"/><circle class="cls-41" cx="57.2" cy="66.62" r="0.18"/><circle class="cls-41" cx="57.2" cy="68.96" r="0.18"/><circle class="cls-41" cx="57.2" cy="71.3" r="0.18"/><circle class="cls-41" cx="57.2" cy="73.44" r="0.18"/><circle class="cls-41" cx="57.2" cy="75.77" r="0.18"/><circle class="cls-41" cx="57.2" cy="78.11" r="0.18"/><circle class="cls-41" cx="57.2" cy="80.45" r="0.18"/><circle class="cls-41" cx="57.2" cy="82.6" r="0.18"/><circle class="cls-41" cx="57.2" cy="84.87" r="0.18"/><circle class="cls-41" cx="57.2" cy="87.21" r="0.18"/><circle class="cls-41" cx="57.2" cy="89.55" r="0.18"/><circle class="cls-41" cx="57.2" cy="91.7" r="0.18"/><circle class="cls-39" cx="29.59" cy="43.31" r="23.12"/><circle class="cls-42" cx="29.59" cy="43.31" r="21.78"/><polygon class="cls-43" points="27.23 49.32 33.12 60.16 35.97 55.81 40.78 56.17 33.63 41.88 27.23 49.32"/><polygon class="cls-43" points="23.59 45.21 18.4 56.41 23.59 56.09 26.18 60.16 33.38 45.91 23.59 45.21"/><circle class="cls-43" cx="29.56" cy="37.62" r="11.16"/><polyline class="cls-44" points="23.54 37.61 28.68 42.98 34.99 33.26"/><g class="cls-45"><g class="cls-46"><line class="cls-3" x1="126.59" y1="53.78" x2="126.59" y2="70.85"/><line class="cls-3" x1="125.49" y1="53.78" x2="125.49" y2="70.85"/><line class="cls-3" x1="124.55" y1="53.78" x2="124.55" y2="70.85"/><line class="cls-3" x1="123.4" y1="53.64" x2="123.4" y2="70.71"/><line class="cls-3" x1="122.35" y1="53.64" x2="122.35" y2="70.71"/><line class="cls-3" x1="121.25" y1="53.64" x2="121.25" y2="70.71"/><line class="cls-3" x1="120.31" y1="53.64" x2="120.31" y2="70.71"/><line class="cls-3" x1="119.16" y1="53.51" x2="119.16" y2="70.58"/><line class="cls-3" x1="118.18" y1="53.24" x2="118.18" y2="70.31"/><line class="cls-3" x1="117.08" y1="53.24" x2="117.08" y2="70.31"/><line class="cls-3" x1="116.14" y1="53.24" x2="116.14" y2="70.31"/><line class="cls-3" x1="114.99" y1="53.1" x2="114.99" y2="70.17"/><line class="cls-3" x1="113.94" y1="53.1" x2="113.94" y2="70.17"/><line class="cls-3" x1="112.83" y1="53.1" x2="112.83" y2="70.17"/><line class="cls-3" x1="111.89" y1="53.1" x2="111.89" y2="70.17"/><line class="cls-3" x1="110.75" y1="52.97" x2="110.75" y2="70.04"/><line class="cls-3" x1="109.67" y1="53.37" x2="109.67" y2="70.44"/><line class="cls-3" x1="108.57" y1="53.37" x2="108.57" y2="70.44"/><line class="cls-3" x1="107.63" y1="53.37" x2="107.63" y2="70.44"/><line class="cls-3" x1="106.48" y1="53.24" x2="106.48" y2="70.31"/><line class="cls-3" x1="105.43" y1="53.24" x2="105.43" y2="70.31"/><line class="cls-3" x1="104.33" y1="53.24" x2="104.33" y2="70.31"/><line class="cls-3" x1="103.39" y1="53.24" x2="103.39" y2="70.31"/><line class="cls-3" x1="102.24" y1="53.1" x2="102.24" y2="70.17"/><line class="cls-3" x1="101.26" y1="52.83" x2="101.26" y2="69.9"/><line class="cls-3" x1="100.16" y1="52.83" x2="100.16" y2="69.9"/><line class="cls-3" x1="99.22" y1="52.83" x2="99.22" y2="69.9"/><line class="cls-3" x1="98.07" y1="52.69" x2="98.07" y2="69.77"/><line class="cls-3" x1="97.02" y1="52.69" x2="97.02" y2="69.77"/><line class="cls-3" x1="95.92" y1="52.69" x2="95.92" y2="69.77"/><line class="cls-3" x1="94.98" y1="52.69" x2="94.98" y2="69.77"/><line class="cls-3" x1="93.83" y1="52.56" x2="93.83" y2="69.63"/><line class="cls-3" x1="92.91" y1="52.74" x2="92.91" y2="69.81"/><line class="cls-3" x1="91.81" y1="52.74" x2="91.81" y2="69.81"/><line class="cls-3" x1="90.87" y1="52.74" x2="90.87" y2="69.81"/><line class="cls-3" x1="89.72" y1="52.6" x2="89.72" y2="69.67"/><line class="cls-3" x1="88.67" y1="52.6" x2="88.67" y2="69.67"/><line class="cls-3" x1="87.56" y1="52.6" x2="87.56" y2="69.67"/><line class="cls-3" x1="86.62" y1="52.6" x2="86.62" y2="69.67"/><line class="cls-3" x1="85.48" y1="52.46" x2="85.48" y2="69.54"/><line class="cls-3" x1="83.39" y1="52.19" x2="83.39" y2="69.26"/><line class="cls-3" x1="82.45" y1="52.19" x2="82.45" y2="69.26"/><line class="cls-3" x1="81.31" y1="52.06" x2="81.31" y2="69.13"/><line class="cls-3" x1="80.25" y1="52.06" x2="80.25" y2="69.13"/><line class="cls-3" x1="79.15" y1="52.06" x2="79.15" y2="69.13"/><line class="cls-3" x1="78.21" y1="52.06" x2="78.21" y2="69.13"/><line class="cls-3" x1="77.06" y1="51.92" x2="77.06" y2="68.99"/></g><polygon class="cls-3" points="128.12 52.13 128.12 72.85 74.48 72.85 74.48 51.02 128.12 51.02 128.12 52.13"/></g><path class="cls-3" d="M78.11,51.81c.25-.11,6.12-.84,6.32,2s0,15.36,0,15.36-5.88-1.27-6.57-6.76S76.52,52.56,78.11,51.81Z"/></svg>