<svg id="Layer_1" data-name="Layer 1" xmlns="http://www.w3.org/2000/svg" xmlns:xlink="http://www.w3.org/1999/xlink" viewBox="0 0 150 150"><defs><style>.cls-1,.cls-11,.cls-13,.cls-14,.cls-18,.cls-2,.cls-3,.cls-33,.cls-45,.cls-6,.cls-7{fill:none;}.cls-13,.cls-15,.cls-16,.cls-17,.cls-2,.cls-20,.cls-21,.cls-22,.cls-23,.cls-24,.cls-27,.cls-3,.cls-33,.cls-34,.cls-35,.cls-36,.cls-37,.cls-38,.cls-40,.cls-41,.cls-44{stroke:#ad1719;}.cls-10,.cls-11,.cls-13,.cls-14,.cls-16,.cls-18,.cls-2,.cls-20,.cls-21,.cls-22,.cls-23,.cls-24,.cls-25,.cls-26,.cls-27,.cls-28,.cls-29,.cls-3,.cls-30,.cls-33,.cls-34,.cls-35,.cls-36,.cls-37,.cls-38,.cls-40,.cls-41,.cls-44,.cls-5,.cls-6,.cls-7,.cls-8,.cls-9{stroke-miterlimit:10;}.cls-11,.cls-2,.cls-3,.cls-41{stroke-width:0.25px;}.cls-10,.cls-11,.cls-12,.cls-13,.cls-14,.cls-15,.cls-16,.cls-17,.cls-18,.cls-20,.cls-21,.cls-22,.cls-23,.cls-24,.cls-25,.cls-26,.cls-27,.cls-28,.cls-29,.cls-3,.cls-30,.cls-33,.cls-34,.cls-35,.cls-36,.cls-37,.cls-38,.cls-4,.cls-40,.cls-41,.cls-44,.cls-45,.cls-5,.cls-6,.cls-7,.cls-8,.cls-9{stroke-linecap:round;}.cls-10,.cls-12,.cls-15,.cls-16,.cls-17,.cls-20,.cls-21,.cls-22,.cls-23,.cls-24,.cls-28,.cls-34,.cls-35,.cls-36,.cls-37,.cls-38,.cls-39,.cls-4,.cls-40,.cls-41,.cls-44,.cls-5,.cls-8,.cls-9{fill:#fff;}.cls-10,.cls-11,.cls-14,.cls-18,.cls-4,.cls-5,.cls-6,.cls-7,.cls-8,.cls-9{stroke:#1d1d1b;}.cls-12,.cls-15,.cls-17,.cls-4,.cls-45{stroke-linejoin:round;}.cls-4{stroke-width:3.07px;}.cls-6{stroke-width:0.79px;}.cls-7{stroke-width:0.76px;}.cls-8{stroke-width:0.15px;}.cls-14,.cls-9{stroke-width:0.28px;}.cls-10{stroke-width:0.93px;}.cls-12,.cls-28,.cls-45{stroke:#000;}.cls-13{stroke-width:0.29px;}.cls-17,.cls-20{stroke-width:0.5px;}.cls-18{stroke-width:1.04px;}.cls-19,.cls-25,.cls-26,.cls-27,.cls-29,.cls-30{fill:#ad1719;}.cls-21{stroke-width:0.75px;}.cls-22{stroke-width:0.14px;}.cls-23{stroke-width:0.57px;}.cls-24{stroke-width:0.63px;}.cls-25,.cls-26,.cls-29,.cls-30{stroke:#fff;}.cls-25{stroke-width:0.71px;}.cls-26{stroke-width:0.8px;}.cls-29{stroke-width:0.4px;}.cls-30{stroke-width:0.39px;}.cls-31{clip-path:url(#clip-path);}.cls-32{clip-path:url(#clip-path-2);}.cls-34{stroke-width:1.03px;}.cls-35{stroke-width:1.29px;}.cls-36{stroke-width:1.23px;}.cls-37{stroke-width:0.96px;}.cls-38{stroke-width:1.09px;}.cls-40{stroke-width:0.7px;}.cls-42{clip-path:url(#clip-path-3);}.cls-43{clip-path:url(#clip-path-4);}.cls-44{stroke-width:1.24px;}.cls-45{stroke-width:2px;}</style><clipPath id="clip-path"><path class="cls-1" d="M92.74,51h36.17a5.23,5.23,0,0,1,3.18,1c1.23.93,2.49,2.72,2.57,6.18.16,6.92,1.78,10-1.73,10.49s-43.16.28-43.16.28-2.51.76-2.41-4.21c0-2.25,0-5.3-.15-8A5.53,5.53,0,0,1,92.74,51Z"/></clipPath><clipPath id="clip-path-2"><polygon class="cls-2" points="125 49.51 125 71.54 72.56 71.54 72.56 48.33 125 48.33 125 49.51"/></clipPath><clipPath id="clip-path-3"><path class="cls-3" d="M77.88,50.91c.25-.11,6.12-.84,6.32,2s0,15.36,0,15.36S78.32,67,77.63,61.55,76.3,51.67,77.88,50.91Z"/></clipPath><clipPath id="clip-path-4"><polygon class="cls-3" points="127.89 51.23 127.89 71.95 74.25 71.95 74.25 50.12 127.89 50.12 127.89 51.23"/></clipPath></defs><path class="cls-4" d="M148.33,67.33c0-2.13-.78-2.87-1.73-3.11l0-1.65c1.07,0,1.59,0,1.68-1.46.11-1.75.24-5.23-1-5.23h-.71v-.19a.47.47,0,0,0,0-.16c-.09-.38.76-4.74-8-4.05a7.87,7.87,0,0,0-2.79-4.13c0-.58-.06-1.61-.13-3.42A8.28,8.28,0,0,0,132,37c-1.25-.93-5.2-1.64-6.94-2-.4-.09-2.45-.16-5.42-.22a6.79,6.79,0,0,0,.88-4.6c-.4-3.23-3.86-4.11-5.42-4.34V22.9L58.45,19.29,2.2,47.15,2.72,91.1v9.1H6.78l-.3,4.12,4.62.31c0,.11,0,.21,0,.32,0,.62-.14,3.93,1.87,5.11a1.88,1.88,0,0,0,.83.29H19a4.29,4.29,0,0,0,1.8,2.46,2.6,2.6,0,0,0,1.06.37H22a1.08,1.08,0,0,0,.18,0h4.68a3.67,3.67,0,0,0,1,.85,3.19,3.19,0,0,0,.72.32v.06h.22a1.93,1.93,0,0,0,.83,0l4.92-.1s2.92-2.06,3-8.56l2,.43V107l7.52,2.38a38.77,38.77,0,0,0,0,4.16c.06,1-.23,6.63,3.16,8.64a3.18,3.18,0,0,0,1.83.5v0l6.36-.15s1.59-1.3,2.54-5c2.09.48,4.56,1,5.86,1.24-.13,2.75-.23,4.9-.23,4.9h3.49a7.92,7.92,0,0,0,3.35,4.88,4,4,0,0,0,2.33.64v0l9.37-.19s3-2.09,4.2-8.21c7.32.06,20.48,0,31.93,0,.38,2.54,1.32,5.44,3.67,6.9a3.77,3.77,0,0,0,2.29.66v0l7.95-.19s2.26-1.94,3.4-7.51l4.36,0s1.5-.33,1.56-2.57c0-1.48-.1-3.33-.19-4.42l0-.06c.83-1.23,0-13.33,0-13.33a3.15,3.15,0,0,0-2.67-3.43V94.34a3.09,3.09,0,0,0,1.12-.16,1.54,1.54,0,0,0,.64-1.29c0-.54,0-8.26,0-8.26L141.57,78V74l-.07-.5c.47,0,1-.08,1.61-.15a3.53,3.53,0,0,0,3.54-3.59A2.26,2.26,0,0,0,148.33,67.33Zm-7,5.22-2.76-20c7.42-.1,6.6,2.92,6.6,3.41a1.08,1.08,0,0,0-1,.89c-.17,1.12,0,5.3,0,5.3s0,.42,1,.49v1.79a2.55,2.55,0,0,0-1.07,2.38,4.42,4.42,0,0,0,1.56,3.15C145.4,71.87,143.14,72.59,141.37,72.55Z"/><polygon class="cls-5" points="15.14 90.78 11.72 94.85 14.02 98.4 37.58 98.61 37.07 90.78 15.14 90.78"/><path class="cls-5" d="M28.93,113.26l5.86-.12s3.64-2.51,2.88-10.9-8.55-6.57-8.55-6.57"/><polyline class="cls-5" points="14.41 109.31 21.26 109.31 21.26 96.41 14.83 96.41"/><path class="cls-5" d="M66,92.58S61,94.94,59,96.29a5.51,5.51,0,0,0-2.44,3.23l.18,5.72,14.77,1.18S78.67,95,78.55,94.7,66,92.58,66,92.58Z"/><path class="cls-5" d="M126.18,98.22s-7.46-1.27-6.51,17c.07,1.34-.28,8.51,3.89,11.07C132.8,131.92,133.13,99.43,126.18,98.22Z"/><line class="cls-6" x1="128.09" y1="125.98" x2="135.65" y2="125.98"/><line class="cls-7" x1="129" y1="124.58" x2="135.99" y2="124.58"/><line class="cls-7" x1="129.5" y1="123" x2="136.5" y2="123"/><line class="cls-7" x1="130.04" y1="121.39" x2="137.03" y2="121.39"/><line class="cls-7" x1="130.43" y1="119.85" x2="137.43" y2="119.85"/><line class="cls-7" x1="130.68" y1="118.21" x2="137.67" y2="118.21"/><line class="cls-7" x1="130.88" y1="116.54" x2="137.88" y2="116.54"/><line class="cls-7" x1="131.07" y1="115.24" x2="138.07" y2="115.24"/><line class="cls-8" x1="108.69" y1="88.79" x2="108.69" y2="91.36"/><line class="cls-8" x1="109.26" y1="88.79" x2="109.26" y2="91.36"/><line class="cls-8" x1="109.8" y1="88.79" x2="109.8" y2="91.36"/><line class="cls-8" x1="110.29" y1="88.79" x2="110.29" y2="91.36"/><line class="cls-8" x1="110.77" y1="88.79" x2="110.77" y2="91.36"/><polygon class="cls-8" points="111.4 88.79 111.4 91.36 59.23 91.44 59.23 29.19 111.74 30.07 111.19 41.76 111.4 88.79"/><line class="cls-8" x1="112.09" y1="88.79" x2="112.09" y2="91.36"/><line class="cls-8" x1="112.7" y1="88.79" x2="112.7" y2="91.36"/><line class="cls-8" x1="113.27" y1="88.79" x2="113.27" y2="91.36"/><line class="cls-8" x1="113.79" y1="88.79" x2="113.79" y2="91.36"/><line class="cls-8" x1="114.48" y1="88.87" x2="114.48" y2="91.44"/><line class="cls-8" x1="115.05" y1="88.87" x2="115.05" y2="91.44"/><line class="cls-8" x1="115.59" y1="88.87" x2="115.59" y2="91.44"/><line class="cls-8" x1="116.08" y1="88.87" x2="116.08" y2="91.44"/><line class="cls-8" x1="116.56" y1="88.87" x2="116.56" y2="91.44"/><line class="cls-8" x1="117.19" y1="88.87" x2="117.19" y2="91.44"/><line class="cls-8" x1="117.88" y1="88.87" x2="117.88" y2="91.44"/><line class="cls-8" x1="118.48" y1="88.87" x2="118.48" y2="91.44"/><line class="cls-8" x1="119.06" y1="88.87" x2="119.06" y2="91.44"/><line class="cls-8" x1="119.58" y1="88.87" x2="119.58" y2="91.44"/><line class="cls-8" x1="120.21" y1="88.87" x2="120.21" y2="91.44"/><line class="cls-8" x1="120.93" y1="88.87" x2="120.93" y2="91.44"/><path class="cls-9" d="M75.26,127.76l9.2-.19s5.7-3.95,4.51-17.1-13.4-10.31-13.4-10.31"/><polygon class="cls-10" points="3.52 90.54 3.52 99.41 7.01 99.41 9.65 95.33 12.44 87.51 3.52 90.54"/><line class="cls-11" x1="16.71" y1="108.18" x2="21.21" y2="108.18"/><line class="cls-11" x1="17.02" y1="107.33" x2="21.52" y2="107.33"/><line class="cls-11" x1="17.06" y1="106.38" x2="21.56" y2="106.38"/><line class="cls-11" x1="17.26" y1="105.37" x2="21.76" y2="105.37"/><line class="cls-11" x1="17.26" y1="104.32" x2="21.76" y2="104.32"/><line class="cls-11" x1="17.26" y1="103.31" x2="21.76" y2="103.31"/><line class="cls-11" x1="17.18" y1="102.27" x2="21.68" y2="102.27"/><line class="cls-11" x1="17.2" y1="101.38" x2="21.7" y2="101.38"/><line class="cls-11" x1="17.04" y1="100.29" x2="21.54" y2="100.29"/><line class="cls-11" x1="17.02" y1="99.44" x2="21.52" y2="99.44"/><line class="cls-11" x1="16.82" y1="98.5" x2="21.32" y2="98.5"/><line class="cls-11" x1="16.82" y1="97.52" x2="21.32" y2="97.52"/><polygon class="cls-12" points="3.18 47.34 58.43 20.2 58.43 92.7 3.71 91.31 3.18 47.34"/><line class="cls-13" x1="60.85" y1="56.13" x2="75.23" y2="41.76"/><line class="cls-13" x1="60.79" y1="54.29" x2="75.16" y2="39.91"/><line class="cls-13" x1="60.28" y1="52.22" x2="74.65" y2="37.85"/><line class="cls-13" x1="60.04" y1="50.06" x2="74.41" y2="35.69"/><line class="cls-13" x1="59.68" y1="48.11" x2="74.06" y2="33.74"/><line class="cls-13" x1="59.68" y1="46.49" x2="74.06" y2="32.12"/><line class="cls-13" x1="59.23" y1="45.03" x2="73.61" y2="30.66"/><line class="cls-13" x1="58.88" y1="43.56" x2="73.25" y2="29.19"/><line class="cls-13" x1="59.52" y1="40.53" x2="73.89" y2="26.15"/><line class="cls-13" x1="61.03" y1="74.98" x2="75.4" y2="60.61"/><line class="cls-13" x1="60.96" y1="73.14" x2="75.33" y2="58.76"/><line class="cls-13" x1="60.45" y1="71.07" x2="74.82" y2="56.7"/><line class="cls-13" x1="60.21" y1="68.92" x2="74.59" y2="54.54"/><line class="cls-13" x1="59.86" y1="66.96" x2="74.23" y2="52.59"/><line class="cls-13" x1="59.86" y1="65.34" x2="74.23" y2="50.97"/><line class="cls-13" x1="59.41" y1="63.88" x2="73.78" y2="49.51"/><line class="cls-13" x1="59.05" y1="62.41" x2="73.42" y2="48.04"/><line class="cls-13" x1="59.69" y1="59.38" x2="74.06" y2="45"/><line class="cls-13" x1="62.26" y1="93.15" x2="76.63" y2="78.78"/><line class="cls-13" x1="62.19" y1="91.31" x2="76.56" y2="76.93"/><line class="cls-13" x1="61.68" y1="89.24" x2="76.05" y2="74.87"/><line class="cls-13" x1="61.44" y1="87.08" x2="75.81" y2="72.71"/><line class="cls-13" x1="61.08" y1="85.13" x2="75.46" y2="70.76"/><line class="cls-13" x1="61.08" y1="83.51" x2="75.46" y2="69.14"/><line class="cls-13" x1="60.63" y1="82.05" x2="75.01" y2="67.68"/><line class="cls-13" x1="60.28" y1="80.58" x2="74.65" y2="66.21"/><line class="cls-13" x1="60.92" y1="77.55" x2="75.29" y2="63.17"/><polygon class="cls-14" points="112.44 27.6 61.36 24.19 61.36 89.88 67.97 89.88 112.44 27.6"/><polygon class="cls-15" points="58.25 20.57 58.25 93.07 94.4 93.07 95.37 89.88 61.26 89.88 61.26 33.91 112.36 34.19 113.94 29.04 113.94 24.08 58.25 20.57"/><path class="cls-16" d="M117.26,36.9s2.51-1.68,2-5.75-6.07-4.31-6.07-4.31L60.35,23.25V35.69Z"/><path class="cls-16" d="M80.28,33.49a2.73,2.73,0,0,1,1.85-.86l33,.45s1,.26,1.14.9"/><polygon class="cls-17" points="93.97 32.03 93.91 35.95 105.73 36.14 105.79 32.21 95.37 32.05 93.97 32.03"/><line class="cls-17" x1="104.57" y1="36.12" x2="104.63" y2="32.19"/><line class="cls-17" x1="95.33" y1="35.98" x2="95.39" y2="32.05"/><line class="cls-17" x1="97.31" y1="35.9" x2="97.36" y2="32.22"/><line class="cls-17" x1="99" y1="35.93" x2="99.05" y2="32.22"/><line class="cls-17" x1="100.5" y1="36.06" x2="100.56" y2="32.13"/><line class="cls-17" x1="101.84" y1="36.08" x2="101.9" y2="32.15"/><line class="cls-17" x1="103.21" y1="36.1" x2="103.27" y2="32.17"/><polyline class="cls-5" points="22.3 112.06 30.01 112.06 30.01 96.03 22.78 96.03"/><path class="cls-5" d="M52,121.36l6.24-.15s3.87-3.09,3.06-13.4-9.09-8.08-9.09-8.08"/><polygon class="cls-5" points="14.41 96.94 7.68 96.89 7.2 103.43 14.41 103.91 14.41 96.94"/><line class="cls-18" x1="77.5" y1="126.62" x2="85.57" y2="126.62"/><line class="cls-18" x1="78" y1="125.03" x2="85.97" y2="125.03"/><line class="cls-18" x1="78.93" y1="123.26" x2="86.97" y2="123.26"/><line class="cls-18" x1="79.55" y1="121.44" x2="87.62" y2="121.44"/><line class="cls-18" x1="80.11" y1="119.7" x2="88.34" y2="119.7"/><line class="cls-18" x1="79.7" y1="117.85" x2="87.9" y2="117.85"/><line class="cls-18" x1="79.91" y1="115.96" x2="88.14" y2="115.96"/><line class="cls-18" x1="80.07" y1="114.5" x2="88.38" y2="114.5"/><line class="cls-11" x1="53.76" y1="120.43" x2="58.88" y2="120.43"/><line class="cls-11" x1="54.01" y1="119.91" x2="59.14" y2="119.91"/><line class="cls-11" x1="54.38" y1="119.32" x2="59.5" y2="119.32"/><line class="cls-11" x1="54.77" y1="118.73" x2="59.9" y2="118.73"/><line class="cls-11" x1="55.06" y1="118.16" x2="60.18" y2="118.16"/><line class="cls-11" x1="55.24" y1="117.55" x2="60.36" y2="117.55"/><line class="cls-11" x1="55.39" y1="116.93" x2="60.52" y2="116.93"/><line class="cls-11" x1="55.53" y1="116.45" x2="60.66" y2="116.45"/><line class="cls-11" x1="55.53" y1="115.73" x2="60.66" y2="115.73"/><line class="cls-11" x1="55.72" y1="115.08" x2="60.84" y2="115.08"/><line class="cls-11" x1="53.26" y1="120.87" x2="58.38" y2="120.87"/><line class="cls-11" x1="30.58" y1="113.64" x2="35.56" y2="113.64"/><line class="cls-11" x1="30.97" y1="112.97" x2="35.95" y2="112.97"/><line class="cls-11" x1="31.33" y1="112.23" x2="36.31" y2="112.23"/><line class="cls-11" x1="31.58" y1="111.46" x2="36.56" y2="111.46"/><line class="cls-11" x1="31.82" y1="110.73" x2="36.8" y2="110.73"/><line class="cls-11" x1="32.05" y1="109.95" x2="37.03" y2="109.95"/><line class="cls-11" x1="32.31" y1="109.16" x2="37.29" y2="109.16"/><line class="cls-11" x1="32.31" y1="108.4" x2="37.29" y2="108.4"/><line class="cls-11" x1="32.45" y1="107.67" x2="37.43" y2="107.67"/><line class="cls-11" x1="32.58" y1="106.81" x2="37.56" y2="106.81"/><line class="cls-11" x1="32.67" y1="105.82" x2="37.65" y2="105.82"/><line class="cls-11" x1="32.67" y1="105.06" x2="37.65" y2="105.06"/><line class="cls-11" x1="32.67" y1="104.15" x2="37.65" y2="104.15"/><line class="cls-11" x1="32.79" y1="103.22" x2="37.77" y2="103.22"/><line class="cls-11" x1="32.79" y1="102.43" x2="37.77" y2="102.43"/><line class="cls-11" x1="32.67" y1="101.45" x2="37.65" y2="101.45"/><line class="cls-11" x1="32.67" y1="100.69" x2="37.65" y2="100.69"/><line class="cls-11" x1="32.67" y1="99.84" x2="37.65" y2="99.84"/><line class="cls-11" x1="32.48" y1="98.96" x2="37.46" y2="98.96"/><line class="cls-11" x1="32.37" y1="98.12" x2="37.34" y2="98.12"/><line class="cls-11" x1="32.27" y1="97.55" x2="37.25" y2="97.55"/><line class="cls-11" x1="32.14" y1="96.81" x2="37.12" y2="96.81"/><line class="cls-11" x1="32.08" y1="96.03" x2="37.06" y2="96.03"/><line class="cls-11" x1="24.12" y1="111.04" x2="29.63" y2="110.84"/><line class="cls-11" x1="24.74" y1="109.95" x2="30.25" y2="109.75"/><line class="cls-11" x1="25.2" y1="107.92" x2="30.71" y2="107.72"/><line class="cls-11" x1="25.44" y1="106.38" x2="30.95" y2="106.18"/><line class="cls-11" x1="25.56" y1="105.66" x2="31.08" y2="105.46"/><line class="cls-11" x1="25.68" y1="104.8" x2="31.19" y2="104.6"/><line class="cls-11" x1="25.75" y1="103.83" x2="31.26" y2="103.62"/><line class="cls-11" x1="25.72" y1="103.08" x2="31.23" y2="102.88"/><line class="cls-11" x1="25.69" y1="102.19" x2="31.2" y2="101.99"/><line class="cls-11" x1="25.56" y1="101.27" x2="31.07" y2="101.07"/><line class="cls-11" x1="25.55" y1="100.49" x2="31.07" y2="100.29"/><line class="cls-11" x1="25.32" y1="98.81" x2="30.83" y2="98.61"/><line class="cls-11" x1="25.02" y1="97.75" x2="30.54" y2="97.55"/><line class="cls-11" x1="24.64" y1="96.91" x2="30.15" y2="96.71"/><line class="cls-11" x1="24.36" y1="95.5" x2="29.87" y2="95.3"/><polygon class="cls-19" points="55.72 89.54 55.72 23.85 4.62 48.61 5.41 89.54 55.72 89.54"/><path class="cls-5" d="M22.79,96s-4.34-.71-3.79,9.48c.05.74-.16,4.75,2.27,6.18C26.65,114.88,26.84,96.72,22.79,96Z"/><path class="cls-20" d="M22.46,98.32s-2.33-.5-2,6.61c0,.52-.09,3.31,1.21,4.31C24.52,111.46,24.63,98.79,22.46,98.32Z"/><path class="cls-20" d="M22.68,98.32s-2-.5-1.74,6.61c0,.52-.07,3.31,1,4.31C24.44,111.46,24.53,98.79,22.68,98.32Z"/><path class="cls-20" d="M23.46,99.56c-.27,0-1.5.21-1.32,5.21,0,.41-.06,2.61.82,3.4a.58.58,0,0,0,.5.2A19.7,19.7,0,0,0,23.46,99.56Z"/><path class="cls-5" d="M14.83,96.41s-3.53-.57-3.07,7.63c0,.6-.14,3.82,1.83,5C18,111.57,18.12,97,14.83,96.41Z"/><path class="cls-20" d="M14.63,99s-1.13-.34-1,4.45c0,.35,0,2.24.59,2.91C15.63,107.87,15.68,99.33,14.63,99Z"/><path class="cls-21" d="M14.85,100.91s-.56-.16-.49,2.21c0,.17,0,1.1.29,1.43C15.34,105.29,15.37,101.07,14.85,100.91Z"/><path class="cls-21" d="M23.47,101.69s-.66-.19-.57,2.62c0,.21,0,1.31.34,1.71C24.06,106.9,24.09,101.88,23.47,101.69Z"/><path class="cls-22" d="M30.58,102.66s-.56-.17-.49,2.2c0,.17,0,1.1.29,1.44C31.07,107,31.1,102.81,30.58,102.66Z"/><path class="cls-5" d="M29.89,95.59s-4.77-.79-4.16,10.47c.05.82-.18,5.25,2.49,6.84C34.13,116.4,34.34,96.34,29.89,95.59Z"/><path class="cls-21" d="M29.37,98.7s-2.4-.5-2.09,6.74c0,.53-.09,3.38,1.25,4.4C31.49,112.1,31.6,99.19,29.37,98.7Z"/><path class="cls-21" d="M29.59,98.7s-2.05-.5-1.79,6.74c0,.53-.08,3.38,1.07,4.4C31.41,112.1,31.5,99.19,29.59,98.7Z"/><path class="cls-21" d="M30.39,100c-.27,0-1.54.22-1.35,5.31,0,.42-.06,2.67.84,3.47a.61.61,0,0,0,.52.2A19.74,19.74,0,0,0,30.39,100Z"/><polygon class="cls-5" points="33.35 93.87 33.66 103.91 41.8 105.69 41.8 94.14 33.35 93.87"/><path class="cls-5" d="M44.58,96.52s-3.75-1.21-3.5,3.46"/><path class="cls-5" d="M47.49,96.29s-5-1-4.35,3.56"/><path class="cls-5" d="M49.75,96.14s-4.78-.85-4.27,3.91"/><path class="cls-5" d="M51.32,95.86s-4.22,0-3.8,4.6"/><polygon class="cls-5" points="48.57 99.41 39.68 99.03 39.68 106.06 48.3 108.78 48.57 99.41"/><polygon class="cls-5" points="45.48 102.12 45.48 105.37 40.95 104.41 40.95 101.48 45.48 102.12"/><path class="cls-5" d="M52.28,99.54s-6-1-5.2,12.89c.06,1-.23,6.47,3.1,8.42C57.57,125.17,57.84,100.46,52.28,99.54Z"/><path class="cls-5" d="M69.38,101.48c-.27-.26-13.26-1.06-13.26-1.06a12.11,12.11,0,0,0-1.59,8.36c.69,5.27,2,6.35,2.77,6.71s9.47,2.23,10.06,2.23,4.1-3.46,4.1-3.46Z"/><path class="cls-16" d="M51.52,103.91s-2.69-.57-2.34,7.64c0,.6-.11,3.83,1.4,5C53.9,119.09,54,104.46,51.52,103.91Z"/><path class="cls-16" d="M51.77,103.91s-2.3-.57-2,7.64c0,.6-.08,3.83,1.2,5C53.81,119.09,53.91,104.46,51.77,103.91Z"/><path class="cls-16" d="M52.67,105.35c-.31,0-1.73.25-1.52,6,0,.47-.07,3,.94,3.93a.68.68,0,0,0,.59.22A22.68,22.68,0,0,0,52.67,105.35Z"/><path class="cls-5" d="M66.25,101.18c.12,0-6.51.24-2.51,15.59"/><path class="cls-5" d="M62.45,100.87c.12,0-6.5.24-2.51,15.25"/><path class="cls-9" d="M77.92,102.31l-6.2,20H66.25s.71-14.69.74-15.92a29.87,29.87,0,0,1,.32-4.21,9.34,9.34,0,0,1,3.3-5.83,3.92,3.92,0,0,1,.55-.41C74.29,94.3,77.48,97.11,77.92,102.31Z"/><path class="cls-5" d="M75.64,99.92S68,98.69,69,116.37c.07,1.3-.29,8.25,4,10.74C82.39,132.62,82.73,101.1,75.64,99.92Z"/><path class="cls-16" d="M75,105.41s-3.34-.75-2.91,10c0,.78-.13,5,1.74,6.5C77.93,125.21,78.09,106.12,75,105.41Z"/><path class="cls-16" d="M74.22,106.84s-2.81-.62-2.45,8.37c0,.66-.11,4.19,1.46,5.46C76.71,123.47,76.83,107.44,74.22,106.84Z"/><path class="cls-16" d="M72.33,107.83s-2.59-.52-2.26,6.82c0,.54-.1,3.42,1.35,4.45C74.62,121.39,74.74,108.31,72.33,107.83Z"/><path class="cls-23" d="M86.09,101.18l-8.84-.37,1.38,17.93a.94.94,0,0,0,.93.86h8.18Z"/><path class="cls-20" d="M148.33,67.16c0-2.08-.77-2.81-1.7-3l0-1.61c1,0,1.56,0,1.65-1.42.11-1.71.24-5.1-1-5.1h-.7v-.18c0-.06,0-.11,0-.16-.1-.39.85-5-9.12-3.83h-.09c-.59.11-7,1.3.24.91,8.61-.47,7.71,2.77,7.7,3.28a1,1,0,0,0-1,.86c-.16,1.09,0,5.16,0,5.16s0,.42,1,.48v1.74a2.49,2.49,0,0,0-1.05,2.33,4.19,4.19,0,0,0,1.53,3.06c-.38,2.66-4.49,3-5.9,2.25-.28-.15-.61.2-.7.51h0a.69.69,0,0,0,.65.87,33.86,33.86,0,0,0,3.42-.24,3.46,3.46,0,0,0,3.48-3.5A2.22,2.22,0,0,0,148.33,67.16Z"/><path class="cls-16" d="M68.47,48.68A25.18,25.18,0,0,1,68,44.42a21.33,21.33,0,0,1,1.12-4.58A8.94,8.94,0,0,1,72.25,37a39.67,39.67,0,0,1,12.19-1.65c6.22.1,37.58.16,39.28.53s5.59,1.06,6.81,2A8,8,0,0,1,134,44.58l.15,4.1s-14.21-1.6-48-1.41c-1.63,0-5,.2-6.51.32s-9.5,1.79-9.94,1.91S68.47,48.68,68.47,48.68Z"/><path class="cls-16" d="M141.75,84.24l-1.84-6.45V73.91l-3-21.93s-1-4.15-5-5.06-29.1-.43-29.1-.43-29.41-.64-31.82,1a6,6,0,0,0-2.53,6c.39,3.11,1,30.58,1,30.58s-2.57,1.19-2.57,2.74V98.29h1.7l1.77-2a2.88,2.88,0,0,1,1.51-.77h0a6,6,0,0,1,2.25.5c2.33,1,3.16,6.14,3.26,6.27s5.84.28,6.22.2,56.42,0,56.42,0V93.7a3,3,0,0,0,1.1-.16,1.48,1.48,0,0,0,.64-1.26C141.71,91.76,141.75,84.24,141.75,84.24Z"/><path class="cls-24" d="M95.05,88.75s1.25,2.6,2.34,2.74,31.28,0,31.28,0a3.16,3.16,0,0,0,2.73-2.19l.3-.7Z"/><path class="cls-25" d="M91.87,83.45s1.42,3.83,2.64,4,35.45,0,35.45,0,2.06,0,3.1-3.22l.33-1Z"/><line class="cls-26" x1="95.05" y1="83.51" x2="95.05" y2="87.16"/><line class="cls-26" x1="96.69" y1="83.51" x2="96.69" y2="87.16"/><line class="cls-26" x1="98.26" y1="83.51" x2="98.26" y2="87.16"/><line class="cls-26" x1="99.66" y1="83.51" x2="99.66" y2="87.16"/><line class="cls-26" x1="101.06" y1="83.51" x2="101.06" y2="87.16"/><line class="cls-26" x1="102.87" y1="83.51" x2="102.87" y2="87.16"/><line class="cls-26" x1="104.87" y1="83.51" x2="104.87" y2="87.16"/><line class="cls-26" x1="106.61" y1="83.51" x2="106.61" y2="87.16"/><line class="cls-26" x1="108.28" y1="83.51" x2="108.28" y2="87.16"/><line class="cls-26" x1="109.77" y1="83.51" x2="109.77" y2="87.16"/><line class="cls-26" x1="111.76" y1="83.63" x2="111.76" y2="87.27"/><line class="cls-26" x1="113.39" y1="83.63" x2="113.39" y2="87.27"/><line class="cls-26" x1="114.96" y1="83.63" x2="114.96" y2="87.27"/><line class="cls-26" x1="116.37" y1="83.63" x2="116.37" y2="87.27"/><line class="cls-26" x1="117.77" y1="83.63" x2="117.77" y2="87.27"/><line class="cls-26" x1="119.57" y1="83.63" x2="119.57" y2="87.27"/><line class="cls-26" x1="121.58" y1="83.63" x2="121.58" y2="87.27"/><line class="cls-26" x1="123.32" y1="83.63" x2="123.32" y2="87.27"/><line class="cls-26" x1="124.99" y1="83.63" x2="124.99" y2="87.27"/><line class="cls-26" x1="126.47" y1="83.63" x2="126.47" y2="87.27"/><line class="cls-26" x1="128.3" y1="83.63" x2="128.3" y2="87.27"/><line class="cls-26" x1="130.37" y1="83.63" x2="130.37" y2="87.27"/><polygon class="cls-27" points="86.67 83.51 86.67 79.9 139.23 79.9 139.23 83.73 138.22 83.79 138.24 81.5 88.71 81.5 88.71 83.79 86.67 83.51"/><path class="cls-16" d="M139.24,69.14s.31,2.72-5.73,2.8c-5.78.08-43.84,0-47.09,0a2.63,2.63,0,0,1-.49,0,16,16,0,0,1-9.88-6.45,7.38,7.38,0,0,1-.72-2.12c-.4-2.64-1.79-10.87-1.55-12.36h-.92s.9,12.56,2,14.37A14.42,14.42,0,0,0,85.75,72.9c7.15,1.08,48.71,0,48.71,0a10.4,10.4,0,0,0,2.67-.4,3,3,0,0,0,2.11-3.36Z"/><path class="cls-28" d="M80,74.1c-6.76,3.53-8.6.37-8.6.37a2.81,2.81,0,0,0,.75-1s.87-4.05-.87-5.64v-3a2,2,0,0,0,1.21-1.3c.52-1.75,0-8.12,0-8.12a2.78,2.78,0,0,0-1.21-2.14l0-1.49s.11-1,2.3-.19c1.31.5.45-1,.45-1s-1.76-2.21-3.52-1.08a1.86,1.86,0,0,0-.76,1.35L69.6,53c-.27,0,0,0-.33,0-3,.52-2.8,3.71-3,3.86s0,6.72,0,6.72-.1,1.9,1.56,1.75a18.5,18.5,0,0,0,1.87-.15l0,2.1c-3.48-.33-3.08,3.13-3.08,3.23l.12,2.19a2.59,2.59,0,0,0,2.38,2.64,1.57,1.57,0,0,0,.72,0s2,2.16,3.95,2.21a14.41,14.41,0,0,0,7.07-2.07S80.2,74,80,74.1Z"/><path class="cls-16" d="M77.94,51c.24-.11,6-.84,6.18,2s0,15.36,0,15.36-5.75-1.27-6.43-6.76S76.39,51.77,77.94,51Z"/><path class="cls-21" d="M126.13,52.73h2.76a3.22,3.22,0,0,1,3.43,3.2c.12,3.35,0,10.7,0,10.7H126Z"/><path class="cls-16" d="M84.37,112.93a3.85,3.85,0,0,0-1.74,2.56c-.25,1.7,0,3.82.45,3.93,2,.43,58.17,0,58.17,0s1.47-.32,1.52-2.5a47.69,47.69,0,0,0-.27-5.22l-48.8-.27Z"/><path class="cls-29" d="M131.87,114H98.14s.51,2.89,1.19,3.5,29.42,0,29.42,0S131.21,117.55,131.87,114Z"/><line class="cls-30" x1="101.65" y1="113.95" x2="101.65" y2="117.55"/><line class="cls-30" x1="103.25" y1="113.95" x2="103.25" y2="117.55"/><line class="cls-30" x1="105.25" y1="113.95" x2="105.25" y2="117.55"/><line class="cls-30" x1="106.89" y1="113.95" x2="106.89" y2="117.52"/><line class="cls-30" x1="108.68" y1="113.95" x2="108.68" y2="117.57"/><line class="cls-30" x1="110.48" y1="113.95" x2="110.48" y2="117.57"/><line class="cls-30" x1="112.32" y1="113.95" x2="112.32" y2="117.55"/><line class="cls-30" x1="114.7" y1="113.98" x2="114.7" y2="117.55"/><line class="cls-30" x1="116.79" y1="113.98" x2="116.79" y2="117.48"/><line class="cls-30" x1="118.47" y1="113.98" x2="118.47" y2="117.48"/><line class="cls-30" x1="120.31" y1="113.98" x2="120.33" y2="117.48"/><line class="cls-30" x1="122.34" y1="113.95" x2="122.34" y2="117.43"/><line class="cls-30" x1="124.22" y1="113.95" x2="124.22" y2="117.39"/><line class="cls-30" x1="126.42" y1="113.95" x2="126.42" y2="117.39"/><line class="cls-30" x1="128.33" y1="113.95" x2="128.33" y2="117.34"/><line class="cls-30" x1="98.72" y1="115.76" x2="131.23" y2="115.76"/><g class="cls-31"><g class="cls-32"><line class="cls-3" x1="123.5" y1="51.26" x2="123.5" y2="69.41"/><line class="cls-3" x1="122.43" y1="51.26" x2="122.43" y2="69.41"/><line class="cls-3" x1="121.51" y1="51.26" x2="121.51" y2="69.41"/><line class="cls-3" x1="120.39" y1="51.12" x2="120.39" y2="69.27"/><line class="cls-3" x1="119.36" y1="51.12" x2="119.36" y2="69.27"/><line class="cls-3" x1="118.28" y1="51.12" x2="118.28" y2="69.27"/><line class="cls-3" x1="117.36" y1="51.12" x2="117.36" y2="69.27"/><line class="cls-3" x1="116.24" y1="50.97" x2="116.24" y2="69.12"/><line class="cls-3" x1="115.28" y1="50.69" x2="115.28" y2="68.83"/><line class="cls-3" x1="114.2" y1="50.69" x2="114.2" y2="68.83"/><line class="cls-3" x1="113.28" y1="50.69" x2="113.28" y2="68.83"/><line class="cls-3" x1="112.16" y1="50.54" x2="112.16" y2="68.69"/><line class="cls-3" x1="111.13" y1="50.54" x2="111.13" y2="68.69"/><line class="cls-3" x1="110.05" y1="50.54" x2="110.05" y2="68.69"/><line class="cls-3" x1="109.14" y1="50.54" x2="109.14" y2="68.69"/><line class="cls-3" x1="108.01" y1="50.4" x2="108.01" y2="68.55"/><line class="cls-3" x1="106.97" y1="50.83" x2="106.97" y2="68.98"/><line class="cls-3" x1="105.89" y1="50.83" x2="105.89" y2="68.98"/><line class="cls-3" x1="104.97" y1="50.83" x2="104.97" y2="68.98"/><line class="cls-3" x1="103.85" y1="50.69" x2="103.85" y2="68.83"/><line class="cls-3" x1="102.82" y1="50.69" x2="102.82" y2="68.83"/><line class="cls-3" x1="101.74" y1="50.69" x2="101.74" y2="68.83"/><line class="cls-3" x1="100.82" y1="50.69" x2="100.82" y2="68.83"/><line class="cls-3" x1="99.7" y1="50.54" x2="99.7" y2="68.69"/><line class="cls-3" x1="98.74" y1="50.25" x2="98.74" y2="68.4"/><line class="cls-3" x1="97.66" y1="50.25" x2="97.66" y2="68.4"/><line class="cls-3" x1="96.75" y1="50.25" x2="96.75" y2="68.4"/><line class="cls-3" x1="95.62" y1="50.11" x2="95.62" y2="68.26"/><line class="cls-3" x1="94.59" y1="50.11" x2="94.59" y2="68.26"/><line class="cls-3" x1="93.52" y1="50.11" x2="93.52" y2="68.26"/><line class="cls-3" x1="92.6" y1="50.11" x2="92.6" y2="68.26"/><line class="cls-3" x1="91.48" y1="49.96" x2="91.48" y2="68.11"/><line class="cls-3" x1="90.58" y1="50.15" x2="90.58" y2="68.3"/><line class="cls-3" x1="89.5" y1="50.15" x2="89.5" y2="68.3"/><line class="cls-3" x1="88.58" y1="50.15" x2="88.58" y2="68.3"/><line class="cls-3" x1="86.43" y1="50.01" x2="86.43" y2="68.16"/><line class="cls-3" x1="85.35" y1="50.01" x2="85.35" y2="68.16"/><line class="cls-3" x1="84.43" y1="50.01" x2="84.43" y2="68.16"/><line class="cls-3" x1="83.31" y1="49.86" x2="83.31" y2="68.01"/><line class="cls-3" x1="82.35" y1="49.58" x2="82.35" y2="67.72"/><line class="cls-3" x1="81.27" y1="49.58" x2="81.27" y2="67.72"/><line class="cls-3" x1="80.36" y1="49.58" x2="80.36" y2="67.72"/><line class="cls-3" x1="79.23" y1="49.43" x2="79.23" y2="67.58"/><line class="cls-3" x1="78.2" y1="49.43" x2="78.2" y2="67.58"/><line class="cls-3" x1="77.13" y1="49.43" x2="77.13" y2="67.58"/><line class="cls-3" x1="76.21" y1="49.43" x2="76.21" y2="67.58"/><line class="cls-3" x1="75.09" y1="49.29" x2="75.09" y2="67.44"/></g><polygon class="cls-2" points="125 49.51 125 71.54 72.56 71.54 72.56 48.33 125 48.33 125 49.51"/></g><path class="cls-33" d="M92.74,51h36.17a5.23,5.23,0,0,1,3.18,1c1.23.93,2.49,2.72,2.57,6.18.16,6.92,1.78,10-1.73,10.49s-43.16.28-43.16.28-2.44.16-2.41-4.21c0-2.26,0-5.3-.15-8A5.53,5.53,0,0,1,92.74,51Z"/><path class="cls-19" d="M127.92,68.92s1-4.12-8-4.93c-2.76,0-4.24,2-4.27,3.05H109a3.33,3.33,0,0,0-3.5-1.7c-2.34.5-18.09,0-18.09,0s0,3.53,2.4,3.54C102.9,69,127.92,68.92,127.92,68.92Z"/><path class="cls-16" d="M93.8,95.57s-11,.48-11,4.26c0,2,0,11.77,0,11.77s.11,2.13,1.2,2.66,53.69,0,53.69,0,4.09-.56,4.91-1.76,0-13,0-13,.41-2.9-3.08-3.43S93.8,95.57,93.8,95.57Z"/><path class="cls-34" d="M98.43,105.17s.67,4.65,2.1,5.08,25.84,0,25.84,0a7,7,0,0,0,2.78-5.4Z"/><path class="cls-35" d="M98,111.88c.42-.07.74-8.54-12.86-8.41C85.14,103.47,81.82,114.46,98,111.88Z"/><path class="cls-16" d="M95.39,110.27c.26,0,.44-5.11-7.7-5C87.69,105.24,85.7,111.82,95.39,110.27Z"/><line class="cls-16" x1="87.52" y1="106.79" x2="93.77" y2="106.79"/><line class="cls-16" x1="95.23" y1="108.68" x2="88.1" y2="108.68"/><path class="cls-36" d="M129.6,111.88c-.39-.07-.67-8.54,11.74-8.41C141.34,103.47,144.37,114.46,129.6,111.88Z"/><path class="cls-37" d="M132,110.27c-.23,0-.4-5.11,7-5C139,105.24,140.83,111.82,132,110.27Z"/><line class="cls-37" x1="139.16" y1="106.79" x2="133.46" y2="106.79"/><line class="cls-37" x1="132.13" y1="108.68" x2="138.63" y2="108.68"/><path class="cls-16" d="M94.28,92.2A4.41,4.41,0,0,0,96.89,94c1.75.4,32.54,0,32.54,0l4.78-3,.89.12-5.27,3.4.87,1.78s.5,1.27-1.31,3.21c-3.58,3.83-4.87,3.83-4.87,3.83H99.44s-1.72,0-3-3.19-1.18-3.74-2.62-4.68a9.32,9.32,0,0,1-2.48-2.93l1.12-1.17Z"/><line class="cls-38" x1="124.52" y1="98.93" x2="124.52" y2="103.3"/><line class="cls-38" x1="122.1" y1="98.93" x2="122.1" y2="103.3"/><line class="cls-38" x1="119.47" y1="98.93" x2="119.47" y2="103.3"/><line class="cls-38" x1="116.71" y1="98.93" x2="116.71" y2="103.3"/><line class="cls-38" x1="114.08" y1="98.93" x2="114.08" y2="103.3"/><line class="cls-38" x1="110.89" y1="98.93" x2="110.89" y2="103.3"/><line class="cls-38" x1="108.09" y1="98.93" x2="108.09" y2="103.3"/><line class="cls-38" x1="105.4" y1="98.93" x2="105.4" y2="103.3"/><line class="cls-38" x1="102.69" y1="98.93" x2="102.69" y2="103.3"/><line class="cls-38" x1="99.66" y1="98.93" x2="99.66" y2="103.3"/><path class="cls-16" d="M129.36,98.84c-9.92.12-33.1.09-33.1.09l-.61-1.29,34.72-.08S129.83,98.84,129.36,98.84Z"/><path class="cls-16" d="M86.94,83.23S84.17,85,84.7,87a8.57,8.57,0,0,0,3.57,4.78c1.27.59,4.84.49,5.27.38S93.22,85,86.94,83.23Z"/><path class="cls-16" d="M138.42,83.23s2.51,1.7,2,3.61a8.24,8.24,0,0,1-3.23,4.63c-1.15.57-4.38.47-4.77.37S132.73,84.93,138.42,83.23Z"/><polyline class="cls-5" points="51.32 99.57 51.32 94.45 62.19 94.45"/><path class="cls-39" d="M77.62,39.76a16.79,16.79,0,0,1,.88,3.74"/><path class="cls-19" d="M77.65,39.75a9.62,9.62,0,0,1,.81,1.79,2.89,2.89,0,0,1,.27.94,2.08,2.08,0,0,1-.19,1,0,0,0,0,1-.06,0h0a3.11,3.11,0,0,1-.47-.9,4.17,4.17,0,0,1-.11-.94c-.08-.63-.17-1.26-.3-1.89a.05.05,0,0,1,0-.05Z"/><path class="cls-39" d="M79.49,39.76a16.79,16.79,0,0,1,.88,3.74"/><path class="cls-19" d="M79.52,39.75a9.62,9.62,0,0,1,.81,1.79,2.89,2.89,0,0,1,.27.94,2.08,2.08,0,0,1-.19,1,0,0,0,0,1-.06,0h0a3.11,3.11,0,0,1-.47-.9,4.17,4.17,0,0,1-.11-.94c-.08-.63-.17-1.26-.3-1.89a.05.05,0,0,1,0-.05Z"/><path class="cls-39" d="M81.24,39.76a16.48,16.48,0,0,1,.89,3.74"/><path class="cls-19" d="M81.28,39.75a9.62,9.62,0,0,1,.81,1.79,3.16,3.16,0,0,1,.27.94,2.2,2.2,0,0,1-.19,1,0,0,0,0,1-.06,0h0a2.89,2.89,0,0,1-.47-.9,4.17,4.17,0,0,1-.11-.94c-.08-.63-.17-1.26-.3-1.89a.05.05,0,0,1,0-.05A.05.05,0,0,1,81.28,39.75Z"/><path class="cls-39" d="M83.08,39.76A16.79,16.79,0,0,1,84,43.5"/><path class="cls-19" d="M83.11,39.75a9.62,9.62,0,0,1,.81,1.79,2.89,2.89,0,0,1,.27.94,2.08,2.08,0,0,1-.19,1,0,0,0,0,1-.06,0h0a2.89,2.89,0,0,1-.47-.9,4.17,4.17,0,0,1-.11-.94c-.08-.63-.17-1.26-.3-1.89a.05.05,0,0,1,0-.05A.05.05,0,0,1,83.11,39.75Z"/><path class="cls-39" d="M84.84,39.76a16.17,16.17,0,0,1,.88,3.74"/><path class="cls-19" d="M84.88,39.75a9.62,9.62,0,0,1,.81,1.79,3.16,3.16,0,0,1,.27.94,2.21,2.21,0,0,1-.2,1,0,0,0,0,1-.06,0h0a2.69,2.69,0,0,1-.47-.9,3.67,3.67,0,0,1-.12-.94c-.07-.63-.17-1.26-.29-1.89a0,0,0,0,1,0-.05Z"/><path class="cls-39" d="M86.92,39.76a16.79,16.79,0,0,1,.88,3.74"/><path class="cls-19" d="M87,39.75a9.62,9.62,0,0,1,.81,1.79,3.16,3.16,0,0,1,.27.94,2.08,2.08,0,0,1-.19,1,0,0,0,0,1-.06,0h0a2.89,2.89,0,0,1-.47-.9,4.17,4.17,0,0,1-.11-.94c-.08-.63-.17-1.26-.3-1.89a.05.05,0,0,1,0-.05A.05.05,0,0,1,87,39.75Z"/><path class="cls-39" d="M88.79,39.76a16.79,16.79,0,0,1,.88,3.74"/><path class="cls-19" d="M88.82,39.75a9.62,9.62,0,0,1,.81,1.79,2.89,2.89,0,0,1,.27.94,2.08,2.08,0,0,1-.19,1,0,0,0,0,1-.06,0h0a2.89,2.89,0,0,1-.47-.9,4.17,4.17,0,0,1-.11-.94c-.08-.63-.17-1.26-.3-1.89a.05.05,0,0,1,0-.05Z"/><path class="cls-39" d="M90.54,39.76a16.48,16.48,0,0,1,.89,3.74"/><path class="cls-19" d="M90.58,39.75a9.62,9.62,0,0,1,.81,1.79,3.16,3.16,0,0,1,.27.94,2.34,2.34,0,0,1-.19,1s0,0-.06,0h0a2.89,2.89,0,0,1-.47-.9,4.17,4.17,0,0,1-.11-.94c-.08-.63-.17-1.26-.3-1.89,0,0,0,0,0-.05Z"/><path class="cls-39" d="M92.37,39.76a16.48,16.48,0,0,1,.89,3.74"/><path class="cls-19" d="M92.41,39.75a9.62,9.62,0,0,1,.81,1.79,3.16,3.16,0,0,1,.27.94,2.2,2.2,0,0,1-.19,1,0,0,0,0,1-.06,0h0a2.89,2.89,0,0,1-.47-.9,4.17,4.17,0,0,1-.11-.94c-.08-.63-.17-1.26-.3-1.89a.05.05,0,0,1,0-.05Z"/><path class="cls-39" d="M94.14,39.76A16.17,16.17,0,0,1,95,43.5"/><path class="cls-19" d="M94.17,39.75A9.66,9.66,0,0,1,95,41.54a2.87,2.87,0,0,1,.26.94,2.08,2.08,0,0,1-.19,1,0,0,0,0,1-.06,0h0a2.69,2.69,0,0,1-.47-.9,3.67,3.67,0,0,1-.12-.94c-.08-.63-.17-1.26-.3-1.89a.05.05,0,0,1,0-.05S94.17,39.74,94.17,39.75Z"/><path class="cls-39" d="M96,39.76a16.48,16.48,0,0,1,.89,3.74"/><path class="cls-19" d="M96.06,39.75a9.62,9.62,0,0,1,.81,1.79,3.16,3.16,0,0,1,.27.94,2.34,2.34,0,0,1-.19,1s0,0-.06,0h0a2.89,2.89,0,0,1-.47-.9,4.17,4.17,0,0,1-.11-.94c-.08-.63-.17-1.26-.3-1.89,0,0,0,0,0-.05Z"/><path class="cls-39" d="M97.89,39.76a16.48,16.48,0,0,1,.89,3.74"/><path class="cls-19" d="M97.93,39.75a9.62,9.62,0,0,1,.81,1.79,3.16,3.16,0,0,1,.27.94,2.34,2.34,0,0,1-.19,1,0,0,0,0,1-.06,0h0a2.89,2.89,0,0,1-.47-.9,4.17,4.17,0,0,1-.11-.94c-.08-.63-.17-1.26-.3-1.89,0,0,0,0,0-.05Z"/><path class="cls-39" d="M99.65,39.76a16.48,16.48,0,0,1,.89,3.74"/><path class="cls-19" d="M99.69,39.75a9.62,9.62,0,0,1,.81,1.79,3.16,3.16,0,0,1,.27.94,2.21,2.21,0,0,1-.2,1,0,0,0,0,1-.06,0h0a2.69,2.69,0,0,1-.47-.9,4.84,4.84,0,0,1-.12-.94c-.07-.63-.17-1.26-.29-1.89,0,0,0,0,0-.05Z"/><path class="cls-39" d="M101.48,39.76a16.48,16.48,0,0,1,.89,3.74"/><path class="cls-19" d="M101.52,39.75a9.62,9.62,0,0,1,.81,1.79,3.16,3.16,0,0,1,.27.94,2.34,2.34,0,0,1-.19,1s0,0-.06,0h0a2.69,2.69,0,0,1-.47-.9,4.17,4.17,0,0,1-.11-.94q-.12-.95-.3-1.89s0,0,0-.05Z"/><path class="cls-39" d="M103.25,39.76a16.79,16.79,0,0,1,.88,3.74"/><path class="cls-19" d="M103.28,39.75a9.62,9.62,0,0,1,.81,1.79,2.89,2.89,0,0,1,.27.94,2.08,2.08,0,0,1-.19,1,0,0,0,0,1-.06,0h0a3.11,3.11,0,0,1-.47-.9,4.17,4.17,0,0,1-.11-.94c-.08-.63-.17-1.26-.3-1.89a.05.05,0,0,1,0-.05A.05.05,0,0,1,103.28,39.75Z"/><path class="cls-39" d="M105.32,39.76a16.48,16.48,0,0,1,.89,3.74"/><path class="cls-19" d="M105.36,39.75a9.62,9.62,0,0,1,.81,1.79,3.16,3.16,0,0,1,.27.94,2.21,2.21,0,0,1-.2,1,0,0,0,0,1,0,0h0a2.69,2.69,0,0,1-.47-.9,4.84,4.84,0,0,1-.12-.94c-.07-.63-.17-1.26-.29-1.89,0,0,0,0,0-.05Z"/><path class="cls-39" d="M107.19,39.76a16.48,16.48,0,0,1,.89,3.74"/><path class="cls-19" d="M107.23,39.75a9.62,9.62,0,0,1,.81,1.79,3.16,3.16,0,0,1,.27.94,2.21,2.21,0,0,1-.2,1,0,0,0,0,1,0,0h0a2.69,2.69,0,0,1-.47-.9,4.84,4.84,0,0,1-.12-.94c-.07-.63-.17-1.26-.29-1.89,0,0,0,0,0-.05Z"/><path class="cls-39" d="M109,39.76a16.17,16.17,0,0,1,.88,3.74"/><path class="cls-19" d="M109,39.75a9.62,9.62,0,0,1,.81,1.79,3.16,3.16,0,0,1,.27.94,2.21,2.21,0,0,1-.2,1,0,0,0,0,1-.06,0h0a2.69,2.69,0,0,1-.47-.9,3.67,3.67,0,0,1-.12-.94c-.07-.63-.17-1.26-.29-1.89a0,0,0,0,1,0-.05Z"/><path class="cls-39" d="M110.78,39.76a16.48,16.48,0,0,1,.89,3.74"/><path class="cls-19" d="M110.82,39.75a9.62,9.62,0,0,1,.81,1.79,3.16,3.16,0,0,1,.27.94,2.21,2.21,0,0,1-.2,1,0,0,0,0,1-.06,0h0a2.69,2.69,0,0,1-.47-.9,4.84,4.84,0,0,1-.12-.94c-.07-.63-.17-1.26-.29-1.89,0,0,0,0,0-.05Z"/><path class="cls-39" d="M112.55,39.76a16.79,16.79,0,0,1,.88,3.74"/><path class="cls-19" d="M112.58,39.75a9.62,9.62,0,0,1,.81,1.79,2.89,2.89,0,0,1,.27.94,2.08,2.08,0,0,1-.19,1,0,0,0,0,1-.06,0h0a2.89,2.89,0,0,1-.47-.9,4.17,4.17,0,0,1-.11-.94c-.08-.63-.17-1.26-.3-1.89a.05.05,0,0,1,0-.05Z"/><path class="cls-39" d="M114.12,39.76A16.79,16.79,0,0,1,115,43.5"/><path class="cls-19" d="M114.15,39.75a9.62,9.62,0,0,1,.81,1.79,3.16,3.16,0,0,1,.27.94,2.08,2.08,0,0,1-.19,1,0,0,0,0,1-.06,0h0a2.89,2.89,0,0,1-.47-.9,4.17,4.17,0,0,1-.11-.94c-.08-.63-.17-1.26-.3-1.89a.05.05,0,0,1,0-.05Z"/><path class="cls-39" d="M116,39.76a16.79,16.79,0,0,1,.88,3.74"/><path class="cls-19" d="M116,39.75a9.62,9.62,0,0,1,.81,1.79,2.89,2.89,0,0,1,.27.94,2.08,2.08,0,0,1-.19,1,0,0,0,0,1-.06,0h0a2.89,2.89,0,0,1-.47-.9,4.17,4.17,0,0,1-.11-.94c-.08-.63-.17-1.26-.3-1.89a.05.05,0,0,1,0-.05Z"/><path class="cls-39" d="M117.74,39.76a16.48,16.48,0,0,1,.89,3.74"/><path class="cls-19" d="M117.78,39.75a9.62,9.62,0,0,1,.81,1.79,3.16,3.16,0,0,1,.27.94,2.34,2.34,0,0,1-.19,1s0,0-.06,0h0a2.89,2.89,0,0,1-.47-.9,4.17,4.17,0,0,1-.11-.94c-.08-.63-.17-1.26-.3-1.89,0,0,0,0,0-.05Z"/><path class="cls-39" d="M119.57,39.76a16.48,16.48,0,0,1,.89,3.74"/><path class="cls-19" d="M119.61,39.75a9.62,9.62,0,0,1,.81,1.79,3.16,3.16,0,0,1,.27.94,2.2,2.2,0,0,1-.19,1,0,0,0,0,1-.06,0h0a2.89,2.89,0,0,1-.47-.9,4.17,4.17,0,0,1-.11-.94c-.08-.63-.17-1.26-.3-1.89a.05.05,0,0,1,0-.05A.05.05,0,0,1,119.61,39.75Z"/><path class="cls-39" d="M121.34,39.76a16.17,16.17,0,0,1,.88,3.74"/><path class="cls-19" d="M121.37,39.75a10.36,10.36,0,0,1,.82,1.79,2.87,2.87,0,0,1,.26.94,2.08,2.08,0,0,1-.19,1,0,0,0,0,1-.06,0h0a2.69,2.69,0,0,1-.47-.9,3.67,3.67,0,0,1-.12-.94c-.08-.63-.17-1.26-.3-1.89a.05.05,0,0,1,0-.05Z"/><path class="cls-39" d="M123.41,39.76a16.48,16.48,0,0,1,.89,3.74"/><path class="cls-19" d="M123.45,39.75a9.62,9.62,0,0,1,.81,1.79,3.16,3.16,0,0,1,.27.94,2.34,2.34,0,0,1-.19,1,0,0,0,0,1-.06,0h0a2.89,2.89,0,0,1-.47-.9,4.17,4.17,0,0,1-.11-.94c-.08-.63-.17-1.26-.3-1.89,0,0,0,0,0-.05Z"/><path class="cls-39" d="M125.28,39.76a16.48,16.48,0,0,1,.89,3.74"/><path class="cls-19" d="M125.32,39.75a9.62,9.62,0,0,1,.81,1.79,3.16,3.16,0,0,1,.27.94,2.2,2.2,0,0,1-.19,1,0,0,0,0,1-.06,0h0a2.89,2.89,0,0,1-.47-.9,4.17,4.17,0,0,1-.11-.94c-.08-.63-.17-1.26-.3-1.89a.05.05,0,0,1,0-.05Z"/><path class="cls-39" d="M127,39.76a16.48,16.48,0,0,1,.89,3.74"/><path class="cls-19" d="M127.08,39.75a9.62,9.62,0,0,1,.81,1.79,3.16,3.16,0,0,1,.27.94,2.21,2.21,0,0,1-.2,1,0,0,0,0,1,0,0h0a2.69,2.69,0,0,1-.47-.9,4.84,4.84,0,0,1-.12-.94c-.07-.63-.17-1.26-.29-1.89,0,0,0,0,0-.05Z"/><path class="cls-39" d="M128.87,39.76a16.48,16.48,0,0,1,.89,3.74"/><path class="cls-19" d="M128.91,39.75a9.62,9.62,0,0,1,.81,1.79,3.16,3.16,0,0,1,.27.94,2.34,2.34,0,0,1-.19,1s0,0-.06,0h0a2.89,2.89,0,0,1-.47-.9,4.17,4.17,0,0,1-.11-.94c-.08-.63-.17-1.26-.3-1.89,0,0,0,0,0-.05Z"/><path class="cls-39" d="M130.64,39.76a16.17,16.17,0,0,1,.88,3.74"/><path class="cls-19" d="M130.67,39.75a9.62,9.62,0,0,1,.81,1.79,2.89,2.89,0,0,1,.27.94,2.08,2.08,0,0,1-.19,1,0,0,0,0,1-.06,0h0a3.11,3.11,0,0,1-.47-.9,4.17,4.17,0,0,1-.11-.94c-.08-.63-.17-1.26-.3-1.89a.05.05,0,0,1,0-.05A.05.05,0,0,1,130.67,39.75Z"/><path class="cls-19" d="M75.65,79.09c.84-.12,1.68-.22,2.53-.29a5.35,5.35,0,0,1,1.26-.09,3.57,3.57,0,0,1,1.26.38,0,0,0,0,1,0,.06l0,0a3.57,3.57,0,0,1-1.26.38,5.93,5.93,0,0,1-1.26-.08c-.85-.08-1.69-.18-2.53-.3,0,0,0,0,0,0A0,0,0,0,1,75.65,79.09Z"/><path class="cls-19" d="M75.65,81.31c.84-.12,1.68-.21,2.53-.29a5.93,5.93,0,0,1,1.26-.08,3.36,3.36,0,0,1,1.26.37.07.07,0,0,1,0,.07s0,0,0,0a3.36,3.36,0,0,1-1.26.37,5.34,5.34,0,0,1-1.26-.08c-.85-.07-1.69-.17-2.53-.29,0,0,0,0,0-.05S75.64,81.32,75.65,81.31Z"/><path class="cls-19" d="M75.65,83.47c.84-.12,1.68-.22,2.53-.29a5.34,5.34,0,0,1,1.26-.08,3.36,3.36,0,0,1,1.26.37.06.06,0,0,1,0,.07s0,0,0,0a3.36,3.36,0,0,1-1.26.37,5.93,5.93,0,0,1-1.26-.08c-.85-.08-1.69-.17-2.53-.29,0,0,0,0,0,0A0,0,0,0,1,75.65,83.47Z"/><path class="cls-19" d="M75.65,85.7c.84-.12,1.68-.22,2.53-.3a5.93,5.93,0,0,1,1.26-.08,3.57,3.57,0,0,1,1.26.38,0,0,0,0,1,0,.06l0,0a3.57,3.57,0,0,1-1.26.38,5.35,5.35,0,0,1-1.26-.09c-.85-.07-1.69-.17-2.53-.29a0,0,0,0,1,0,0A0,0,0,0,1,75.65,85.7Z"/><path class="cls-19" d="M75.65,88.13c.84-.12,1.68-.22,2.53-.29a4.86,4.86,0,0,1,1.26-.08,3.36,3.36,0,0,1,1.26.37.06.06,0,0,1,0,.07h0a3.57,3.57,0,0,1-1.26.38,5.93,5.93,0,0,1-1.26-.08c-.85-.08-1.69-.17-2.53-.3,0,0,0,0,0,0A0,0,0,0,1,75.65,88.13Z"/><path class="cls-19" d="M75.65,90.36c.84-.12,1.68-.22,2.53-.3A5.93,5.93,0,0,1,79.44,90a3.57,3.57,0,0,1,1.26.38,0,0,0,0,1,0,.06l0,0a3.36,3.36,0,0,1-1.26.37,4.86,4.86,0,0,1-1.26-.08c-.85-.07-1.69-.17-2.53-.29a0,0,0,0,1,0,0A0,0,0,0,1,75.65,90.36Z"/><path class="cls-19" d="M75.65,92.51c.84-.12,1.68-.21,2.53-.29a5.93,5.93,0,0,1,1.26-.08,3.36,3.36,0,0,1,1.26.37.07.07,0,0,1,0,.07l0,0a3.36,3.36,0,0,1-1.26.37,5.34,5.34,0,0,1-1.26-.08c-.85-.07-1.69-.17-2.53-.29,0,0,0,0,0,0S75.64,92.52,75.65,92.51Z"/><path class="cls-19" d="M75.65,94.74c.84-.12,1.68-.22,2.53-.29a5.35,5.35,0,0,1,1.26-.09,3.57,3.57,0,0,1,1.26.38,0,0,0,0,1,0,.06l0,0a3.57,3.57,0,0,1-1.26.38,5.35,5.35,0,0,1-1.26-.09c-.85-.07-1.69-.17-2.53-.29a0,0,0,0,1,0,0A0,0,0,0,1,75.65,94.74Z"/><path class="cls-40" d="M30.55,101.62s-.53-.25-.46,3.27a6,6,0,0,0,.28,2.13C31,108.12,31.05,101.85,30.55,101.62Z"/><path class="cls-21" d="M72,110.83s-.82-.24-.72,3.27c0,.26,0,1.64.43,2.13C72.74,117.33,72.77,111.07,72,110.83Z"/><circle class="cls-41" cx="56.97" cy="22.45" r="0.18"/><circle class="cls-41" cx="56.97" cy="24.79" r="0.18"/><circle class="cls-41" cx="56.97" cy="27.13" r="0.18"/><circle class="cls-41" cx="56.97" cy="29.27" r="0.18"/><circle class="cls-41" cx="56.97" cy="31.55" r="0.18"/><circle class="cls-41" cx="56.97" cy="33.89" r="0.18"/><circle class="cls-41" cx="56.97" cy="36.23" r="0.18"/><circle class="cls-41" cx="56.97" cy="38.37" r="0.18"/><circle class="cls-41" cx="56.97" cy="40.7" r="0.18"/><circle class="cls-41" cx="56.97" cy="43.04" r="0.18"/><circle class="cls-41" cx="56.97" cy="45.38" r="0.18"/><circle class="cls-41" cx="56.97" cy="47.52" r="0.18"/><circle class="cls-41" cx="56.97" cy="49.8" r="0.18"/><circle class="cls-41" cx="56.97" cy="52.14" r="0.18"/><circle class="cls-41" cx="56.97" cy="54.48" r="0.18"/><circle class="cls-41" cx="56.97" cy="56.62" r="0.18"/><circle class="cls-41" cx="56.97" cy="56.62" r="0.18"/><circle class="cls-41" cx="56.97" cy="58.96" r="0.18"/><circle class="cls-41" cx="56.97" cy="61.3" r="0.18"/><circle class="cls-41" cx="56.97" cy="63.44" r="0.18"/><circle class="cls-41" cx="56.97" cy="65.72" r="0.18"/><circle class="cls-41" cx="56.97" cy="68.06" r="0.18"/><circle class="cls-41" cx="56.97" cy="70.4" r="0.18"/><circle class="cls-41" cx="56.97" cy="72.54" r="0.18"/><circle class="cls-41" cx="56.97" cy="74.88" r="0.18"/><circle class="cls-41" cx="56.97" cy="77.21" r="0.18"/><circle class="cls-41" cx="56.97" cy="79.55" r="0.18"/><circle class="cls-41" cx="56.97" cy="81.7" r="0.18"/><circle class="cls-41" cx="56.97" cy="83.98" r="0.18"/><circle class="cls-41" cx="56.97" cy="86.31" r="0.18"/><circle class="cls-41" cx="56.97" cy="88.65" r="0.18"/><circle class="cls-41" cx="56.97" cy="90.8" r="0.18"/><g class="cls-42"><g class="cls-43"><line class="cls-3" x1="126.36" y1="52.88" x2="126.36" y2="69.95"/><line class="cls-3" x1="125.26" y1="52.88" x2="125.26" y2="69.95"/><line class="cls-3" x1="124.32" y1="52.88" x2="124.32" y2="69.95"/><line class="cls-3" x1="123.17" y1="52.74" x2="123.17" y2="69.81"/><line class="cls-3" x1="122.12" y1="52.74" x2="122.12" y2="69.81"/><line class="cls-3" x1="121.02" y1="52.74" x2="121.02" y2="69.81"/><line class="cls-3" x1="120.08" y1="52.74" x2="120.08" y2="69.81"/><line class="cls-3" x1="118.93" y1="52.61" x2="118.93" y2="69.68"/><line class="cls-3" x1="117.95" y1="52.34" x2="117.95" y2="69.41"/><line class="cls-3" x1="116.85" y1="52.34" x2="116.85" y2="69.41"/><line class="cls-3" x1="115.91" y1="52.34" x2="115.91" y2="69.41"/><line class="cls-3" x1="114.76" y1="52.2" x2="114.76" y2="69.27"/><line class="cls-3" x1="113.71" y1="52.2" x2="113.71" y2="69.27"/><line class="cls-3" x1="112.6" y1="52.2" x2="112.6" y2="69.27"/><line class="cls-3" x1="111.67" y1="52.2" x2="111.67" y2="69.27"/><line class="cls-3" x1="110.52" y1="52.07" x2="110.52" y2="69.14"/><line class="cls-3" x1="109.45" y1="52.47" x2="109.45" y2="69.54"/><line class="cls-3" x1="108.34" y1="52.47" x2="108.34" y2="69.54"/><line class="cls-3" x1="107.4" y1="52.47" x2="107.4" y2="69.54"/><line class="cls-3" x1="106.26" y1="52.34" x2="106.26" y2="69.41"/><line class="cls-3" x1="105.2" y1="52.34" x2="105.2" y2="69.41"/><line class="cls-3" x1="104.1" y1="52.34" x2="104.1" y2="69.41"/><line class="cls-3" x1="103.16" y1="52.34" x2="103.16" y2="69.41"/><line class="cls-3" x1="102.01" y1="52.2" x2="102.01" y2="69.27"/><line class="cls-3" x1="101.03" y1="51.93" x2="101.03" y2="69"/><line class="cls-3" x1="99.93" y1="51.93" x2="99.93" y2="69"/><line class="cls-3" x1="98.99" y1="51.93" x2="98.99" y2="69"/><line class="cls-3" x1="97.84" y1="51.8" x2="97.84" y2="68.87"/><line class="cls-3" x1="96.79" y1="51.8" x2="96.79" y2="68.87"/><line class="cls-3" x1="95.69" y1="51.8" x2="95.69" y2="68.87"/><line class="cls-3" x1="94.75" y1="51.8" x2="94.75" y2="68.87"/><line class="cls-3" x1="93.6" y1="51.66" x2="93.6" y2="68.73"/><line class="cls-3" x1="92.68" y1="51.84" x2="92.68" y2="68.91"/><line class="cls-3" x1="91.58" y1="51.84" x2="91.58" y2="68.91"/><line class="cls-3" x1="90.64" y1="51.84" x2="90.64" y2="68.91"/><line class="cls-3" x1="89.49" y1="51.7" x2="89.49" y2="68.77"/><line class="cls-3" x1="88.44" y1="51.7" x2="88.44" y2="68.77"/><line class="cls-3" x1="87.33" y1="51.7" x2="87.33" y2="68.77"/><line class="cls-3" x1="86.4" y1="51.7" x2="86.4" y2="68.77"/><line class="cls-3" x1="85.25" y1="51.57" x2="85.25" y2="68.64"/><line class="cls-3" x1="83.16" y1="51.29" x2="83.16" y2="68.37"/><line class="cls-3" x1="82.22" y1="51.29" x2="82.22" y2="68.37"/><line class="cls-3" x1="81.08" y1="51.16" x2="81.08" y2="68.23"/><line class="cls-3" x1="80.02" y1="51.16" x2="80.02" y2="68.23"/><line class="cls-3" x1="78.92" y1="51.16" x2="78.92" y2="68.23"/><line class="cls-3" x1="77.98" y1="51.16" x2="77.98" y2="68.23"/><line class="cls-3" x1="76.83" y1="51.02" x2="76.83" y2="68.09"/></g><polygon class="cls-3" points="127.89 51.23 127.89 71.95 74.25 71.95 74.25 50.12 127.89 50.12 127.89 51.23"/></g><path class="cls-3" d="M77.88,50.91c.25-.11,6.12-.84,6.32,2s0,15.36,0,15.36S78.32,67,77.63,61.55,76.3,51.67,77.88,50.91Z"/><circle class="cls-39" cx="29.36" cy="42.41" r="23.02"/><circle class="cls-44" cx="29.36" cy="42.41" r="21.2"/><polyline class="cls-45" points="45 42.41 13.72 42.41 23.54 32.59"/><polyline class="cls-45" points="45 42.41 13.72 42.41 23.54 52.23"/></svg>