<svg id="Layer_1" data-name="Layer 1" xmlns="http://www.w3.org/2000/svg" xmlns:xlink="http://www.w3.org/1999/xlink" viewBox="0 0 150 150"><defs><style>.cls-1,.cls-11,.cls-13,.cls-14,.cls-18,.cls-2,.cls-3,.cls-33,.cls-6,.cls-7{fill:none;}.cls-13,.cls-15,.cls-16,.cls-17,.cls-2,.cls-20,.cls-21,.cls-22,.cls-23,.cls-24,.cls-27,.cls-3,.cls-33,.cls-34,.cls-35,.cls-36,.cls-37,.cls-38,.cls-40,.cls-41,.cls-44{stroke:#ad1719;}.cls-10,.cls-11,.cls-13,.cls-14,.cls-16,.cls-18,.cls-2,.cls-20,.cls-21,.cls-22,.cls-23,.cls-24,.cls-25,.cls-26,.cls-27,.cls-28,.cls-29,.cls-3,.cls-30,.cls-33,.cls-34,.cls-35,.cls-36,.cls-37,.cls-38,.cls-40,.cls-41,.cls-44,.cls-45,.cls-5,.cls-6,.cls-7,.cls-8,.cls-9{stroke-miterlimit:10;}.cls-11,.cls-2,.cls-3,.cls-41{stroke-width:0.25px;}.cls-10,.cls-11,.cls-12,.cls-13,.cls-14,.cls-15,.cls-16,.cls-17,.cls-18,.cls-20,.cls-21,.cls-22,.cls-23,.cls-24,.cls-25,.cls-26,.cls-27,.cls-28,.cls-29,.cls-3,.cls-30,.cls-33,.cls-34,.cls-35,.cls-36,.cls-37,.cls-38,.cls-4,.cls-40,.cls-41,.cls-44,.cls-45,.cls-5,.cls-6,.cls-7,.cls-8,.cls-9{stroke-linecap:round;}.cls-10,.cls-12,.cls-15,.cls-16,.cls-17,.cls-20,.cls-21,.cls-22,.cls-23,.cls-24,.cls-28,.cls-34,.cls-35,.cls-36,.cls-37,.cls-38,.cls-39,.cls-4,.cls-40,.cls-41,.cls-44,.cls-45,.cls-5,.cls-8,.cls-9{fill:#fff;}.cls-10,.cls-11,.cls-14,.cls-18,.cls-4,.cls-5,.cls-6,.cls-7,.cls-8,.cls-9{stroke:#1d1d1b;}.cls-12,.cls-15,.cls-17,.cls-4{stroke-linejoin:round;}.cls-4{stroke-width:3.07px;}.cls-6{stroke-width:0.79px;}.cls-7{stroke-width:0.76px;}.cls-8{stroke-width:0.15px;}.cls-14,.cls-9{stroke-width:0.28px;}.cls-10{stroke-width:0.93px;}.cls-12,.cls-28,.cls-45{stroke:#000;}.cls-13{stroke-width:0.29px;}.cls-17,.cls-20{stroke-width:0.5px;}.cls-18{stroke-width:1.04px;}.cls-19,.cls-25,.cls-26,.cls-27,.cls-29,.cls-30{fill:#ad1719;}.cls-21{stroke-width:0.75px;}.cls-22{stroke-width:0.14px;}.cls-23{stroke-width:0.57px;}.cls-24{stroke-width:0.63px;}.cls-25,.cls-26,.cls-29,.cls-30{stroke:#fff;}.cls-25{stroke-width:0.71px;}.cls-26{stroke-width:0.8px;}.cls-29{stroke-width:0.4px;}.cls-30{stroke-width:0.39px;}.cls-31{clip-path:url(#clip-path);}.cls-32{clip-path:url(#clip-path-2);}.cls-34{stroke-width:1.03px;}.cls-35{stroke-width:1.29px;}.cls-36{stroke-width:1.23px;}.cls-37{stroke-width:0.96px;}.cls-38{stroke-width:1.09px;}.cls-40{stroke-width:0.7px;}.cls-42{clip-path:url(#clip-path-3);}.cls-43{clip-path:url(#clip-path-4);}.cls-44{stroke-width:1.25px;}.cls-45{stroke-width:2px;}</style><clipPath id="clip-path"><path class="cls-1" d="M92.53,51H128.7a5.23,5.23,0,0,1,3.18,1c1.23.93,2.49,2.72,2.57,6.18.16,6.92,1.78,10-1.73,10.49s-43.16.28-43.16.28-2.51.76-2.41-4.21c0-2.25,0-5.3-.15-8A5.53,5.53,0,0,1,92.53,51Z"/></clipPath><clipPath id="clip-path-2"><polygon class="cls-2" points="124.78 49.51 124.78 71.54 72.35 71.54 72.35 48.33 124.78 48.33 124.78 49.51"/></clipPath><clipPath id="clip-path-3"><path class="cls-3" d="M77.67,50.91c.25-.11,6.12-.84,6.32,2s0,15.36,0,15.36S78.11,67,77.42,61.55,76.09,51.67,77.67,50.91Z"/></clipPath><clipPath id="clip-path-4"><polygon class="cls-3" points="127.68 51.23 127.68 71.95 74.04 71.95 74.04 50.12 127.68 50.12 127.68 51.23"/></clipPath></defs><path class="cls-4" d="M148.12,67.33c0-2.13-.78-2.87-1.73-3.11l0-1.65c1.07,0,1.59,0,1.68-1.46.11-1.75.24-5.23-1-5.23h-.71v-.19a.47.47,0,0,0,0-.16c-.09-.38.76-4.74-8-4.05a7.89,7.89,0,0,0-2.78-4.13c0-.58-.07-1.61-.14-3.42A8.28,8.28,0,0,0,131.82,37c-1.25-.93-5.2-1.64-6.94-2-.4-.09-2.45-.16-5.42-.22a6.79,6.79,0,0,0,.88-4.6c-.4-3.23-3.86-4.11-5.42-4.34V22.9L58.24,19.29,2,47.15,2.51,91.1v9.1H6.57l-.3,4.12,4.62.31c0,.11,0,.21,0,.32,0,.62-.14,3.93,1.87,5.11a1.88,1.88,0,0,0,.83.29h5.18a4.29,4.29,0,0,0,1.8,2.46,2.6,2.6,0,0,0,1.06.37h.18a1.08,1.08,0,0,0,.18,0h4.68a3.83,3.83,0,0,0,1,.85,3.19,3.19,0,0,0,.72.32v.06h.22a1.93,1.93,0,0,0,.83,0l4.92-.1s2.92-2.06,3-8.56l2,.43V107l7.52,2.38a41.57,41.57,0,0,0,0,4.16c.06,1-.23,6.63,3.16,8.64a3.18,3.18,0,0,0,1.83.5v0l6.36-.15s1.59-1.3,2.54-5c2.09.48,4.56,1,5.86,1.24-.13,2.75-.23,4.9-.23,4.9h3.49a7.92,7.92,0,0,0,3.35,4.88,4,4,0,0,0,2.33.64v0l9.37-.19s3-2.09,4.2-8.21c7.32.06,20.48,0,31.93,0,.38,2.54,1.32,5.44,3.67,6.9a3.77,3.77,0,0,0,2.29.66v0l8-.19s2.26-1.94,3.4-7.51l4.36,0s1.5-.33,1.56-2.57c0-1.48-.1-3.33-.19-4.42l0-.06c.83-1.23,0-13.33,0-13.33a3.15,3.15,0,0,0-2.67-3.43V94.34a3.09,3.09,0,0,0,1.12-.16,1.54,1.54,0,0,0,.64-1.29c0-.54,0-8.26,0-8.26L141.36,78V74l-.07-.5c.47,0,1-.08,1.61-.15a3.55,3.55,0,0,0,3.55-3.59A2.27,2.27,0,0,0,148.12,67.33Zm-7,5.22-2.76-20c7.42-.1,6.6,2.92,6.6,3.41a1.08,1.08,0,0,0-1,.89c-.17,1.12,0,5.3,0,5.3s0,.42,1,.49v1.79a2.55,2.55,0,0,0-1.07,2.38,4.42,4.42,0,0,0,1.56,3.15C145.19,71.87,142.93,72.59,141.16,72.55Z"/><polygon class="cls-5" points="14.93 90.78 11.51 94.85 13.81 98.4 37.37 98.61 36.86 90.78 14.93 90.78"/><path class="cls-5" d="M28.72,113.26l5.86-.12s3.64-2.51,2.88-10.9-8.55-6.57-8.55-6.57"/><polyline class="cls-5" points="14.2 109.31 21.05 109.31 21.05 96.41 14.62 96.41"/><path class="cls-5" d="M65.8,92.58s-5,2.36-7.06,3.71a5.51,5.51,0,0,0-2.44,3.23l.18,5.72,14.77,1.18S78.46,95,78.34,94.7,65.8,92.58,65.8,92.58Z"/><path class="cls-5" d="M126,98.22s-7.46-1.27-6.51,17c.07,1.34-.28,8.51,3.89,11.07C132.59,131.92,132.92,99.43,126,98.22Z"/><line class="cls-6" x1="127.88" y1="125.98" x2="135.44" y2="125.98"/><line class="cls-7" x1="128.79" y1="124.58" x2="135.78" y2="124.58"/><line class="cls-7" x1="129.29" y1="123" x2="136.29" y2="123"/><line class="cls-7" x1="129.83" y1="121.39" x2="136.82" y2="121.39"/><line class="cls-7" x1="130.22" y1="119.85" x2="137.22" y2="119.85"/><line class="cls-7" x1="130.47" y1="118.21" x2="137.46" y2="118.21"/><line class="cls-7" x1="130.67" y1="116.54" x2="137.67" y2="116.54"/><line class="cls-7" x1="130.86" y1="115.24" x2="137.86" y2="115.24"/><line class="cls-8" x1="108.48" y1="88.79" x2="108.48" y2="91.36"/><line class="cls-8" x1="109.05" y1="88.79" x2="109.05" y2="91.36"/><line class="cls-8" x1="109.59" y1="88.79" x2="109.59" y2="91.36"/><line class="cls-8" x1="110.08" y1="88.79" x2="110.08" y2="91.36"/><line class="cls-8" x1="110.56" y1="88.79" x2="110.56" y2="91.36"/><polygon class="cls-8" points="111.19 88.79 111.19 91.36 59.02 91.44 59.02 29.19 111.53 30.07 110.98 41.76 111.19 88.79"/><line class="cls-8" x1="111.88" y1="88.79" x2="111.88" y2="91.36"/><line class="cls-8" x1="112.49" y1="88.79" x2="112.49" y2="91.36"/><line class="cls-8" x1="113.06" y1="88.79" x2="113.06" y2="91.36"/><line class="cls-8" x1="113.58" y1="88.79" x2="113.58" y2="91.36"/><line class="cls-8" x1="114.27" y1="88.87" x2="114.27" y2="91.44"/><line class="cls-8" x1="114.84" y1="88.87" x2="114.84" y2="91.44"/><line class="cls-8" x1="115.38" y1="88.87" x2="115.38" y2="91.44"/><line class="cls-8" x1="115.87" y1="88.87" x2="115.87" y2="91.44"/><line class="cls-8" x1="116.35" y1="88.87" x2="116.35" y2="91.44"/><line class="cls-8" x1="116.98" y1="88.87" x2="116.98" y2="91.44"/><line class="cls-8" x1="117.67" y1="88.87" x2="117.67" y2="91.44"/><line class="cls-8" x1="118.27" y1="88.87" x2="118.27" y2="91.44"/><line class="cls-8" x1="118.85" y1="88.87" x2="118.85" y2="91.44"/><line class="cls-8" x1="119.37" y1="88.87" x2="119.37" y2="91.44"/><line class="cls-8" x1="120" y1="88.87" x2="120" y2="91.44"/><line class="cls-8" x1="120.72" y1="88.87" x2="120.72" y2="91.44"/><path class="cls-9" d="M75.05,127.76l9.2-.19s5.7-3.95,4.51-17.1-13.4-10.31-13.4-10.31"/><polygon class="cls-10" points="3.31 90.54 3.31 99.41 6.8 99.41 9.44 95.33 12.23 87.51 3.31 90.54"/><line class="cls-11" x1="16.5" y1="108.18" x2="21" y2="108.18"/><line class="cls-11" x1="16.81" y1="107.33" x2="21.31" y2="107.33"/><line class="cls-11" x1="16.85" y1="106.38" x2="21.35" y2="106.38"/><line class="cls-11" x1="17.05" y1="105.37" x2="21.55" y2="105.37"/><line class="cls-11" x1="17.05" y1="104.32" x2="21.55" y2="104.32"/><line class="cls-11" x1="17.05" y1="103.31" x2="21.55" y2="103.31"/><line class="cls-11" x1="16.97" y1="102.27" x2="21.47" y2="102.27"/><line class="cls-11" x1="16.99" y1="101.38" x2="21.49" y2="101.38"/><line class="cls-11" x1="16.83" y1="100.29" x2="21.33" y2="100.29"/><line class="cls-11" x1="16.81" y1="99.44" x2="21.31" y2="99.44"/><line class="cls-11" x1="16.61" y1="98.5" x2="21.11" y2="98.5"/><line class="cls-11" x1="16.61" y1="97.52" x2="21.11" y2="97.52"/><polygon class="cls-12" points="2.97 47.34 58.22 20.2 58.22 92.7 3.5 91.31 2.97 47.34"/><line class="cls-13" x1="60.64" y1="56.13" x2="75.02" y2="41.76"/><line class="cls-13" x1="60.58" y1="54.29" x2="74.95" y2="39.91"/><line class="cls-13" x1="60.07" y1="52.22" x2="74.44" y2="37.85"/><line class="cls-13" x1="59.83" y1="50.06" x2="74.2" y2="35.69"/><line class="cls-13" x1="59.47" y1="48.11" x2="73.85" y2="33.74"/><line class="cls-13" x1="59.47" y1="46.49" x2="73.85" y2="32.12"/><line class="cls-13" x1="59.02" y1="45.03" x2="73.4" y2="30.66"/><line class="cls-13" x1="58.67" y1="43.56" x2="73.04" y2="29.19"/><line class="cls-13" x1="59.31" y1="40.53" x2="73.68" y2="26.15"/><line class="cls-13" x1="60.82" y1="74.98" x2="75.19" y2="60.61"/><line class="cls-13" x1="60.75" y1="73.14" x2="75.12" y2="58.76"/><line class="cls-13" x1="60.24" y1="71.07" x2="74.62" y2="56.7"/><line class="cls-13" x1="60" y1="68.92" x2="74.38" y2="54.54"/><line class="cls-13" x1="59.65" y1="66.96" x2="74.02" y2="52.59"/><line class="cls-13" x1="59.65" y1="65.34" x2="74.02" y2="50.97"/><line class="cls-13" x1="59.2" y1="63.88" x2="73.57" y2="49.51"/><line class="cls-13" x1="58.84" y1="62.41" x2="73.21" y2="48.04"/><line class="cls-13" x1="59.48" y1="59.38" x2="73.85" y2="45"/><line class="cls-13" x1="62.05" y1="93.15" x2="76.42" y2="78.78"/><line class="cls-13" x1="61.98" y1="91.31" x2="76.35" y2="76.93"/><line class="cls-13" x1="61.47" y1="89.24" x2="75.84" y2="74.87"/><line class="cls-13" x1="61.23" y1="87.08" x2="75.6" y2="72.71"/><line class="cls-13" x1="60.87" y1="85.13" x2="75.25" y2="70.76"/><line class="cls-13" x1="60.87" y1="83.51" x2="75.25" y2="69.14"/><line class="cls-13" x1="60.42" y1="82.05" x2="74.8" y2="67.68"/><line class="cls-13" x1="60.07" y1="80.58" x2="74.44" y2="66.21"/><line class="cls-13" x1="60.71" y1="77.55" x2="75.08" y2="63.17"/><polygon class="cls-14" points="112.23 27.6 61.15 24.19 61.15 89.88 67.77 89.88 112.23 27.6"/><polygon class="cls-15" points="58.05 20.57 58.05 93.07 94.19 93.07 95.16 89.88 61.05 89.88 61.05 33.91 112.15 34.19 113.72 29.04 113.72 24.08 58.05 20.57"/><path class="cls-16" d="M117.05,36.9s2.51-1.68,2-5.75S113,26.84,113,26.84L60.14,23.25V35.69Z"/><path class="cls-16" d="M80.07,33.49a2.73,2.73,0,0,1,1.85-.86l33,.45s1,.26,1.14.9"/><polygon class="cls-17" points="93.76 32.03 93.7 35.95 105.52 36.14 105.58 32.21 95.16 32.05 93.76 32.03"/><line class="cls-17" x1="104.36" y1="36.12" x2="104.42" y2="32.19"/><line class="cls-17" x1="95.12" y1="35.98" x2="95.18" y2="32.05"/><line class="cls-17" x1="97.1" y1="35.9" x2="97.15" y2="32.22"/><line class="cls-17" x1="98.79" y1="35.93" x2="98.84" y2="32.22"/><line class="cls-17" x1="100.29" y1="36.06" x2="100.35" y2="32.13"/><line class="cls-17" x1="101.63" y1="36.08" x2="101.69" y2="32.15"/><line class="cls-17" x1="103" y1="36.1" x2="103.06" y2="32.17"/><polyline class="cls-5" points="22.09 112.06 29.8 112.06 29.8 96.03 22.57 96.03"/><path class="cls-5" d="M51.77,121.36l6.25-.15s3.86-3.09,3-13.4S52,99.73,52,99.73"/><polygon class="cls-5" points="14.2 96.94 7.47 96.89 7 103.43 14.2 103.91 14.2 96.94"/><line class="cls-18" x1="77.29" y1="126.62" x2="85.36" y2="126.62"/><line class="cls-18" x1="77.79" y1="125.03" x2="85.76" y2="125.03"/><line class="cls-18" x1="78.72" y1="123.26" x2="86.76" y2="123.26"/><line class="cls-18" x1="79.34" y1="121.44" x2="87.41" y2="121.44"/><line class="cls-18" x1="79.9" y1="119.7" x2="88.13" y2="119.7"/><line class="cls-18" x1="79.49" y1="117.85" x2="87.69" y2="117.85"/><line class="cls-18" x1="79.7" y1="115.96" x2="87.93" y2="115.96"/><line class="cls-18" x1="79.86" y1="114.5" x2="88.17" y2="114.5"/><line class="cls-11" x1="53.55" y1="120.43" x2="58.67" y2="120.43"/><line class="cls-11" x1="53.8" y1="119.91" x2="58.93" y2="119.91"/><line class="cls-11" x1="54.17" y1="119.32" x2="59.29" y2="119.32"/><line class="cls-11" x1="54.56" y1="118.73" x2="59.69" y2="118.73"/><line class="cls-11" x1="54.85" y1="118.16" x2="59.97" y2="118.16"/><line class="cls-11" x1="55.03" y1="117.55" x2="60.15" y2="117.55"/><line class="cls-11" x1="55.18" y1="116.93" x2="60.31" y2="116.93"/><line class="cls-11" x1="55.32" y1="116.45" x2="60.45" y2="116.45"/><line class="cls-11" x1="55.32" y1="115.73" x2="60.45" y2="115.73"/><line class="cls-11" x1="55.51" y1="115.08" x2="60.63" y2="115.08"/><line class="cls-11" x1="53.05" y1="120.87" x2="58.17" y2="120.87"/><line class="cls-11" x1="30.37" y1="113.64" x2="35.35" y2="113.64"/><line class="cls-11" x1="30.76" y1="112.97" x2="35.74" y2="112.97"/><line class="cls-11" x1="31.12" y1="112.23" x2="36.1" y2="112.23"/><line class="cls-11" x1="31.37" y1="111.46" x2="36.35" y2="111.46"/><line class="cls-11" x1="31.61" y1="110.73" x2="36.59" y2="110.73"/><line class="cls-11" x1="31.84" y1="109.95" x2="36.82" y2="109.95"/><line class="cls-11" x1="32.1" y1="109.16" x2="37.08" y2="109.16"/><line class="cls-11" x1="32.1" y1="108.4" x2="37.08" y2="108.4"/><line class="cls-11" x1="32.24" y1="107.67" x2="37.22" y2="107.67"/><line class="cls-11" x1="32.37" y1="106.81" x2="37.35" y2="106.81"/><line class="cls-11" x1="32.46" y1="105.82" x2="37.44" y2="105.82"/><line class="cls-11" x1="32.46" y1="105.06" x2="37.44" y2="105.06"/><line class="cls-11" x1="32.46" y1="104.15" x2="37.44" y2="104.15"/><line class="cls-11" x1="32.58" y1="103.22" x2="37.56" y2="103.22"/><line class="cls-11" x1="32.58" y1="102.43" x2="37.56" y2="102.43"/><line class="cls-11" x1="32.46" y1="101.45" x2="37.44" y2="101.45"/><line class="cls-11" x1="32.46" y1="100.69" x2="37.44" y2="100.69"/><line class="cls-11" x1="32.46" y1="99.84" x2="37.44" y2="99.84"/><line class="cls-11" x1="32.27" y1="98.96" x2="37.25" y2="98.96"/><line class="cls-11" x1="32.16" y1="98.12" x2="37.14" y2="98.12"/><line class="cls-11" x1="32.06" y1="97.55" x2="37.04" y2="97.55"/><line class="cls-11" x1="31.93" y1="96.81" x2="36.91" y2="96.81"/><line class="cls-11" x1="31.87" y1="96.03" x2="36.85" y2="96.03"/><line class="cls-11" x1="23.91" y1="111.04" x2="29.42" y2="110.84"/><line class="cls-11" x1="24.53" y1="109.95" x2="30.04" y2="109.75"/><line class="cls-11" x1="24.99" y1="107.92" x2="30.51" y2="107.72"/><line class="cls-11" x1="25.23" y1="106.38" x2="30.74" y2="106.18"/><line class="cls-11" x1="25.36" y1="105.66" x2="30.87" y2="105.46"/><line class="cls-11" x1="25.47" y1="104.8" x2="30.98" y2="104.6"/><line class="cls-11" x1="25.54" y1="103.83" x2="31.05" y2="103.62"/><line class="cls-11" x1="25.51" y1="103.08" x2="31.02" y2="102.88"/><line class="cls-11" x1="25.48" y1="102.19" x2="30.99" y2="101.99"/><line class="cls-11" x1="25.35" y1="101.27" x2="30.86" y2="101.07"/><line class="cls-11" x1="25.35" y1="100.49" x2="30.86" y2="100.29"/><line class="cls-11" x1="25.11" y1="98.81" x2="30.63" y2="98.61"/><line class="cls-11" x1="24.81" y1="97.75" x2="30.33" y2="97.55"/><line class="cls-11" x1="24.43" y1="96.91" x2="29.94" y2="96.71"/><line class="cls-11" x1="24.15" y1="95.5" x2="29.66" y2="95.3"/><polygon class="cls-19" points="55.51 89.54 55.51 23.85 4.41 48.61 5.2 89.54 55.51 89.54"/><path class="cls-5" d="M22.58,96s-4.34-.71-3.78,9.48c0,.74-.17,4.75,2.26,6.18C26.44,114.88,26.63,96.72,22.58,96Z"/><path class="cls-20" d="M22.25,98.32s-2.33-.5-2,6.61c0,.52-.09,3.31,1.21,4.31C24.31,111.46,24.42,98.79,22.25,98.32Z"/><path class="cls-20" d="M22.47,98.32s-2-.5-1.74,6.61c0,.52-.07,3.31,1,4.31C24.23,111.46,24.32,98.79,22.47,98.32Z"/><path class="cls-20" d="M23.25,99.56c-.27,0-1.5.21-1.32,5.21,0,.41-.06,2.61.82,3.4a.58.58,0,0,0,.51.2A19.85,19.85,0,0,0,23.25,99.56Z"/><path class="cls-5" d="M14.62,96.41s-3.53-.57-3.07,7.63c0,.6-.14,3.82,1.83,5C17.75,111.57,17.91,97,14.62,96.41Z"/><path class="cls-20" d="M14.42,99s-1.13-.34-1,4.45c0,.35,0,2.24.58,2.91C15.42,107.87,15.47,99.33,14.42,99Z"/><path class="cls-21" d="M14.64,100.91s-.56-.16-.48,2.21c0,.17,0,1.1.29,1.43C15.13,105.29,15.16,101.07,14.64,100.91Z"/><path class="cls-21" d="M23.26,101.69s-.66-.19-.57,2.62c0,.21,0,1.31.34,1.71C23.85,106.9,23.88,101.88,23.26,101.69Z"/><path class="cls-22" d="M30.37,102.66s-.56-.17-.49,2.2c0,.17,0,1.1.29,1.44C30.86,107,30.89,102.81,30.37,102.66Z"/><path class="cls-5" d="M29.68,95.59s-4.77-.79-4.16,10.47c.05.82-.18,5.25,2.49,6.84C33.92,116.4,34.13,96.34,29.68,95.59Z"/><path class="cls-21" d="M29.16,98.7s-2.4-.5-2.09,6.74c0,.53-.09,3.38,1.25,4.4C31.28,112.1,31.39,99.19,29.16,98.7Z"/><path class="cls-21" d="M29.38,98.7s-2.05-.5-1.79,6.74c0,.53-.08,3.38,1.07,4.4C31.2,112.1,31.29,99.19,29.38,98.7Z"/><path class="cls-21" d="M30.18,100c-.27,0-1.54.22-1.35,5.31,0,.42-.06,2.67.84,3.47a.61.61,0,0,0,.52.2A19.74,19.74,0,0,0,30.18,100Z"/><polygon class="cls-5" points="33.14 93.87 33.45 103.91 41.6 105.69 41.6 94.14 33.14 93.87"/><path class="cls-5" d="M44.37,96.52s-3.75-1.21-3.5,3.46"/><path class="cls-5" d="M47.28,96.29s-5-1-4.35,3.56"/><path class="cls-5" d="M49.54,96.14s-4.78-.85-4.27,3.91"/><path class="cls-5" d="M51.11,95.86s-4.21,0-3.8,4.6"/><polygon class="cls-5" points="48.36 99.41 39.47 99.03 39.47 106.06 48.09 108.78 48.36 99.41"/><polygon class="cls-5" points="45.27 102.12 45.27 105.37 40.74 104.41 40.74 101.48 45.27 102.12"/><path class="cls-5" d="M52.07,99.54s-6-1-5.2,12.89c.06,1-.23,6.47,3.11,8.42C57.36,125.17,57.63,100.46,52.07,99.54Z"/><path class="cls-5" d="M69.17,101.48c-.27-.26-13.26-1.06-13.26-1.06a12.11,12.11,0,0,0-1.59,8.36c.69,5.27,2,6.35,2.77,6.71s9.47,2.23,10.06,2.23,4.1-3.46,4.1-3.46Z"/><path class="cls-16" d="M51.31,103.91s-2.69-.57-2.34,7.64c0,.6-.1,3.83,1.4,5C53.69,119.09,53.81,104.46,51.31,103.91Z"/><path class="cls-16" d="M51.56,103.91s-2.3-.57-2,7.64c0,.6-.08,3.83,1.2,5C53.6,119.09,53.7,104.46,51.56,103.91Z"/><path class="cls-16" d="M52.46,105.35c-.31,0-1.73.25-1.52,6,0,.47-.07,3,.94,3.93a.68.68,0,0,0,.59.22A22.68,22.68,0,0,0,52.46,105.35Z"/><path class="cls-5" d="M66,101.18c.12,0-6.5.24-2.51,15.59"/><path class="cls-5" d="M62.25,100.87c.11,0-6.51.24-2.52,15.25"/><path class="cls-9" d="M77.71,102.31l-6.2,20H66s.71-14.69.74-15.92a29.87,29.87,0,0,1,.32-4.21,9.34,9.34,0,0,1,3.3-5.83A3.92,3.92,0,0,1,71,96C74.08,94.3,77.27,97.11,77.71,102.31Z"/><path class="cls-5" d="M75.43,99.92s-7.61-1.23-6.63,16.45c.07,1.3-.29,8.25,4,10.74C82.18,132.62,82.52,101.1,75.43,99.92Z"/><path class="cls-16" d="M74.76,105.41s-3.34-.75-2.91,10c0,.78-.13,5,1.74,6.5C77.72,125.21,77.88,106.12,74.76,105.41Z"/><path class="cls-16" d="M74,106.84s-2.81-.62-2.45,8.37c0,.66-.11,4.19,1.46,5.46C76.5,123.47,76.62,107.44,74,106.84Z"/><path class="cls-16" d="M72.12,107.83s-2.59-.52-2.26,6.82c0,.54-.1,3.42,1.35,4.45C74.41,121.39,74.53,108.31,72.12,107.83Z"/><path class="cls-23" d="M85.89,101.18,77,100.81l1.38,17.93a.94.94,0,0,0,.93.86h8.18Z"/><path class="cls-20" d="M148.12,67.16c0-2.08-.77-2.81-1.7-3l0-1.61c1,0,1.57,0,1.65-1.42.11-1.71.24-5.1-1-5.1h-.7v-.18a.78.78,0,0,0,0-.16c-.1-.39.85-5-9.12-3.83h-.09c-.59.11-7,1.3.24.91,8.61-.47,7.71,2.77,7.7,3.28a1,1,0,0,0-1,.86c-.16,1.09,0,5.16,0,5.16s0,.42,1,.48v1.74a2.49,2.49,0,0,0-1,2.33,4.19,4.19,0,0,0,1.53,3.06c-.38,2.66-4.49,3-5.9,2.25-.28-.15-.61.2-.7.51h0a.69.69,0,0,0,.65.87,33.86,33.86,0,0,0,3.42-.24,3.47,3.47,0,0,0,3.49-3.5A2.21,2.21,0,0,0,148.12,67.16Z"/><path class="cls-16" d="M68.26,48.68a25.18,25.18,0,0,1-.48-4.26,21.33,21.33,0,0,1,1.12-4.58A8.94,8.94,0,0,1,72,37a39.67,39.67,0,0,1,12.19-1.65c6.22.1,37.58.16,39.28.53s5.59,1.06,6.82,2a8.07,8.07,0,0,1,3.46,6.76l.16,4.1s-14.22-1.6-48-1.41c-1.63,0-5,.2-6.5.32s-9.51,1.79-10,1.91S68.26,48.68,68.26,48.68Z"/><path class="cls-16" d="M141.54,84.24l-1.84-6.45V73.91l-3-21.93s-1-4.15-4.95-5.06-29.1-.43-29.1-.43-29.41-.64-31.82,1a6,6,0,0,0-2.53,6c.4,3.11,1,30.58,1,30.58s-2.57,1.19-2.57,2.74V98.29h1.7l1.77-2a2.88,2.88,0,0,1,1.51-.77h0a6,6,0,0,1,2.25.5c2.33,1,3.16,6.14,3.26,6.27s5.84.28,6.22.2,56.42,0,56.42,0V93.7a3,3,0,0,0,1.1-.16,1.48,1.48,0,0,0,.64-1.26C141.5,91.76,141.54,84.24,141.54,84.24Z"/><path class="cls-24" d="M94.84,88.75s1.25,2.6,2.34,2.74,31.28,0,31.28,0a3.16,3.16,0,0,0,2.73-2.19l.3-.7Z"/><path class="cls-25" d="M91.66,83.45s1.42,3.83,2.64,4,35.45,0,35.45,0,2.06,0,3.1-3.22l.33-1Z"/><line class="cls-26" x1="94.84" y1="83.51" x2="94.84" y2="87.16"/><line class="cls-26" x1="96.48" y1="83.51" x2="96.48" y2="87.16"/><line class="cls-26" x1="98.05" y1="83.51" x2="98.05" y2="87.16"/><line class="cls-26" x1="99.45" y1="83.51" x2="99.45" y2="87.16"/><line class="cls-26" x1="100.85" y1="83.51" x2="100.85" y2="87.16"/><line class="cls-26" x1="102.66" y1="83.51" x2="102.66" y2="87.16"/><line class="cls-26" x1="104.66" y1="83.51" x2="104.66" y2="87.16"/><line class="cls-26" x1="106.4" y1="83.51" x2="106.4" y2="87.16"/><line class="cls-26" x1="108.07" y1="83.51" x2="108.07" y2="87.16"/><line class="cls-26" x1="109.56" y1="83.51" x2="109.56" y2="87.16"/><line class="cls-26" x1="111.55" y1="83.63" x2="111.55" y2="87.27"/><line class="cls-26" x1="113.18" y1="83.63" x2="113.18" y2="87.27"/><line class="cls-26" x1="114.75" y1="83.63" x2="114.75" y2="87.27"/><line class="cls-26" x1="116.16" y1="83.63" x2="116.16" y2="87.27"/><line class="cls-26" x1="117.56" y1="83.63" x2="117.56" y2="87.27"/><line class="cls-26" x1="119.36" y1="83.63" x2="119.36" y2="87.27"/><line class="cls-26" x1="121.37" y1="83.63" x2="121.37" y2="87.27"/><line class="cls-26" x1="123.11" y1="83.63" x2="123.11" y2="87.27"/><line class="cls-26" x1="124.78" y1="83.63" x2="124.78" y2="87.27"/><line class="cls-26" x1="126.26" y1="83.63" x2="126.26" y2="87.27"/><line class="cls-26" x1="128.09" y1="83.63" x2="128.09" y2="87.27"/><line class="cls-26" x1="130.16" y1="83.63" x2="130.16" y2="87.27"/><polygon class="cls-27" points="86.47 83.51 86.47 79.9 139.02 79.9 139.02 83.73 138.01 83.79 138.03 81.5 88.5 81.5 88.5 83.79 86.47 83.51"/><path class="cls-16" d="M139,69.14s.31,2.72-5.73,2.8c-5.78.08-43.84,0-47.09,0a2.63,2.63,0,0,1-.49,0,16,16,0,0,1-9.88-6.45,7.38,7.38,0,0,1-.72-2.12c-.4-2.64-1.79-10.87-1.55-12.36h-.92s.9,12.56,2,14.37A14.37,14.37,0,0,0,85.54,72.9c7.15,1.08,48.71,0,48.71,0a10.4,10.4,0,0,0,2.67-.4A3,3,0,0,0,139,69.14Z"/><path class="cls-28" d="M79.76,74.1c-6.76,3.53-8.6.37-8.6.37a2.81,2.81,0,0,0,.75-1s.87-4.05-.87-5.64v-3a2,2,0,0,0,1.21-1.3c.52-1.75,0-8.12,0-8.12A2.78,2.78,0,0,0,71,53.27l0-1.49s.11-1,2.3-.19c1.32.5.45-1,.45-1S72,48.38,70.23,49.51a1.89,1.89,0,0,0-.76,1.35L69.39,53c-.27,0,0,0-.33,0-3,.52-2.8,3.71-3,3.86s0,6.72,0,6.72-.1,1.9,1.56,1.75a18.5,18.5,0,0,0,1.87-.15l0,2.1C66,67,66.44,70.42,66.44,70.52l.12,2.19a2.59,2.59,0,0,0,2.38,2.64,1.57,1.57,0,0,0,.72,0s2,2.16,4,2.21a14.41,14.41,0,0,0,7.07-2.07S80,74,79.76,74.1Z"/><path class="cls-16" d="M77.73,51c.24-.11,6-.84,6.18,2s0,15.36,0,15.36-5.75-1.27-6.43-6.76S76.18,51.77,77.73,51Z"/><path class="cls-21" d="M125.92,52.73h2.76a3.22,3.22,0,0,1,3.43,3.2c.12,3.35,0,10.7,0,10.7h-6.35Z"/><path class="cls-16" d="M84.16,112.93a3.89,3.89,0,0,0-1.74,2.56c-.25,1.7,0,3.82.45,3.93,2,.43,58.17,0,58.17,0s1.47-.32,1.52-2.5a47.69,47.69,0,0,0-.27-5.22l-48.8-.27Z"/><path class="cls-29" d="M131.66,114H97.93s.51,2.89,1.19,3.5,29.42,0,29.42,0S131,117.55,131.66,114Z"/><line class="cls-30" x1="101.45" y1="113.95" x2="101.45" y2="117.55"/><line class="cls-30" x1="103.04" y1="113.95" x2="103.04" y2="117.55"/><line class="cls-30" x1="105.04" y1="113.95" x2="105.04" y2="117.55"/><line class="cls-30" x1="106.68" y1="113.95" x2="106.68" y2="117.52"/><line class="cls-30" x1="108.47" y1="113.95" x2="108.47" y2="117.57"/><line class="cls-30" x1="110.27" y1="113.95" x2="110.27" y2="117.57"/><line class="cls-30" x1="112.11" y1="113.95" x2="112.11" y2="117.55"/><line class="cls-30" x1="114.5" y1="113.98" x2="114.5" y2="117.55"/><line class="cls-30" x1="116.58" y1="113.98" x2="116.58" y2="117.48"/><line class="cls-30" x1="118.26" y1="113.98" x2="118.26" y2="117.48"/><line class="cls-30" x1="120.1" y1="113.98" x2="120.12" y2="117.48"/><line class="cls-30" x1="122.13" y1="113.95" x2="122.13" y2="117.43"/><line class="cls-30" x1="124.01" y1="113.95" x2="124.01" y2="117.39"/><line class="cls-30" x1="126.21" y1="113.95" x2="126.21" y2="117.39"/><line class="cls-30" x1="128.12" y1="113.95" x2="128.12" y2="117.34"/><line class="cls-30" x1="98.51" y1="115.76" x2="131.02" y2="115.76"/><g class="cls-31"><g class="cls-32"><line class="cls-3" x1="123.29" y1="51.26" x2="123.29" y2="69.41"/><line class="cls-3" x1="122.22" y1="51.26" x2="122.22" y2="69.41"/><line class="cls-3" x1="121.3" y1="51.26" x2="121.3" y2="69.41"/><line class="cls-3" x1="120.18" y1="51.12" x2="120.18" y2="69.27"/><line class="cls-3" x1="119.15" y1="51.12" x2="119.15" y2="69.27"/><line class="cls-3" x1="118.07" y1="51.12" x2="118.07" y2="69.27"/><line class="cls-3" x1="117.15" y1="51.12" x2="117.15" y2="69.27"/><line class="cls-3" x1="116.03" y1="50.97" x2="116.03" y2="69.12"/><line class="cls-3" x1="115.07" y1="50.69" x2="115.07" y2="68.83"/><line class="cls-3" x1="113.99" y1="50.69" x2="113.99" y2="68.83"/><line class="cls-3" x1="113.07" y1="50.69" x2="113.07" y2="68.83"/><line class="cls-3" x1="111.95" y1="50.54" x2="111.95" y2="68.69"/><line class="cls-3" x1="110.92" y1="50.54" x2="110.92" y2="68.69"/><line class="cls-3" x1="109.84" y1="50.54" x2="109.84" y2="68.69"/><line class="cls-3" x1="108.93" y1="50.54" x2="108.93" y2="68.69"/><line class="cls-3" x1="107.8" y1="50.4" x2="107.8" y2="68.55"/><line class="cls-3" x1="106.76" y1="50.83" x2="106.76" y2="68.98"/><line class="cls-3" x1="105.68" y1="50.83" x2="105.68" y2="68.98"/><line class="cls-3" x1="104.76" y1="50.83" x2="104.76" y2="68.98"/><line class="cls-3" x1="103.64" y1="50.69" x2="103.64" y2="68.83"/><line class="cls-3" x1="102.61" y1="50.69" x2="102.61" y2="68.83"/><line class="cls-3" x1="101.53" y1="50.69" x2="101.53" y2="68.83"/><line class="cls-3" x1="100.61" y1="50.69" x2="100.61" y2="68.83"/><line class="cls-3" x1="99.49" y1="50.54" x2="99.49" y2="68.69"/><line class="cls-3" x1="98.53" y1="50.25" x2="98.53" y2="68.4"/><line class="cls-3" x1="97.45" y1="50.25" x2="97.45" y2="68.4"/><line class="cls-3" x1="96.54" y1="50.25" x2="96.54" y2="68.4"/><line class="cls-3" x1="95.41" y1="50.11" x2="95.41" y2="68.26"/><line class="cls-3" x1="94.38" y1="50.11" x2="94.38" y2="68.26"/><line class="cls-3" x1="93.31" y1="50.11" x2="93.31" y2="68.26"/><line class="cls-3" x1="92.39" y1="50.11" x2="92.39" y2="68.26"/><line class="cls-3" x1="91.27" y1="49.96" x2="91.27" y2="68.11"/><line class="cls-3" x1="90.37" y1="50.15" x2="90.37" y2="68.3"/><line class="cls-3" x1="89.29" y1="50.15" x2="89.29" y2="68.3"/><line class="cls-3" x1="88.37" y1="50.15" x2="88.37" y2="68.3"/><line class="cls-3" x1="86.22" y1="50.01" x2="86.22" y2="68.16"/><line class="cls-3" x1="85.14" y1="50.01" x2="85.14" y2="68.16"/><line class="cls-3" x1="84.22" y1="50.01" x2="84.22" y2="68.16"/><line class="cls-3" x1="83.1" y1="49.86" x2="83.1" y2="68.01"/><line class="cls-3" x1="82.14" y1="49.58" x2="82.14" y2="67.72"/><line class="cls-3" x1="81.06" y1="49.58" x2="81.06" y2="67.72"/><line class="cls-3" x1="80.15" y1="49.58" x2="80.15" y2="67.72"/><line class="cls-3" x1="79.02" y1="49.43" x2="79.02" y2="67.58"/><line class="cls-3" x1="77.99" y1="49.43" x2="77.99" y2="67.58"/><line class="cls-3" x1="76.92" y1="49.43" x2="76.92" y2="67.58"/><line class="cls-3" x1="76" y1="49.43" x2="76" y2="67.58"/><line class="cls-3" x1="74.88" y1="49.29" x2="74.88" y2="67.44"/></g><polygon class="cls-2" points="124.78 49.51 124.78 71.54 72.35 71.54 72.35 48.33 124.78 48.33 124.78 49.51"/></g><path class="cls-33" d="M92.53,51H128.7a5.23,5.23,0,0,1,3.18,1c1.23.93,2.49,2.72,2.57,6.18.16,6.92,1.78,10-1.73,10.49s-43.16.28-43.16.28-2.44.16-2.41-4.21c0-2.26,0-5.3-.15-8A5.53,5.53,0,0,1,92.53,51Z"/><path class="cls-19" d="M127.71,68.92s1-4.12-8-4.93c-2.76,0-4.24,2-4.27,3.05h-6.65a3.33,3.33,0,0,0-3.5-1.7c-2.34.5-18.09,0-18.09,0s0,3.53,2.4,3.54C102.69,69,127.71,68.92,127.71,68.92Z"/><path class="cls-16" d="M93.59,95.57s-11,.48-11,4.26c0,2,0,11.77,0,11.77s.11,2.13,1.2,2.66,53.69,0,53.69,0,4.09-.56,4.91-1.76,0-13,0-13,.41-2.9-3.08-3.43S93.59,95.57,93.59,95.57Z"/><path class="cls-34" d="M98.22,105.17s.67,4.65,2.1,5.08,25.84,0,25.84,0a7,7,0,0,0,2.78-5.4Z"/><path class="cls-35" d="M97.79,111.88c.42-.07.74-8.54-12.86-8.41C84.93,103.47,81.61,114.46,97.79,111.88Z"/><path class="cls-16" d="M95.18,110.27c.26,0,.44-5.11-7.7-5C87.48,105.24,85.49,111.82,95.18,110.27Z"/><line class="cls-16" x1="87.31" y1="106.79" x2="93.56" y2="106.79"/><line class="cls-16" x1="95.02" y1="108.68" x2="87.89" y2="108.68"/><path class="cls-36" d="M129.39,111.88c-.39-.07-.67-8.54,11.74-8.41C141.13,103.47,144.16,114.46,129.39,111.88Z"/><path class="cls-37" d="M131.77,110.27c-.23,0-.4-5.11,7-5C138.8,105.24,140.62,111.82,131.77,110.27Z"/><line class="cls-37" x1="138.95" y1="106.79" x2="133.25" y2="106.79"/><line class="cls-37" x1="131.92" y1="108.68" x2="138.42" y2="108.68"/><path class="cls-16" d="M94.07,92.2A4.41,4.41,0,0,0,96.68,94c1.76.4,32.54,0,32.54,0L134,91l.89.12-5.27,3.4.87,1.78s.5,1.27-1.31,3.21c-3.58,3.83-4.87,3.83-4.87,3.83H99.23s-1.72,0-3-3.19S95,96.4,93.6,95.46a9.32,9.32,0,0,1-2.48-2.93l1.12-1.17Z"/><line class="cls-38" x1="124.31" y1="98.93" x2="124.31" y2="103.3"/><line class="cls-38" x1="121.89" y1="98.93" x2="121.89" y2="103.3"/><line class="cls-38" x1="119.26" y1="98.93" x2="119.26" y2="103.3"/><line class="cls-38" x1="116.5" y1="98.93" x2="116.5" y2="103.3"/><line class="cls-38" x1="113.87" y1="98.93" x2="113.87" y2="103.3"/><line class="cls-38" x1="110.68" y1="98.93" x2="110.68" y2="103.3"/><line class="cls-38" x1="107.89" y1="98.93" x2="107.89" y2="103.3"/><line class="cls-38" x1="105.19" y1="98.93" x2="105.19" y2="103.3"/><line class="cls-38" x1="102.48" y1="98.93" x2="102.48" y2="103.3"/><line class="cls-38" x1="99.45" y1="98.93" x2="99.45" y2="103.3"/><path class="cls-16" d="M129.15,98.84c-9.92.12-33.1.09-33.1.09l-.61-1.29,34.72-.08S129.62,98.84,129.15,98.84Z"/><path class="cls-16" d="M86.73,83.23S84,85,84.49,87a8.57,8.57,0,0,0,3.57,4.78c1.27.59,4.84.49,5.27.38S93,85,86.73,83.23Z"/><path class="cls-16" d="M138.21,83.23s2.51,1.7,2,3.61A8.24,8.24,0,0,1,137,91.47c-1.15.57-4.38.47-4.77.37S132.52,84.93,138.21,83.23Z"/><polyline class="cls-5" points="51.11 99.57 51.11 94.45 61.98 94.45"/><path class="cls-39" d="M77.41,39.76a16.79,16.79,0,0,1,.88,3.74"/><path class="cls-19" d="M77.44,39.75a9.62,9.62,0,0,1,.81,1.79,2.89,2.89,0,0,1,.27.94,2.08,2.08,0,0,1-.19,1,0,0,0,0,1-.06,0h0a3.11,3.11,0,0,1-.47-.9,4.17,4.17,0,0,1-.11-.94c-.08-.63-.17-1.26-.3-1.89a.05.05,0,0,1,0-.05Z"/><path class="cls-39" d="M79.28,39.76a16.17,16.17,0,0,1,.88,3.74"/><path class="cls-19" d="M79.31,39.75a9.62,9.62,0,0,1,.81,1.79,2.89,2.89,0,0,1,.27.94,2.08,2.08,0,0,1-.19,1,0,0,0,0,1-.06,0h0a3.11,3.11,0,0,1-.47-.9,4.17,4.17,0,0,1-.11-.94c-.08-.63-.17-1.26-.3-1.89a.05.05,0,0,1,0-.05A.05.05,0,0,1,79.31,39.75Z"/><path class="cls-39" d="M81,39.76a16.79,16.79,0,0,1,.88,3.74"/><path class="cls-19" d="M81.07,39.75a9.62,9.62,0,0,1,.81,1.79,3.16,3.16,0,0,1,.27.94,2.08,2.08,0,0,1-.19,1,0,0,0,0,1-.06,0h0a2.89,2.89,0,0,1-.47-.9,4.17,4.17,0,0,1-.11-.94c-.08-.63-.17-1.26-.3-1.89a.05.05,0,0,1,0-.05Z"/><path class="cls-39" d="M82.87,39.76a16.79,16.79,0,0,1,.88,3.74"/><path class="cls-19" d="M82.9,39.75a9.62,9.62,0,0,1,.81,1.79,2.89,2.89,0,0,1,.27.94,2.08,2.08,0,0,1-.19,1,0,0,0,0,1-.06,0h0a3.11,3.11,0,0,1-.47-.9,4.17,4.17,0,0,1-.11-.94c-.08-.63-.17-1.26-.3-1.89a.05.05,0,0,1,0-.05Z"/><path class="cls-39" d="M84.63,39.76a16.48,16.48,0,0,1,.89,3.74"/><path class="cls-19" d="M84.67,39.75a9.62,9.62,0,0,1,.81,1.79,3.16,3.16,0,0,1,.27.94,2.21,2.21,0,0,1-.2,1,0,0,0,0,1-.06,0h0a2.69,2.69,0,0,1-.47-.9,3.67,3.67,0,0,1-.12-.94c-.07-.63-.17-1.26-.29-1.89,0,0,0,0,0-.05Z"/><path class="cls-39" d="M86.71,39.76a16.79,16.79,0,0,1,.88,3.74"/><path class="cls-19" d="M86.74,39.75a9.62,9.62,0,0,1,.81,1.79,2.89,2.89,0,0,1,.27.94,2.08,2.08,0,0,1-.19,1,0,0,0,0,1-.06,0h0a2.89,2.89,0,0,1-.47-.9,4.17,4.17,0,0,1-.11-.94c-.08-.63-.17-1.26-.3-1.89a.05.05,0,0,1,0-.05Z"/><path class="cls-39" d="M88.58,39.76a16.79,16.79,0,0,1,.88,3.74"/><path class="cls-19" d="M88.61,39.75a9.62,9.62,0,0,1,.81,1.79,2.89,2.89,0,0,1,.27.94,2.08,2.08,0,0,1-.19,1,0,0,0,0,1-.06,0h0a2.89,2.89,0,0,1-.47-.9,4.17,4.17,0,0,1-.11-.94c-.08-.63-.17-1.26-.3-1.89a.05.05,0,0,1,0-.05A.05.05,0,0,1,88.61,39.75Z"/><path class="cls-39" d="M90.33,39.76a16.48,16.48,0,0,1,.89,3.74"/><path class="cls-19" d="M90.37,39.75a9.62,9.62,0,0,1,.81,1.79,3.16,3.16,0,0,1,.27.94,2.34,2.34,0,0,1-.19,1,0,0,0,0,1-.06,0h0a2.89,2.89,0,0,1-.47-.9,4.17,4.17,0,0,1-.11-.94c-.08-.63-.17-1.26-.3-1.89,0,0,0,0,0-.05Z"/><path class="cls-39" d="M92.17,39.76a16.79,16.79,0,0,1,.88,3.74"/><path class="cls-19" d="M92.2,39.75A9.62,9.62,0,0,1,93,41.54a3.16,3.16,0,0,1,.27.94,2.08,2.08,0,0,1-.19,1,0,0,0,0,1-.06,0h0a2.89,2.89,0,0,1-.47-.9,4.17,4.17,0,0,1-.11-.94c-.08-.63-.17-1.26-.3-1.89a.05.05,0,0,1,0-.05A.05.05,0,0,1,92.2,39.75Z"/><path class="cls-39" d="M93.93,39.76a16.17,16.17,0,0,1,.88,3.74"/><path class="cls-19" d="M94,39.75a9.05,9.05,0,0,1,.82,1.79,2.87,2.87,0,0,1,.26.94,2.08,2.08,0,0,1-.19,1,0,0,0,0,1-.06,0h0a2.69,2.69,0,0,1-.47-.9,3.67,3.67,0,0,1-.12-.94q-.1-.95-.3-1.89a.05.05,0,0,1,0-.05Z"/><path class="cls-39" d="M95.81,39.76a16.48,16.48,0,0,1,.89,3.74"/><path class="cls-19" d="M95.85,39.75a9.62,9.62,0,0,1,.81,1.79,3.16,3.16,0,0,1,.27.94,2.34,2.34,0,0,1-.19,1,0,0,0,0,1-.06,0h0a2.89,2.89,0,0,1-.47-.9,4.17,4.17,0,0,1-.11-.94c-.08-.63-.17-1.26-.3-1.89,0,0,0,0,0-.05Z"/><path class="cls-39" d="M97.68,39.76a16.48,16.48,0,0,1,.89,3.74"/><path class="cls-19" d="M97.72,39.75a9.62,9.62,0,0,1,.81,1.79,3.16,3.16,0,0,1,.27.94,2.2,2.2,0,0,1-.19,1,0,0,0,0,1-.06,0h0a2.89,2.89,0,0,1-.47-.9,4.17,4.17,0,0,1-.11-.94c-.08-.63-.17-1.26-.3-1.89a.05.05,0,0,1,0-.05Z"/><path class="cls-39" d="M99.44,39.76a16.48,16.48,0,0,1,.89,3.74"/><path class="cls-19" d="M99.48,39.75a9.62,9.62,0,0,1,.81,1.79,3.16,3.16,0,0,1,.27.94,2.21,2.21,0,0,1-.2,1,0,0,0,0,1,0,0h0a2.69,2.69,0,0,1-.47-.9,4.84,4.84,0,0,1-.12-.94c-.07-.63-.17-1.26-.29-1.89,0,0,0,0,0-.05Z"/><path class="cls-39" d="M101.27,39.76a16.48,16.48,0,0,1,.89,3.74"/><path class="cls-19" d="M101.31,39.75a9.62,9.62,0,0,1,.81,1.79,3.16,3.16,0,0,1,.27.94,2.34,2.34,0,0,1-.19,1s0,0-.06,0h0a2.89,2.89,0,0,1-.47-.9,4.17,4.17,0,0,1-.11-.94c-.08-.63-.17-1.26-.3-1.89,0,0,0,0,0-.05Z"/><path class="cls-39" d="M103,39.76a16.17,16.17,0,0,1,.88,3.74"/><path class="cls-19" d="M103.07,39.75a9.62,9.62,0,0,1,.81,1.79,2.89,2.89,0,0,1,.27.94,2.08,2.08,0,0,1-.19,1,0,0,0,0,1-.06,0h0a3.11,3.11,0,0,1-.47-.9,4.17,4.17,0,0,1-.11-.94c-.08-.63-.17-1.26-.3-1.89a.05.05,0,0,1,0-.05Z"/><path class="cls-39" d="M105.11,39.76A16.48,16.48,0,0,1,106,43.5"/><path class="cls-19" d="M105.15,39.75a9.62,9.62,0,0,1,.81,1.79,3.16,3.16,0,0,1,.27.94,2.21,2.21,0,0,1-.2,1,0,0,0,0,1,0,0h0a2.69,2.69,0,0,1-.47-.9,4.84,4.84,0,0,1-.12-.94c-.07-.63-.17-1.26-.29-1.89,0,0,0,0,0-.05Z"/><path class="cls-39" d="M107,39.76a16.48,16.48,0,0,1,.89,3.74"/><path class="cls-19" d="M107,39.75a9.62,9.62,0,0,1,.81,1.79,3.16,3.16,0,0,1,.27.94,2.34,2.34,0,0,1-.19,1s0,0-.06,0h0a2.89,2.89,0,0,1-.47-.9,4.17,4.17,0,0,1-.11-.94q-.12-.95-.3-1.89s0,0,0-.05Z"/><path class="cls-39" d="M108.74,39.76a16.48,16.48,0,0,1,.89,3.74"/><path class="cls-19" d="M108.78,39.75a9.62,9.62,0,0,1,.81,1.79,3.16,3.16,0,0,1,.27.94,2.21,2.21,0,0,1-.2,1,0,0,0,0,1-.06,0h0a2.69,2.69,0,0,1-.47-.9,4.17,4.17,0,0,1-.12-.94c-.07-.63-.17-1.26-.29-1.89,0,0,0,0,0-.05Z"/><path class="cls-39" d="M110.57,39.76a16.48,16.48,0,0,1,.89,3.74"/><path class="cls-19" d="M110.61,39.75a9.62,9.62,0,0,1,.81,1.79,3.16,3.16,0,0,1,.27.94,2.21,2.21,0,0,1-.2,1,0,0,0,0,1,0,0h0a2.69,2.69,0,0,1-.47-.9,4.84,4.84,0,0,1-.12-.94c-.07-.63-.17-1.26-.29-1.89,0,0,0,0,0-.05Z"/><path class="cls-39" d="M112.34,39.76a16.79,16.79,0,0,1,.88,3.74"/><path class="cls-19" d="M112.37,39.75a9.62,9.62,0,0,1,.81,1.79,2.89,2.89,0,0,1,.27.94,2.08,2.08,0,0,1-.19,1,0,0,0,0,1-.06,0h0a2.89,2.89,0,0,1-.47-.9,4.17,4.17,0,0,1-.11-.94c-.08-.63-.17-1.26-.3-1.89a.05.05,0,0,1,0-.05Z"/><path class="cls-39" d="M113.91,39.76a16.79,16.79,0,0,1,.88,3.74"/><path class="cls-19" d="M113.94,39.75a9.62,9.62,0,0,1,.81,1.79,2.89,2.89,0,0,1,.27.94,2.08,2.08,0,0,1-.19,1,0,0,0,0,1-.06,0h0a2.89,2.89,0,0,1-.47-.9,4.17,4.17,0,0,1-.11-.94c-.08-.63-.17-1.26-.3-1.89a.05.05,0,0,1,0-.05Z"/><path class="cls-39" d="M115.78,39.76a16.79,16.79,0,0,1,.88,3.74"/><path class="cls-19" d="M115.81,39.75a9.62,9.62,0,0,1,.81,1.79,2.89,2.89,0,0,1,.27.94,2.08,2.08,0,0,1-.19,1,0,0,0,0,1-.06,0h0a2.89,2.89,0,0,1-.47-.9,4.17,4.17,0,0,1-.11-.94c-.08-.63-.17-1.26-.3-1.89a.05.05,0,0,1,0-.05A.05.05,0,0,1,115.81,39.75Z"/><path class="cls-39" d="M117.53,39.76a16.48,16.48,0,0,1,.89,3.74"/><path class="cls-19" d="M117.57,39.75a9.62,9.62,0,0,1,.81,1.79,3.16,3.16,0,0,1,.27.94,2.34,2.34,0,0,1-.19,1,0,0,0,0,1-.06,0h0a2.89,2.89,0,0,1-.47-.9,4.17,4.17,0,0,1-.11-.94c-.08-.63-.17-1.26-.3-1.89,0,0,0,0,0-.05Z"/><path class="cls-39" d="M119.37,39.76a16.79,16.79,0,0,1,.88,3.74"/><path class="cls-19" d="M119.4,39.75a9.62,9.62,0,0,1,.81,1.79,3.16,3.16,0,0,1,.27.94,2.08,2.08,0,0,1-.19,1,0,0,0,0,1-.06,0h0a2.89,2.89,0,0,1-.47-.9,4.17,4.17,0,0,1-.11-.94c-.08-.63-.17-1.26-.3-1.89a.05.05,0,0,1,0-.05Z"/><path class="cls-39" d="M121.13,39.76A16.17,16.17,0,0,1,122,43.5"/><path class="cls-19" d="M121.16,39.75a9.05,9.05,0,0,1,.82,1.79,2.87,2.87,0,0,1,.26.94,2.08,2.08,0,0,1-.19,1,0,0,0,0,1-.06,0h0a2.69,2.69,0,0,1-.47-.9,3.67,3.67,0,0,1-.12-.94q-.11-.95-.3-1.89a.05.05,0,0,1,0-.05Z"/><path class="cls-39" d="M123.2,39.76a16.48,16.48,0,0,1,.89,3.74"/><path class="cls-19" d="M123.24,39.75a9.62,9.62,0,0,1,.81,1.79,3.16,3.16,0,0,1,.27.94,2.2,2.2,0,0,1-.19,1,0,0,0,0,1-.06,0h0a2.89,2.89,0,0,1-.47-.9,4.17,4.17,0,0,1-.11-.94c-.08-.63-.17-1.26-.3-1.89a.05.05,0,0,1,0-.05Z"/><path class="cls-39" d="M125.08,39.76A16.79,16.79,0,0,1,126,43.5"/><path class="cls-19" d="M125.11,39.75a9.62,9.62,0,0,1,.81,1.79,3.16,3.16,0,0,1,.27.94,2.2,2.2,0,0,1-.19,1,0,0,0,0,1-.06,0h0a2.89,2.89,0,0,1-.47-.9,4.17,4.17,0,0,1-.11-.94c-.08-.63-.17-1.26-.3-1.89a.05.05,0,0,1,0-.05A.05.05,0,0,1,125.11,39.75Z"/><path class="cls-39" d="M126.83,39.76a16.48,16.48,0,0,1,.89,3.74"/><path class="cls-19" d="M126.87,39.75a9.62,9.62,0,0,1,.81,1.79,3.16,3.16,0,0,1,.27.94,2.21,2.21,0,0,1-.2,1,0,0,0,0,1,0,0h0a2.69,2.69,0,0,1-.47-.9,4.84,4.84,0,0,1-.12-.94c-.07-.63-.17-1.26-.29-1.89,0,0,0,0,0-.05Z"/><path class="cls-39" d="M128.66,39.76a16.48,16.48,0,0,1,.89,3.74"/><path class="cls-19" d="M128.7,39.75a9.62,9.62,0,0,1,.81,1.79,3.16,3.16,0,0,1,.27.94,2.34,2.34,0,0,1-.19,1,0,0,0,0,1-.06,0h0a2.89,2.89,0,0,1-.47-.9,4.17,4.17,0,0,1-.11-.94c-.08-.63-.17-1.26-.3-1.89,0,0,0,0,0-.05Z"/><path class="cls-39" d="M130.43,39.76a16.17,16.17,0,0,1,.88,3.74"/><path class="cls-19" d="M130.46,39.75a9.62,9.62,0,0,1,.81,1.79,2.66,2.66,0,0,1,.27.94,2.08,2.08,0,0,1-.19,1,0,0,0,0,1-.06,0h0a2.92,2.92,0,0,1-.48-.9,4.17,4.17,0,0,1-.11-.94c-.08-.63-.17-1.26-.3-1.89a.05.05,0,0,1,0-.05Z"/><path class="cls-19" d="M75.44,79.09c.84-.12,1.69-.22,2.53-.29a5.35,5.35,0,0,1,1.26-.09,3.57,3.57,0,0,1,1.26.38,0,0,0,0,1,0,.06l0,0a3.57,3.57,0,0,1-1.26.38A5.93,5.93,0,0,1,78,79.47c-.84-.08-1.69-.18-2.53-.3,0,0,0,0,0,0A0,0,0,0,1,75.44,79.09Z"/><path class="cls-19" d="M75.44,81.31c.84-.12,1.69-.21,2.53-.29a5.93,5.93,0,0,1,1.26-.08,3.36,3.36,0,0,1,1.26.37.07.07,0,0,1,0,.07s0,0,0,0a3.36,3.36,0,0,1-1.26.37A5.34,5.34,0,0,1,78,81.69c-.84-.07-1.69-.17-2.53-.29a.05.05,0,0,1,0-.05S75.43,81.32,75.44,81.31Z"/><path class="cls-19" d="M75.44,83.47c.84-.12,1.69-.22,2.53-.29a5.34,5.34,0,0,1,1.26-.08,3.36,3.36,0,0,1,1.26.37.06.06,0,0,1,0,.07s0,0,0,0a3.36,3.36,0,0,1-1.26.37A5.93,5.93,0,0,1,78,83.85c-.84-.08-1.69-.17-2.53-.29a.05.05,0,0,1,0,0A0,0,0,0,1,75.44,83.47Z"/><path class="cls-19" d="M75.44,85.7c.84-.12,1.69-.22,2.53-.3a5.93,5.93,0,0,1,1.26-.08,3.57,3.57,0,0,1,1.26.38,0,0,0,0,1,0,.06l0,0a3.57,3.57,0,0,1-1.26.38A5.35,5.35,0,0,1,78,86.07c-.84-.07-1.69-.17-2.53-.29,0,0,0,0,0,0A0,0,0,0,1,75.44,85.7Z"/><path class="cls-19" d="M75.44,88.13c.84-.12,1.69-.22,2.53-.29a4.86,4.86,0,0,1,1.26-.08,3.36,3.36,0,0,1,1.26.37.06.06,0,0,1,0,.07h0a3.57,3.57,0,0,1-1.26.38A5.93,5.93,0,0,1,78,88.51c-.84-.08-1.69-.17-2.53-.3,0,0,0,0,0,0A0,0,0,0,1,75.44,88.13Z"/><path class="cls-19" d="M75.44,90.36c.84-.12,1.69-.22,2.53-.3A5.93,5.93,0,0,1,79.23,90a3.57,3.57,0,0,1,1.26.38,0,0,0,0,1,0,.06l0,0a3.36,3.36,0,0,1-1.26.37A4.86,4.86,0,0,1,78,90.73c-.84-.07-1.69-.17-2.53-.29,0,0,0,0,0,0A0,0,0,0,1,75.44,90.36Z"/><path class="cls-19" d="M75.44,92.51c.84-.12,1.69-.21,2.53-.29a5.93,5.93,0,0,1,1.26-.08,3.36,3.36,0,0,1,1.26.37.07.07,0,0,1,0,.07l0,0a3.36,3.36,0,0,1-1.26.37A5.34,5.34,0,0,1,78,92.89c-.84-.07-1.69-.17-2.53-.29a.05.05,0,0,1,0,0S75.43,92.52,75.44,92.51Z"/><path class="cls-19" d="M75.44,94.74c.84-.12,1.69-.22,2.53-.29a5.35,5.35,0,0,1,1.26-.09,3.57,3.57,0,0,1,1.26.38,0,0,0,0,1,0,.06l0,0a3.57,3.57,0,0,1-1.26.38A5.35,5.35,0,0,1,78,95.11c-.84-.07-1.69-.17-2.53-.29,0,0,0,0,0,0A0,0,0,0,1,75.44,94.74Z"/><path class="cls-40" d="M30.34,101.62s-.53-.25-.46,3.27a6,6,0,0,0,.28,2.13C30.82,108.12,30.84,101.85,30.34,101.62Z"/><path class="cls-21" d="M71.79,110.83s-.82-.24-.72,3.27c0,.26,0,1.64.43,2.13C72.53,117.33,72.56,111.07,71.79,110.83Z"/><circle class="cls-41" cx="56.77" cy="22.45" r="0.18"/><circle class="cls-41" cx="56.77" cy="24.79" r="0.18"/><circle class="cls-41" cx="56.77" cy="27.13" r="0.18"/><circle class="cls-41" cx="56.77" cy="29.27" r="0.18"/><circle class="cls-41" cx="56.77" cy="31.55" r="0.18"/><circle class="cls-41" cx="56.77" cy="33.89" r="0.18"/><circle class="cls-41" cx="56.77" cy="36.23" r="0.18"/><circle class="cls-41" cx="56.77" cy="38.37" r="0.18"/><circle class="cls-41" cx="56.77" cy="40.7" r="0.18"/><circle class="cls-41" cx="56.77" cy="43.04" r="0.18"/><circle class="cls-41" cx="56.77" cy="45.38" r="0.18"/><circle class="cls-41" cx="56.77" cy="47.52" r="0.18"/><circle class="cls-41" cx="56.77" cy="49.8" r="0.18"/><circle class="cls-41" cx="56.77" cy="52.14" r="0.18"/><circle class="cls-41" cx="56.77" cy="54.48" r="0.18"/><circle class="cls-41" cx="56.77" cy="56.62" r="0.18"/><circle class="cls-41" cx="56.77" cy="56.62" r="0.18"/><circle class="cls-41" cx="56.77" cy="58.96" r="0.18"/><circle class="cls-41" cx="56.77" cy="61.3" r="0.18"/><circle class="cls-41" cx="56.77" cy="63.44" r="0.18"/><circle class="cls-41" cx="56.77" cy="65.72" r="0.18"/><circle class="cls-41" cx="56.77" cy="68.06" r="0.18"/><circle class="cls-41" cx="56.77" cy="70.4" r="0.18"/><circle class="cls-41" cx="56.77" cy="72.54" r="0.18"/><circle class="cls-41" cx="56.77" cy="74.88" r="0.18"/><circle class="cls-41" cx="56.77" cy="77.21" r="0.18"/><circle class="cls-41" cx="56.77" cy="79.55" r="0.18"/><circle class="cls-41" cx="56.77" cy="81.7" r="0.18"/><circle class="cls-41" cx="56.77" cy="83.98" r="0.18"/><circle class="cls-41" cx="56.77" cy="86.31" r="0.18"/><circle class="cls-41" cx="56.77" cy="88.65" r="0.18"/><circle class="cls-41" cx="56.77" cy="90.8" r="0.18"/><g class="cls-42"><g class="cls-43"><line class="cls-3" x1="126.15" y1="52.88" x2="126.15" y2="69.95"/><line class="cls-3" x1="125.05" y1="52.88" x2="125.05" y2="69.95"/><line class="cls-3" x1="124.11" y1="52.88" x2="124.11" y2="69.95"/><line class="cls-3" x1="122.96" y1="52.74" x2="122.96" y2="69.81"/><line class="cls-3" x1="121.91" y1="52.74" x2="121.91" y2="69.81"/><line class="cls-3" x1="120.81" y1="52.74" x2="120.81" y2="69.81"/><line class="cls-3" x1="119.87" y1="52.74" x2="119.87" y2="69.81"/><line class="cls-3" x1="118.72" y1="52.61" x2="118.72" y2="69.68"/><line class="cls-3" x1="117.74" y1="52.34" x2="117.74" y2="69.41"/><line class="cls-3" x1="116.64" y1="52.34" x2="116.64" y2="69.41"/><line class="cls-3" x1="115.7" y1="52.34" x2="115.7" y2="69.41"/><line class="cls-3" x1="114.55" y1="52.2" x2="114.55" y2="69.27"/><line class="cls-3" x1="113.5" y1="52.2" x2="113.5" y2="69.27"/><line class="cls-3" x1="112.4" y1="52.2" x2="112.4" y2="69.27"/><line class="cls-3" x1="111.46" y1="52.2" x2="111.46" y2="69.27"/><line class="cls-3" x1="110.31" y1="52.07" x2="110.31" y2="69.14"/><line class="cls-3" x1="109.24" y1="52.47" x2="109.24" y2="69.54"/><line class="cls-3" x1="108.13" y1="52.47" x2="108.13" y2="69.54"/><line class="cls-3" x1="107.19" y1="52.47" x2="107.19" y2="69.54"/><line class="cls-3" x1="106.05" y1="52.34" x2="106.05" y2="69.41"/><line class="cls-3" x1="104.99" y1="52.34" x2="104.99" y2="69.41"/><line class="cls-3" x1="103.89" y1="52.34" x2="103.89" y2="69.41"/><line class="cls-3" x1="102.95" y1="52.34" x2="102.95" y2="69.41"/><line class="cls-3" x1="101.8" y1="52.2" x2="101.8" y2="69.27"/><line class="cls-3" x1="100.82" y1="51.93" x2="100.82" y2="69"/><line class="cls-3" x1="99.72" y1="51.93" x2="99.72" y2="69"/><line class="cls-3" x1="98.78" y1="51.93" x2="98.78" y2="69"/><line class="cls-3" x1="97.63" y1="51.8" x2="97.63" y2="68.87"/><line class="cls-3" x1="96.58" y1="51.8" x2="96.58" y2="68.87"/><line class="cls-3" x1="95.48" y1="51.8" x2="95.48" y2="68.87"/><line class="cls-3" x1="94.54" y1="51.8" x2="94.54" y2="68.87"/><line class="cls-3" x1="93.39" y1="51.66" x2="93.39" y2="68.73"/><line class="cls-3" x1="92.47" y1="51.84" x2="92.47" y2="68.91"/><line class="cls-3" x1="91.37" y1="51.84" x2="91.37" y2="68.91"/><line class="cls-3" x1="90.43" y1="51.84" x2="90.43" y2="68.91"/><line class="cls-3" x1="89.28" y1="51.7" x2="89.28" y2="68.77"/><line class="cls-3" x1="88.23" y1="51.7" x2="88.23" y2="68.77"/><line class="cls-3" x1="87.12" y1="51.7" x2="87.12" y2="68.77"/><line class="cls-3" x1="86.19" y1="51.7" x2="86.19" y2="68.77"/><line class="cls-3" x1="85.04" y1="51.57" x2="85.04" y2="68.64"/><line class="cls-3" x1="82.95" y1="51.29" x2="82.95" y2="68.37"/><line class="cls-3" x1="82.02" y1="51.29" x2="82.02" y2="68.37"/><line class="cls-3" x1="80.87" y1="51.16" x2="80.87" y2="68.23"/><line class="cls-3" x1="79.81" y1="51.16" x2="79.81" y2="68.23"/><line class="cls-3" x1="78.71" y1="51.16" x2="78.71" y2="68.23"/><line class="cls-3" x1="77.77" y1="51.16" x2="77.77" y2="68.23"/><line class="cls-3" x1="76.62" y1="51.02" x2="76.62" y2="68.09"/></g><polygon class="cls-3" points="127.68 51.23 127.68 71.95 74.04 71.95 74.04 50.12 127.68 50.12 127.68 51.23"/></g><path class="cls-3" d="M77.67,50.91c.25-.11,6.12-.84,6.32,2s0,15.36,0,15.36S78.11,67,77.42,61.55,76.09,51.67,77.67,50.91Z"/><circle class="cls-39" cx="29.15" cy="42.41" r="23.09"/><circle class="cls-44" cx="29.15" cy="42.41" r="21.27"/><path class="cls-45" d="M24.78,56.31V28.68s13.81-2.41,14.29,6-4.66,9.31-20.08,9"/><line class="cls-45" x1="35.06" y1="49.09" x2="18.99" y2="49.09"/></svg>