<svg id="Layer_1" data-name="Layer 1" xmlns="http://www.w3.org/2000/svg" xmlns:xlink="http://www.w3.org/1999/xlink" viewBox="0 0 150 150"><defs><style>.cls-1,.cls-10,.cls-18,.cls-19,.cls-2,.cls-3,.cls-35,.cls-6,.cls-9{fill:none;}.cls-11,.cls-12,.cls-13,.cls-14,.cls-15,.cls-16,.cls-2,.cls-21,.cls-22,.cls-27,.cls-28,.cls-3,.cls-30,.cls-35,.cls-36,.cls-39,.cls-40,.cls-41,.cls-42,.cls-9{stroke:#ad1719;}.cls-10,.cls-12,.cls-13,.cls-17,.cls-18,.cls-19,.cls-2,.cls-20,.cls-21,.cls-22,.cls-23,.cls-24,.cls-25,.cls-26,.cls-27,.cls-28,.cls-29,.cls-3,.cls-30,.cls-35,.cls-36,.cls-39,.cls-40,.cls-41,.cls-42,.cls-5,.cls-6,.cls-7,.cls-9{stroke-miterlimit:10;}.cls-12,.cls-14,.cls-2,.cls-9{stroke-width:0.29px;}.cls-10,.cls-11,.cls-12,.cls-13,.cls-14,.cls-15,.cls-16,.cls-17,.cls-18,.cls-20,.cls-21,.cls-22,.cls-23,.cls-24,.cls-25,.cls-26,.cls-27,.cls-28,.cls-29,.cls-3,.cls-30,.cls-35,.cls-36,.cls-39,.cls-4,.cls-40,.cls-41,.cls-42,.cls-5,.cls-6,.cls-7,.cls-8,.cls-9{stroke-linecap:round;}.cls-3{stroke-width:0.13px;}.cls-11,.cls-12,.cls-13,.cls-14,.cls-15,.cls-16,.cls-17,.cls-20,.cls-21,.cls-22,.cls-23,.cls-24,.cls-25,.cls-26,.cls-27,.cls-28,.cls-29,.cls-30,.cls-36,.cls-37,.cls-39,.cls-4,.cls-40,.cls-41,.cls-42,.cls-5,.cls-7,.cls-8{fill:#fff;}.cls-10,.cls-17,.cls-18,.cls-20,.cls-23,.cls-24,.cls-25,.cls-26,.cls-4,.cls-5,.cls-6,.cls-7{stroke:#1d1d1b;}.cls-11,.cls-14,.cls-15,.cls-16,.cls-4,.cls-8{stroke-linejoin:round;}.cls-4{stroke-width:1.72px;}.cls-10,.cls-5{stroke-width:0.28px;}.cls-6{stroke-width:0.14px;}.cls-7{stroke-width:0.15px;}.cls-19,.cls-29,.cls-8{stroke:#000;}.cls-8{stroke-width:0.32px;}.cls-11,.cls-13,.cls-29,.cls-35{stroke-width:0.57px;}.cls-15{stroke-width:0.28px;}.cls-16{stroke-width:0.28px;}.cls-17{stroke-width:0.27px;}.cls-18{stroke-width:0.14px;}.cls-19{stroke-width:0.5px;}.cls-20{stroke-width:0.28px;}.cls-21{stroke-width:0.14px;}.cls-22{stroke-width:0.17px;}.cls-23{stroke-width:0.28px;}.cls-24{stroke-width:0.28px;}.cls-25{stroke-width:0.27px;}.cls-26{stroke-width:0.27px;}.cls-27{stroke-width:0.12px;}.cls-28{stroke-width:0.41px;}.cls-30{stroke-width:0.28px;}.cls-31{clip-path:url(#clip-path);}.cls-32{clip-path:url(#clip-path-2);}.cls-33{clip-path:url(#clip-path-3);}.cls-34{clip-path:url(#clip-path-4);}.cls-36{stroke-width:0.51px;}.cls-38{fill:#ad1719;}.cls-39{stroke-width:0.21px;}.cls-40{stroke-width:0.25px;}.cls-41{stroke-width:1.25px;}.cls-42{stroke-width:1.63px;}</style><clipPath id="clip-path"><path class="cls-1" d="M93,51.87h36.17a5.24,5.24,0,0,1,3.17,1c1.24.94,2.5,2.73,2.58,6.19.16,6.92,1.78,10-1.73,10.49S90,69.81,90,69.81s-2.51.77-2.41-4.2c0-2.26,0-5.31-.16-8A5.55,5.55,0,0,1,93,51.87Z"/></clipPath><clipPath id="clip-path-2"><polygon class="cls-2" points="125.22 50.41 125.22 72.44 72.79 72.44 72.79 49.23 125.22 49.23 125.22 50.41"/></clipPath><clipPath id="clip-path-3"><path class="cls-3" d="M78.11,51.81c.25-.11,6.12-.84,6.32,2s0,15.36,0,15.36-5.88-1.27-6.57-6.76S76.52,52.56,78.11,51.81Z"/></clipPath><clipPath id="clip-path-4"><polygon class="cls-3" points="128.12 52.13 128.12 72.85 74.48 72.85 74.48 51.02 128.12 51.02 128.12 52.13"/></clipPath></defs><path class="cls-4" d="M146.77,68.28c0-2.08-.76-2.8-1.69-3l0-1.61c1.05,0,1.56,0,1.65-1.42.1-1.7.24-5.1-1-5.1H145v-.18a.88.88,0,0,0,0-.16c-.09-.37.75-4.62-7.88-3.94a7.66,7.66,0,0,0-2.74-4c0-.57-.06-1.57-.13-3.33a8,8,0,0,0-3.46-6.76c-1.22-.91-5.11-1.6-6.81-2-.4-.09-2.41-.16-5.32-.22a6.65,6.65,0,0,0,.86-4.48c-.4-3.14-3.79-4-5.33-4.23V25L58.48,21.47,3.23,48.62l.52,42.82v8.87h4l-.3,4,4.55.3v.31c0,.6-.13,3.82,1.84,5a1.93,1.93,0,0,0,.82.29h5.08a4.2,4.2,0,0,0,1.78,2.4,2.45,2.45,0,0,0,1,.36h.18a1.08,1.08,0,0,0,.18,0h4.59a3.71,3.71,0,0,0,1,.83,2.89,2.89,0,0,0,.71.31v.06h.21a2,2,0,0,0,.82,0L35,114s2.87-2,3-8.34l1.92.42V107l7.38,2.32a36.74,36.74,0,0,0,0,4c0,1-.23,6.47,3.1,8.42a3.15,3.15,0,0,0,1.8.49v0l6.24-.15s1.57-1.26,2.5-4.84c2,.47,4.48,1,5.76,1.21-.13,2.67-.23,4.77-.23,4.77h3.43A7.71,7.71,0,0,0,73.2,128a4,4,0,0,0,2.29.62v0l9.2-.18s2.91-2,4.13-8c7.19.06,20.12,0,31.37,0,.37,2.47,1.29,5.3,3.6,6.72a3.87,3.87,0,0,0,2.25.65v0l7.81-.19s2.22-1.89,3.34-7.32l4.29,0s1.47-.32,1.52-2.5a42.41,42.41,0,0,0-.18-4.31l.05-.06c.81-1.2,0-13,0-13a3.08,3.08,0,0,0-2.63-3.34V94.6a3,3,0,0,0,1.1-.16,1.48,1.48,0,0,0,.64-1.26c0-.52,0-8,0-8l-1.85-6.45V74.81l-.06-.49,1.58-.14a3.47,3.47,0,0,0,3.48-3.51A2.2,2.2,0,0,0,146.77,68.28Zm-6.83,5.09-2.71-19.54c7.28-.1,6.48,2.84,6.48,3.32a1.09,1.09,0,0,0-1,.86c-.16,1.09,0,5.17,0,5.17s0,.41,1,.48q0,.87,0,1.74a2.48,2.48,0,0,0-1.06,2.32,4.28,4.28,0,0,0,1.53,3.07C143.9,72.7,141.68,73.4,139.94,73.37Z"/><polygon class="cls-5" points="15.37 91.68 11.95 95.75 14.25 99.3 37.81 99.51 37.3 91.68 15.37 91.68"/><path class="cls-5" d="M29.16,114.16,35,114s3.63-2.51,2.88-10.9-8.55-6.57-8.55-6.57"/><polyline class="cls-5" points="14.64 110.2 21.49 110.2 21.49 97.3 15.06 97.3"/><path class="cls-5" d="M66.24,93.48s-5,2.35-7.06,3.71a5.51,5.51,0,0,0-2.44,3.23l.18,5.71,14.76,1.19s7.22-11.39,7.1-11.72S66.24,93.48,66.24,93.48Z"/><path class="cls-5" d="M126,127.81l7.81-.19s4.84-4.07,3.83-17.63S126.3,99.36,126.3,99.36"/><path class="cls-5" d="M126.41,99.12s-7.47-1.27-6.51,16.95c.07,1.34-.28,8.5,3.89,11.07C133,132.82,133.36,100.33,126.41,99.12Z"/><line class="cls-6" x1="128.18" y1="126.88" x2="134.51" y2="126.88"/><line class="cls-6" x1="128.49" y1="126.2" x2="134.82" y2="126.2"/><line class="cls-6" x1="128.94" y1="125.45" x2="135.28" y2="125.45"/><line class="cls-6" x1="129.43" y1="124.67" x2="135.76" y2="124.67"/><line class="cls-6" x1="129.79" y1="123.93" x2="136.12" y2="123.93"/><line class="cls-6" x1="130.01" y1="123.14" x2="136.34" y2="123.14"/><line class="cls-6" x1="130.2" y1="122.34" x2="136.53" y2="122.34"/><line class="cls-6" x1="130.37" y1="121.71" x2="136.7" y2="121.71"/><line class="cls-7" x1="108.92" y1="89.69" x2="108.92" y2="92.26"/><line class="cls-7" x1="109.49" y1="89.69" x2="109.49" y2="92.26"/><line class="cls-7" x1="110.03" y1="89.69" x2="110.03" y2="92.26"/><line class="cls-7" x1="110.52" y1="89.69" x2="110.52" y2="92.26"/><line class="cls-7" x1="111" y1="89.69" x2="111" y2="92.26"/><polygon class="cls-7" points="111.63 89.69 111.63 92.26 59.46 92.34 59.46 30.09 111.97 30.97 111.42 42.66 111.63 89.69"/><line class="cls-7" x1="112.32" y1="89.69" x2="112.32" y2="92.26"/><line class="cls-7" x1="112.92" y1="89.69" x2="112.92" y2="92.26"/><line class="cls-7" x1="113.5" y1="89.69" x2="113.5" y2="92.26"/><line class="cls-7" x1="114.02" y1="89.69" x2="114.02" y2="92.26"/><line class="cls-7" x1="114.71" y1="89.77" x2="114.71" y2="92.34"/><line class="cls-7" x1="115.27" y1="89.77" x2="115.27" y2="92.34"/><line class="cls-7" x1="115.82" y1="89.77" x2="115.82" y2="92.34"/><line class="cls-7" x1="116.3" y1="89.77" x2="116.3" y2="92.34"/><line class="cls-7" x1="116.79" y1="89.77" x2="116.79" y2="92.34"/><line class="cls-7" x1="117.42" y1="89.77" x2="117.42" y2="92.34"/><line class="cls-7" x1="118.11" y1="89.77" x2="118.11" y2="92.34"/><line class="cls-7" x1="118.71" y1="89.77" x2="118.71" y2="92.34"/><line class="cls-7" x1="119.29" y1="89.77" x2="119.29" y2="92.34"/><line class="cls-7" x1="119.81" y1="89.77" x2="119.81" y2="92.34"/><line class="cls-7" x1="120.44" y1="89.77" x2="120.44" y2="92.34"/><line class="cls-7" x1="121.16" y1="89.77" x2="121.16" y2="92.34"/><path class="cls-5" d="M75.49,128.65l9.2-.18s5.7-4,4.51-17.1-13.4-10.31-13.4-10.31"/><polygon class="cls-5" points="3.75 91.44 3.75 100.31 7.75 100.31 10.79 96.23 13.98 88.41 3.75 91.44"/><line class="cls-6" x1="15.6" y1="109.99" x2="20.1" y2="109.99"/><line class="cls-6" x1="15.95" y1="109.53" x2="20.45" y2="109.53"/><line class="cls-6" x1="16.27" y1="109.02" x2="20.77" y2="109.02"/><line class="cls-6" x1="16.5" y1="108.5" x2="21" y2="108.5"/><line class="cls-6" x1="16.72" y1="107.99" x2="21.22" y2="107.99"/><line class="cls-6" x1="16.92" y1="107.46" x2="21.42" y2="107.46"/><line class="cls-6" x1="17.16" y1="106.92" x2="21.66" y2="106.92"/><line class="cls-6" x1="17.16" y1="106.39" x2="21.66" y2="106.39"/><line class="cls-6" x1="17.29" y1="105.9" x2="21.79" y2="105.9"/><line class="cls-6" x1="17.41" y1="105.3" x2="21.91" y2="105.3"/><line class="cls-6" x1="17.49" y1="104.62" x2="21.99" y2="104.62"/><line class="cls-6" x1="17.49" y1="104.1" x2="21.99" y2="104.1"/><line class="cls-6" x1="17.49" y1="103.48" x2="21.99" y2="103.48"/><line class="cls-6" x1="17.41" y1="102.84" x2="21.91" y2="102.84"/><line class="cls-6" x1="17.43" y1="102.3" x2="21.93" y2="102.3"/><line class="cls-6" x1="17.27" y1="101.62" x2="21.77" y2="101.62"/><line class="cls-6" x1="17.25" y1="101.1" x2="21.75" y2="101.1"/><line class="cls-6" x1="17.05" y1="100.52" x2="21.55" y2="100.52"/><line class="cls-6" x1="17.05" y1="99.92" x2="21.55" y2="99.92"/><line class="cls-6" x1="16.81" y1="99.32" x2="21.31" y2="99.32"/><line class="cls-6" x1="16.61" y1="98.79" x2="21.11" y2="98.79"/><line class="cls-6" x1="16.39" y1="98.35" x2="20.89" y2="98.35"/><line class="cls-6" x1="16.12" y1="97.87" x2="20.62" y2="97.87"/><polygon class="cls-8" points="3.45 48.49 58.71 21.35 58.71 93.85 3.98 92.46 3.45 48.49"/><line class="cls-9" x1="61.08" y1="57.03" x2="75.46" y2="42.66"/><line class="cls-9" x1="61.02" y1="55.19" x2="75.39" y2="40.81"/><line class="cls-9" x1="60.51" y1="53.12" x2="74.88" y2="38.75"/><line class="cls-9" x1="60.27" y1="50.96" x2="74.64" y2="36.59"/><line class="cls-9" x1="59.91" y1="49.01" x2="74.28" y2="34.63"/><line class="cls-9" x1="59.91" y1="47.39" x2="74.28" y2="33.02"/><line class="cls-9" x1="59.46" y1="45.93" x2="73.83" y2="31.56"/><line class="cls-9" x1="59.11" y1="44.46" x2="73.48" y2="30.09"/><line class="cls-9" x1="59.75" y1="41.43" x2="74.12" y2="27.05"/><line class="cls-9" x1="61.26" y1="75.88" x2="75.63" y2="61.51"/><line class="cls-9" x1="61.19" y1="74.04" x2="75.56" y2="59.66"/><line class="cls-9" x1="60.68" y1="71.97" x2="75.05" y2="57.6"/><line class="cls-9" x1="60.44" y1="69.81" x2="74.81" y2="55.44"/><line class="cls-9" x1="60.09" y1="67.86" x2="74.46" y2="53.48"/><line class="cls-9" x1="60.09" y1="66.24" x2="74.46" y2="51.87"/><line class="cls-9" x1="59.64" y1="64.78" x2="74.01" y2="50.41"/><line class="cls-9" x1="59.28" y1="63.31" x2="73.65" y2="48.94"/><line class="cls-9" x1="59.92" y1="60.28" x2="74.29" y2="45.9"/><line class="cls-9" x1="62.48" y1="94.05" x2="76.86" y2="79.68"/><line class="cls-9" x1="62.42" y1="92.2" x2="76.79" y2="77.83"/><line class="cls-9" x1="61.91" y1="90.14" x2="76.28" y2="75.77"/><line class="cls-9" x1="61.67" y1="87.98" x2="76.04" y2="73.61"/><line class="cls-9" x1="61.31" y1="86.03" x2="75.69" y2="71.65"/><line class="cls-9" x1="61.31" y1="84.41" x2="75.69" y2="70.04"/><line class="cls-9" x1="60.86" y1="82.95" x2="75.24" y2="68.58"/><line class="cls-9" x1="60.51" y1="81.48" x2="74.88" y2="67.11"/><line class="cls-9" x1="61.15" y1="78.44" x2="75.52" y2="64.07"/><polygon class="cls-10" points="112.67 28.5 61.59 25.09 61.59 90.78 68.2 90.78 112.67 28.5"/><polygon class="cls-11" points="58.48 21.47 58.48 93.97 94.63 93.97 95.6 90.78 61.49 90.78 61.49 34.81 112.59 35.09 114.16 29.93 114.16 24.98 58.48 21.47"/><path class="cls-12" d="M117.49,37.8s2.51-1.68,2-5.75-6.08-4.31-6.08-4.31l-52.83-3.6V36.59Z"/><path class="cls-13" d="M80.51,34.39a2.7,2.7,0,0,1,1.85-.86l33,.45s1,.26,1.14.9"/><polygon class="cls-14" points="94.2 32.92 94.14 36.85 105.96 37.04 106.02 33.11 95.6 32.95 94.2 32.92"/><line class="cls-14" x1="104.8" y1="37.02" x2="104.86" y2="33.09"/><line class="cls-14" x1="95.56" y1="36.88" x2="95.62" y2="32.95"/><line class="cls-15" x1="97.53" y1="36.8" x2="97.59" y2="33.11"/><line class="cls-16" x1="99.22" y1="36.83" x2="99.28" y2="33.12"/><line class="cls-14" x1="100.73" y1="36.96" x2="100.79" y2="33.03"/><line class="cls-14" x1="102.07" y1="36.98" x2="102.13" y2="33.05"/><line class="cls-14" x1="103.44" y1="37" x2="103.5" y2="33.07"/><polyline class="cls-17" points="22.53 112.96 30.24 112.96 30.24 96.93 23 96.93"/><path class="cls-5" d="M52.21,122.26l6.24-.15s3.87-3.09,3.06-13.4-9.09-8.08-9.09-8.08"/><polygon class="cls-5" points="14.64 97.84 7.91 97.79 7.43 104.33 14.64 104.8 14.64 97.84"/><line class="cls-6" x1="77.72" y1="127.51" x2="85.8" y2="127.51"/><line class="cls-6" x1="78.23" y1="126.7" x2="86.2" y2="126.7"/><line class="cls-6" x1="78.73" y1="125.78" x2="86.78" y2="125.78"/><line class="cls-6" x1="79.32" y1="124.84" x2="87.39" y2="124.84"/><line class="cls-6" x1="79.62" y1="123.94" x2="87.85" y2="123.94"/><line class="cls-6" x1="79.93" y1="122.98" x2="88.13" y2="122.98"/><line class="cls-6" x1="80.13" y1="122.01" x2="88.37" y2="122.01"/><line class="cls-6" x1="80.3" y1="121.25" x2="88.61" y2="121.25"/><line class="cls-6" x1="53.99" y1="121.32" x2="59.11" y2="121.32"/><line class="cls-6" x1="54.24" y1="120.8" x2="59.36" y2="120.8"/><line class="cls-6" x1="54.61" y1="120.22" x2="59.73" y2="120.22"/><line class="cls-6" x1="55" y1="119.63" x2="60.12" y2="119.63"/><line class="cls-6" x1="55.29" y1="119.06" x2="60.41" y2="119.06"/><line class="cls-6" x1="55.47" y1="118.45" x2="60.59" y2="118.45"/><line class="cls-6" x1="55.62" y1="117.83" x2="60.75" y2="117.83"/><line class="cls-6" x1="55.76" y1="117.35" x2="60.88" y2="117.35"/><line class="cls-6" x1="55.76" y1="116.63" x2="60.88" y2="116.63"/><line class="cls-6" x1="55.95" y1="115.98" x2="61.07" y2="115.98"/><line class="cls-6" x1="53.49" y1="121.77" x2="58.61" y2="121.77"/><line class="cls-18" x1="30.81" y1="113.45" x2="35.79" y2="113.45"/><line class="cls-18" x1="31.2" y1="112.94" x2="36.18" y2="112.94"/><line class="cls-18" x1="31.56" y1="112.36" x2="36.54" y2="112.36"/><line class="cls-18" x1="31.81" y1="111.78" x2="36.79" y2="111.78"/><line class="cls-18" x1="32.05" y1="111.21" x2="37.03" y2="111.21"/><line class="cls-18" x1="32.28" y1="110.61" x2="37.25" y2="110.61"/><line class="cls-18" x1="32.54" y1="110" x2="37.52" y2="110"/><line class="cls-18" x1="32.54" y1="109.41" x2="37.52" y2="109.41"/><line class="cls-18" x1="32.68" y1="108.85" x2="37.66" y2="108.85"/><line class="cls-18" x1="32.81" y1="108.18" x2="37.79" y2="108.18"/><line class="cls-18" x1="32.9" y1="107.42" x2="37.88" y2="107.42"/><line class="cls-18" x1="32.9" y1="106.83" x2="37.88" y2="106.83"/><line class="cls-18" x1="32.9" y1="106.14" x2="37.88" y2="106.14"/><line class="cls-18" x1="33.02" y1="105.42" x2="38" y2="105.42"/><line class="cls-18" x1="33.02" y1="104.8" x2="38" y2="104.8"/><line class="cls-18" x1="32.9" y1="104.05" x2="37.88" y2="104.05"/><line class="cls-18" x1="32.9" y1="103.46" x2="37.88" y2="103.46"/><line class="cls-18" x1="32.9" y1="102.81" x2="37.88" y2="102.81"/><line class="cls-18" x1="32.71" y1="102.13" x2="37.69" y2="102.13"/><line class="cls-18" x1="32.59" y1="101.48" x2="37.57" y2="101.48"/><line class="cls-18" x1="32.5" y1="101.04" x2="37.48" y2="101.04"/><line class="cls-18" x1="32.37" y1="100.47" x2="37.35" y2="100.47"/><line class="cls-18" x1="32.31" y1="99.87" x2="37.29" y2="99.87"/><line class="cls-6" x1="23.94" y1="112.51" x2="29.45" y2="112.31"/><line class="cls-6" x1="24.35" y1="111.93" x2="29.86" y2="111.73"/><line class="cls-6" x1="24.72" y1="111.29" x2="30.24" y2="111.09"/><line class="cls-6" x1="24.98" y1="110.64" x2="30.49" y2="110.44"/><line class="cls-6" x1="25.23" y1="110.02" x2="30.74" y2="109.82"/><line class="cls-6" x1="25.45" y1="109.35" x2="30.96" y2="109.15"/><line class="cls-6" x1="25.53" y1="108.67" x2="31.05" y2="108.47"/><line class="cls-6" x1="25.7" y1="108.03" x2="31.21" y2="107.83"/><line class="cls-6" x1="25.83" y1="107.42" x2="31.34" y2="107.22"/><line class="cls-6" x1="25.95" y1="106.69" x2="31.46" y2="106.48"/><line class="cls-6" x1="26.02" y1="105.85" x2="31.53" y2="105.65"/><line class="cls-6" x1="25.99" y1="105.21" x2="31.51" y2="105.01"/><line class="cls-6" x1="25.97" y1="104.45" x2="31.48" y2="104.25"/><line class="cls-6" x1="25.84" y1="103.67" x2="31.36" y2="103.47"/><line class="cls-6" x1="25.84" y1="103.01" x2="31.36" y2="102.81"/><line class="cls-6" x1="25.61" y1="102.19" x2="31.13" y2="101.99"/><line class="cls-6" x1="25.57" y1="101.55" x2="31.08" y2="101.35"/><line class="cls-6" x1="25.29" y1="100.85" x2="30.8" y2="100.65"/><line class="cls-6" x1="25.26" y1="100.11" x2="30.78" y2="99.91"/><line class="cls-6" x1="24.95" y1="99.38" x2="30.46" y2="99.18"/><line class="cls-6" x1="24.67" y1="98.75" x2="30.19" y2="98.55"/><line class="cls-6" x1="24.39" y1="98.22" x2="29.9" y2="98.01"/><line class="cls-6" x1="24.04" y1="97.64" x2="29.55" y2="97.44"/><polygon class="cls-19" points="56.19 90.44 56.19 24.75 5.08 49.51 5.88 90.44 56.19 90.44"/><path class="cls-20" d="M23,96.94s-4.34-.71-3.79,9.48c0,.74-.16,4.75,2.27,6.18C26.88,115.78,27.07,97.62,23,96.94Z"/><path class="cls-12" d="M22.69,99.22s-2.33-.5-2,6.61c0,.52-.09,3.31,1.21,4.31C24.75,112.36,24.86,99.69,22.69,99.22Z"/><path class="cls-12" d="M22.91,99.22s-2-.5-1.74,6.61c0,.52-.08,3.31,1,4.31C24.67,112.36,24.76,99.69,22.91,99.22Z"/><path class="cls-12" d="M23.68,100.46c-.26,0-1.49.21-1.31,5.21,0,.41-.06,2.61.82,3.4a.56.56,0,0,0,.5.19A19.51,19.51,0,0,0,23.68,100.46Z"/><path class="cls-5" d="M15.06,97.31s-3.53-.57-3.08,7.63c0,.6-.13,3.82,1.84,5C18.19,112.47,18.35,97.86,15.06,97.31Z"/><path class="cls-12" d="M14.86,99.91s-1.13-.34-1,4.45c0,.35,0,2.24.59,2.91C15.86,108.77,15.91,100.22,14.86,99.91Z"/><path class="cls-21" d="M15.08,101.81s-.56-.16-.49,2.2c0,.18,0,1.11.29,1.44C15.57,106.19,15.6,102,15.08,101.81Z"/><path class="cls-22" d="M23.7,102.59s-.66-.2-.58,2.62c0,.21,0,1.31.35,1.71C24.29,107.8,24.32,102.78,23.7,102.59Z"/><path class="cls-21" d="M30.81,103.55s-.56-.16-.49,2.21c0,.17,0,1.1.29,1.44C31.3,107.93,31.32,103.71,30.81,103.55Z"/><path class="cls-23" d="M30.12,96.49S25.35,95.7,26,107c.05.82-.18,5.25,2.49,6.83C34.36,117.3,34.57,97.24,30.12,96.49Z"/><path class="cls-12" d="M29.61,99.6s-2.37-.5-2.07,6.74c0,.53-.09,3.38,1.24,4.4C31.71,113,31.82,100.08,29.61,99.6Z"/><path class="cls-12" d="M29.83,99.6s-2-.5-1.77,6.74c0,.53-.08,3.38,1.06,4.4C31.63,113,31.72,100.08,29.83,99.6Z"/><path class="cls-12" d="M30.63,100.87c-.28,0-1.53.22-1.34,5.31,0,.42-.07,2.67.83,3.47a.6.6,0,0,0,.51.2A20,20,0,0,0,30.63,100.87Z"/><polygon class="cls-5" points="33.58 94.77 33.89 104.8 42.03 106.59 42.03 95.04 33.58 94.77"/><path class="cls-24" d="M44.8,97.42s-3.74-1.21-3.49,3.45"/><path class="cls-24" d="M47.72,97.19s-5-1-4.35,3.56"/><path class="cls-24" d="M50,97s-4.77-.85-4.26,3.91"/><path class="cls-24" d="M51.55,96.76s-4.22-.05-3.8,4.6"/><polygon class="cls-5" points="48.8 100.31 39.91 99.93 39.91 106.96 48.53 109.67 48.8 100.31"/><polygon class="cls-5" points="45.71 103.02 45.71 106.27 41.18 105.3 41.18 102.38 45.71 103.02"/><path class="cls-5" d="M52.51,100.44s-6-1-5.2,12.89c0,1-.23,6.47,3.1,8.42C57.79,126.07,58.07,101.36,52.51,100.44Z"/><path class="cls-5" d="M69.61,102.38c-.27-.26-13.26-1.06-13.26-1.06a12,12,0,0,0-1.59,8.36c.69,5.27,2,6.34,2.76,6.71s9.48,2.23,10.07,2.23,4.09-3.46,4.09-3.46Z"/><path class="cls-12" d="M51.75,104.81s-2.69-.57-2.34,7.64c0,.6-.11,3.83,1.4,5C54.13,120,54.25,105.36,51.75,104.81Z"/><path class="cls-12" d="M52,104.81s-2.3-.57-2,7.64c0,.6-.08,3.83,1.2,5C54,120,54.14,105.36,52,104.81Z"/><path class="cls-12" d="M52.9,106.25c-.31,0-1.73.25-1.52,6,0,.47-.07,3,.94,3.93a.68.68,0,0,0,.59.22A22.68,22.68,0,0,0,52.9,106.25Z"/><path class="cls-25" d="M66.48,102.08c.12,0-6.51.24-2.51,15.59"/><path class="cls-26" d="M62.68,101.77c.12,0-6.5.23-2.51,15.25"/><path class="cls-5" d="M78.15,103.21l-6.2,20H66.48s.71-14.69.74-15.92a29.87,29.87,0,0,1,.32-4.21,9.34,9.34,0,0,1,3.3-5.83,4.22,4.22,0,0,1,.55-.42C74.51,95.2,77.71,98,78.15,103.21Z"/><path class="cls-5" d="M75.87,100.82s-7.61-1.23-6.63,16.45c.07,1.29-.29,8.25,4,10.74C82.62,133.52,83,102,75.87,100.82Z"/><path class="cls-12" d="M75.2,106.31s-3.34-.75-2.92,10c0,.78-.12,5,1.75,6.5C78.16,126.11,78.31,107,75.2,106.31Z"/><path class="cls-12" d="M74.45,107.74s-2.81-.62-2.45,8.37c0,.65-.11,4.19,1.46,5.46C76.93,124.37,77.06,108.34,74.45,107.74Z"/><path class="cls-12" d="M72.55,108.72s-2.58-.51-2.25,6.83c0,.53-.1,3.42,1.35,4.45C74.85,122.29,75,109.21,72.55,108.72Z"/><path class="cls-13" d="M86.32,102.08l-8.84-.37,1.38,17.93a.94.94,0,0,0,.93.86H88Z"/><path class="cls-27" d="M146.77,68.28c0-2.08-.76-2.8-1.69-3l0-1.61c1.05,0,1.56,0,1.65-1.42.1-1.7.24-5.1-1-5.1H145v-.18a.88.88,0,0,0,0-.16c-.09-.39.85-5-9.12-3.83h-.09c-.59.11-7,1.3.25.91,8.61-.47,7.7,2.77,7.7,3.28a1.09,1.09,0,0,0-1,.86c-.16,1.09,0,5.17,0,5.17s0,.41,1,.48q0,.87,0,1.74a2.48,2.48,0,0,0-1.06,2.32,4.28,4.28,0,0,0,1.53,3.07c-.38,2.65-4.48,3-5.89,2.24-.29-.15-.62.2-.7.52h0a.68.68,0,0,0,.65.86,33.3,33.3,0,0,0,3.42-.23,3.47,3.47,0,0,0,3.48-3.51A2.2,2.2,0,0,0,146.77,68.28Z"/><path class="cls-12" d="M68.7,49.58a25.18,25.18,0,0,1-.48-4.26,22,22,0,0,1,1.11-4.58,9,9,0,0,1,3.14-2.87,40,40,0,0,1,12.19-1.66c6.23.11,37.59.16,39.29.54s5.59,1.06,6.81,2a8,8,0,0,1,3.46,6.76l.16,4.1s-14.21-1.6-48-1.41c-1.63,0-5,.2-6.51.31s-9.5,1.8-9.94,1.92S68.7,49.58,68.7,49.58Z"/><path class="cls-13" d="M142,85.14l-1.85-6.45V74.81l-3-21.93s-1-4.15-4.95-5.06-29.1-.43-29.1-.43-29.41-.64-31.82,1a6,6,0,0,0-2.53,6c.39,3.11,1,30.58,1,30.58s-2.57,1.19-2.57,2.74V99.18h1.69l1.78-2a2.85,2.85,0,0,1,1.51-.77h0a6,6,0,0,1,2.25.5c2.33,1,3.16,6.14,3.26,6.27s5.84.28,6.21.2,56.43,0,56.43,0V94.6a3,3,0,0,0,1.1-.16,1.48,1.48,0,0,0,.64-1.26C141.94,92.66,142,85.14,142,85.14Z"/><path class="cls-13" d="M97.12,89.82s1.17,2.27,2.18,2.38,29.23,0,29.23,0a2.94,2.94,0,0,0,2.55-1.9l.28-.61Z"/><path class="cls-13" d="M94.33,85.49s1.35,2.61,2.51,2.74,33.64,0,33.64,0A3.39,3.39,0,0,0,133.42,86l.32-.71Z"/><line class="cls-28" x1="99.1" y1="85.33" x2="99.1" y2="88.2"/><line class="cls-28" x1="100.47" y1="85.33" x2="100.47" y2="88.2"/><line class="cls-28" x1="101.78" y1="85.33" x2="101.78" y2="88.2"/><line class="cls-28" x1="102.95" y1="85.33" x2="102.95" y2="88.2"/><line class="cls-28" x1="104.12" y1="85.33" x2="104.12" y2="88.2"/><line class="cls-28" x1="105.62" y1="85.33" x2="105.62" y2="88.2"/><line class="cls-28" x1="107.29" y1="85.33" x2="107.29" y2="88.2"/><line class="cls-28" x1="108.74" y1="85.33" x2="108.74" y2="88.2"/><line class="cls-28" x1="110.13" y1="85.33" x2="110.13" y2="88.2"/><line class="cls-28" x1="111.37" y1="85.33" x2="111.37" y2="88.2"/><line class="cls-28" x1="113.03" y1="85.42" x2="113.03" y2="88.28"/><line class="cls-28" x1="114.4" y1="85.42" x2="114.4" y2="88.28"/><line class="cls-28" x1="115.7" y1="85.42" x2="115.7" y2="88.28"/><line class="cls-28" x1="116.87" y1="85.42" x2="116.87" y2="88.28"/><line class="cls-28" x1="118.04" y1="85.42" x2="118.04" y2="88.28"/><line class="cls-28" x1="119.55" y1="85.42" x2="119.55" y2="88.28"/><line class="cls-28" x1="121.22" y1="85.42" x2="121.22" y2="88.28"/><line class="cls-28" x1="122.67" y1="85.42" x2="122.67" y2="88.28"/><line class="cls-28" x1="124.06" y1="85.42" x2="124.06" y2="88.28"/><line class="cls-28" x1="125.3" y1="85.42" x2="125.3" y2="88.28"/><line class="cls-28" x1="126.82" y1="85.42" x2="126.82" y2="88.28"/><line class="cls-28" x1="128.54" y1="85.42" x2="128.54" y2="88.28"/><polygon class="cls-12" points="86.9 84.41 86.9 80.8 139.46 80.8 139.46 84.63 138.45 84.68 138.47 82.39 88.94 82.39 88.94 84.68 86.9 84.41"/><path class="cls-12" d="M139.47,70s.3,2.72-5.73,2.8c-5.78.07-43.84,0-47.1,0a2.77,2.77,0,0,1-.49,0,16,16,0,0,1-9.87-6.45,7.38,7.38,0,0,1-.72-2.12c-.4-2.64-1.79-10.87-1.55-12.36h-.92s.9,12.56,2,14.37A14.42,14.42,0,0,0,86,73.8c7.15,1.07,48.71,0,48.71,0a10.4,10.4,0,0,0,2.67-.4A3,3,0,0,0,139.47,70Z"/><path class="cls-29" d="M80.28,75.62c-6.76,3.53-8.8,0-8.8,0a2.85,2.85,0,0,0,.75-1.29V71.65a5.5,5.5,0,0,0-.75-2.78V65.72a2,2,0,0,0,1.21-1.29c.52-1.75,0-8.12,0-8.12a2.77,2.77,0,0,0-1.21-2.14l0-1.49s.1-1,2.3-.19c1.31.5.45-1,.45-1A2.52,2.52,0,0,0,71,51.05a1.38,1.38,0,0,0-.62,1.18v1.63a4,4,0,0,0-.89,0c-3,.52-2.8,3.71-3,3.86s0,6.72,0,6.72-.1,1.9,1.56,1.75c.69-.06,1.51-.08,2.28-.21v2a2.08,2.08,0,0,0-.88-.1c-2.79.18-2.63,3.37-2.63,3.47L67,73.61a2.59,2.59,0,0,0,2.37,2.64,3.25,3.25,0,0,0,1-.08s1.68,2.23,3.66,2.27a12.94,12.94,0,0,0,6.74-1.92S80.51,75.5,80.28,75.62Z"/><path class="cls-12" d="M78.17,51.92c.24-.12,6-.84,6.18,2s0,15.36,0,15.36-5.75-1.27-6.43-6.76S76.62,52.67,78.17,51.92Z"/><path class="cls-12" d="M126.36,53.63h2.75a3.22,3.22,0,0,1,3.44,3.2c.12,3.35,0,10.7,0,10.7H126.2Z"/><path class="cls-13" d="M84.6,113.83a3.85,3.85,0,0,0-1.74,2.56c-.26,1.7,0,3.82.45,3.93,2,.43,58.17,0,58.17,0s1.47-.32,1.52-2.5a47.5,47.5,0,0,0-.27-5.22l-48.81-.27Z"/><path class="cls-12" d="M126.23,115.26H103.75a8.85,8.85,0,0,0,.79,2.73c.45.48,19.61,0,19.61,0S125.79,118.07,126.23,115.26Z"/><line class="cls-30" x1="106.09" y1="115.26" x2="106.09" y2="118.07"/><line class="cls-30" x1="107.16" y1="115.26" x2="107.16" y2="118.07"/><line class="cls-30" x1="108.49" y1="115.26" x2="108.49" y2="118.07"/><line class="cls-30" x1="109.58" y1="115.26" x2="109.58" y2="118.05"/><line class="cls-30" x1="110.78" y1="115.26" x2="110.78" y2="118.08"/><line class="cls-30" x1="111.97" y1="115.26" x2="111.97" y2="118.08"/><line class="cls-30" x1="113.2" y1="115.26" x2="113.2" y2="118.07"/><line class="cls-30" x1="114.79" y1="115.29" x2="114.79" y2="118.07"/><line class="cls-30" x1="116.18" y1="115.29" x2="116.18" y2="118.01"/><line class="cls-30" x1="117.3" y1="115.29" x2="117.3" y2="118.01"/><line class="cls-30" x1="118.52" y1="115.29" x2="118.54" y2="118.01"/><line class="cls-30" x1="119.88" y1="115.26" x2="119.88" y2="117.98"/><line class="cls-30" x1="121.13" y1="115.26" x2="121.13" y2="117.95"/><line class="cls-30" x1="122.59" y1="115.26" x2="122.59" y2="117.95"/><line class="cls-30" x1="123.87" y1="115.26" x2="123.87" y2="117.91"/><line class="cls-30" x1="104.13" y1="116.68" x2="125.8" y2="116.68"/><g class="cls-31"><g class="cls-32"><line class="cls-3" x1="123.73" y1="52.16" x2="123.73" y2="70.31"/><line class="cls-3" x1="122.66" y1="52.16" x2="122.66" y2="70.31"/><line class="cls-3" x1="121.74" y1="52.16" x2="121.74" y2="70.31"/><line class="cls-3" x1="120.61" y1="52.02" x2="120.61" y2="70.16"/><line class="cls-3" x1="119.59" y1="52.02" x2="119.59" y2="70.16"/><line class="cls-3" x1="118.51" y1="52.02" x2="118.51" y2="70.16"/><line class="cls-3" x1="117.59" y1="52.02" x2="117.59" y2="70.16"/><line class="cls-3" x1="116.47" y1="51.87" x2="116.47" y2="70.02"/><line class="cls-3" x1="115.51" y1="51.58" x2="115.51" y2="69.73"/><line class="cls-3" x1="114.43" y1="51.58" x2="114.43" y2="69.73"/><line class="cls-3" x1="113.51" y1="51.58" x2="113.51" y2="69.73"/><line class="cls-3" x1="112.39" y1="51.44" x2="112.39" y2="69.59"/><line class="cls-3" x1="111.36" y1="51.44" x2="111.36" y2="69.59"/><line class="cls-3" x1="110.28" y1="51.44" x2="110.28" y2="69.59"/><line class="cls-3" x1="109.37" y1="51.44" x2="109.37" y2="69.59"/><line class="cls-3" x1="108.24" y1="51.3" x2="108.24" y2="69.44"/><line class="cls-3" x1="107.19" y1="51.73" x2="107.19" y2="69.88"/><line class="cls-3" x1="106.12" y1="51.73" x2="106.12" y2="69.88"/><line class="cls-3" x1="105.2" y1="51.73" x2="105.2" y2="69.88"/><line class="cls-3" x1="104.08" y1="51.58" x2="104.08" y2="69.73"/><line class="cls-3" x1="103.05" y1="51.58" x2="103.05" y2="69.73"/><line class="cls-3" x1="101.97" y1="51.58" x2="101.97" y2="69.73"/><line class="cls-3" x1="101.05" y1="51.58" x2="101.05" y2="69.73"/><line class="cls-3" x1="99.93" y1="51.44" x2="99.93" y2="69.59"/><line class="cls-3" x1="98.97" y1="51.15" x2="98.97" y2="69.3"/><line class="cls-3" x1="97.89" y1="51.15" x2="97.89" y2="69.3"/><line class="cls-3" x1="96.97" y1="51.15" x2="96.97" y2="69.3"/><line class="cls-3" x1="95.85" y1="51.01" x2="95.85" y2="69.16"/><line class="cls-3" x1="94.82" y1="51.01" x2="94.82" y2="69.16"/><line class="cls-3" x1="93.75" y1="51.01" x2="93.75" y2="69.16"/><line class="cls-3" x1="92.83" y1="51.01" x2="92.83" y2="69.16"/><line class="cls-3" x1="91.7" y1="50.86" x2="91.7" y2="69.01"/><line class="cls-3" x1="90.8" y1="51.05" x2="90.8" y2="69.2"/><line class="cls-3" x1="89.73" y1="51.05" x2="89.73" y2="69.2"/><line class="cls-3" x1="88.81" y1="51.05" x2="88.81" y2="69.2"/><line class="cls-3" x1="86.66" y1="50.91" x2="86.66" y2="69.06"/><line class="cls-3" x1="85.58" y1="50.91" x2="85.58" y2="69.06"/><line class="cls-3" x1="84.66" y1="50.91" x2="84.66" y2="69.06"/><line class="cls-3" x1="83.54" y1="50.76" x2="83.54" y2="68.91"/><line class="cls-3" x1="82.58" y1="50.47" x2="82.58" y2="68.62"/><line class="cls-3" x1="81.5" y1="50.47" x2="81.5" y2="68.62"/><line class="cls-3" x1="80.58" y1="50.47" x2="80.58" y2="68.62"/><line class="cls-3" x1="79.46" y1="50.33" x2="79.46" y2="68.48"/><line class="cls-3" x1="78.43" y1="50.33" x2="78.43" y2="68.48"/><line class="cls-3" x1="77.35" y1="50.33" x2="77.35" y2="68.48"/><line class="cls-3" x1="76.44" y1="50.33" x2="76.44" y2="68.48"/><line class="cls-3" x1="75.31" y1="50.19" x2="75.31" y2="68.34"/></g><polygon class="cls-2" points="125.22 50.41 125.22 72.44 72.79 72.44 72.79 49.23 125.22 49.23 125.22 50.41"/></g><g class="cls-33"><g class="cls-34"><line class="cls-3" x1="126.59" y1="53.78" x2="126.59" y2="70.85"/><line class="cls-3" x1="125.49" y1="53.78" x2="125.49" y2="70.85"/><line class="cls-3" x1="124.55" y1="53.78" x2="124.55" y2="70.85"/><line class="cls-3" x1="123.4" y1="53.64" x2="123.4" y2="70.71"/><line class="cls-3" x1="122.35" y1="53.64" x2="122.35" y2="70.71"/><line class="cls-3" x1="121.25" y1="53.64" x2="121.25" y2="70.71"/><line class="cls-3" x1="120.31" y1="53.64" x2="120.31" y2="70.71"/><line class="cls-3" x1="119.16" y1="53.51" x2="119.16" y2="70.58"/><line class="cls-3" x1="118.18" y1="53.24" x2="118.18" y2="70.31"/><line class="cls-3" x1="117.08" y1="53.24" x2="117.08" y2="70.31"/><line class="cls-3" x1="116.14" y1="53.24" x2="116.14" y2="70.31"/><line class="cls-3" x1="114.99" y1="53.1" x2="114.99" y2="70.17"/><line class="cls-3" x1="113.94" y1="53.1" x2="113.94" y2="70.17"/><line class="cls-3" x1="112.83" y1="53.1" x2="112.83" y2="70.17"/><line class="cls-3" x1="111.89" y1="53.1" x2="111.89" y2="70.17"/><line class="cls-3" x1="110.75" y1="52.97" x2="110.75" y2="70.04"/><line class="cls-3" x1="109.67" y1="53.37" x2="109.67" y2="70.44"/><line class="cls-3" x1="108.57" y1="53.37" x2="108.57" y2="70.44"/><line class="cls-3" x1="107.63" y1="53.37" x2="107.63" y2="70.44"/><line class="cls-3" x1="106.48" y1="53.24" x2="106.48" y2="70.31"/><line class="cls-3" x1="105.43" y1="53.24" x2="105.43" y2="70.31"/><line class="cls-3" x1="104.33" y1="53.24" x2="104.33" y2="70.31"/><line class="cls-3" x1="103.39" y1="53.24" x2="103.39" y2="70.31"/><line class="cls-3" x1="102.24" y1="53.1" x2="102.24" y2="70.17"/><line class="cls-3" x1="101.26" y1="52.83" x2="101.26" y2="69.9"/><line class="cls-3" x1="100.16" y1="52.83" x2="100.16" y2="69.9"/><line class="cls-3" x1="99.22" y1="52.83" x2="99.22" y2="69.9"/><line class="cls-3" x1="98.07" y1="52.69" x2="98.07" y2="69.77"/><line class="cls-3" x1="97.02" y1="52.69" x2="97.02" y2="69.77"/><line class="cls-3" x1="95.92" y1="52.69" x2="95.92" y2="69.77"/><line class="cls-3" x1="94.98" y1="52.69" x2="94.98" y2="69.77"/><line class="cls-3" x1="93.83" y1="52.56" x2="93.83" y2="69.63"/><line class="cls-3" x1="92.91" y1="52.74" x2="92.91" y2="69.81"/><line class="cls-3" x1="91.81" y1="52.74" x2="91.81" y2="69.81"/><line class="cls-3" x1="90.87" y1="52.74" x2="90.87" y2="69.81"/><line class="cls-3" x1="89.72" y1="52.6" x2="89.72" y2="69.67"/><line class="cls-3" x1="88.67" y1="52.6" x2="88.67" y2="69.67"/><line class="cls-3" x1="87.56" y1="52.6" x2="87.56" y2="69.67"/><line class="cls-3" x1="86.62" y1="52.6" x2="86.62" y2="69.67"/><line class="cls-3" x1="85.48" y1="52.46" x2="85.48" y2="69.54"/><line class="cls-3" x1="83.39" y1="52.19" x2="83.39" y2="69.26"/><line class="cls-3" x1="82.45" y1="52.19" x2="82.45" y2="69.26"/><line class="cls-3" x1="81.31" y1="52.06" x2="81.31" y2="69.13"/><line class="cls-3" x1="80.25" y1="52.06" x2="80.25" y2="69.13"/><line class="cls-3" x1="79.15" y1="52.06" x2="79.15" y2="69.13"/><line class="cls-3" x1="78.21" y1="52.06" x2="78.21" y2="69.13"/><line class="cls-3" x1="77.06" y1="51.92" x2="77.06" y2="68.99"/></g><polygon class="cls-3" points="128.12 52.13 128.12 72.85 74.48 72.85 74.48 51.02 128.12 51.02 128.12 52.13"/></g><path class="cls-3" d="M78.11,51.81c.25-.11,6.12-.84,6.32,2s0,15.36,0,15.36-5.88-1.27-6.57-6.76S76.52,52.56,78.11,51.81Z"/><path class="cls-35" d="M93,51.87h36.17a5.24,5.24,0,0,1,3.17,1c1.24.94,2.5,2.73,2.58,6.19.16,6.92,1.78,10-1.73,10.49S90,69.81,90,69.81s-2.44.17-2.41-4.2c0-2.26,0-5.31-.16-8A5.55,5.55,0,0,1,93,51.87Z"/><path class="cls-12" d="M128.15,69.81s1-4.11-8-4.92c-2.76,0-4.24,2-4.27,3h-6.65a3.33,3.33,0,0,0-3.5-1.7c-2.34.5-18.1,0-18.1,0s0,3.53,2.41,3.53C103.13,69.85,128.15,69.81,128.15,69.81Z"/><path class="cls-13" d="M94,96.47s-11,.47-11,4.26c0,2,0,11.77,0,11.77s.11,2.13,1.2,2.66,53.69,0,53.69,0,4.09-.56,4.91-1.76,0-13,0-13,.4-2.9-3.09-3.43S94,96.47,94,96.47Z"/><path class="cls-13" d="M99.1,108.61s.66,4.51,2.05,4.93,25.09,0,25.09,0a6.78,6.78,0,0,0,2.7-5.24Z"/><path class="cls-12" d="M131.3,111.88c-.33,0-.57-6.63,10-6.53C141.29,105.35,143.87,113.89,131.3,111.88Z"/><path class="cls-12" d="M132.45,111.17c-.25,0-.43-5.11,7.71-5C140.16,106.14,142.15,112.71,132.45,111.17Z"/><line class="cls-12" x1="140.33" y1="107.69" x2="134.08" y2="107.69"/><line class="cls-12" x1="132.62" y1="109.57" x2="139.75" y2="109.57"/><path class="cls-12" d="M96.78,111.88c.33,0,.57-6.63-10-6.53C86.79,105.35,84.2,113.89,96.78,111.88Z"/><path class="cls-12" d="M95.62,111.17c.26,0,.44-5.11-7.7-5C87.92,106.14,85.93,112.71,95.62,111.17Z"/><line class="cls-12" x1="87.75" y1="107.69" x2="94" y2="107.69"/><line class="cls-12" x1="95.46" y1="109.57" x2="88.33" y2="109.57"/><path class="cls-12" d="M94.5,93.09a4.44,4.44,0,0,0,2.62,1.84c1.75.4,32.54,0,32.54,0l4.78-3,.89.12-5.28,3.4.88,1.78s.5,1.27-1.31,3.21c-3.58,3.83-4.88,3.83-4.88,3.83H99.67s-1.72,0-3-3.19S95.48,97.3,94,96.36a9.42,9.42,0,0,1-2.49-2.93l1.13-1.17Z"/><line class="cls-12" x1="123.39" y1="99.83" x2="123.39" y2="104.2"/><line class="cls-12" x1="122.09" y1="99.83" x2="122.09" y2="104.2"/><line class="cls-12" x1="120.83" y1="99.83" x2="120.83" y2="104.2"/><line class="cls-12" x1="119.68" y1="99.83" x2="119.68" y2="104.2"/><line class="cls-12" x1="118.51" y1="99.83" x2="118.51" y2="104.2"/><line class="cls-12" x1="117.35" y1="99.83" x2="117.35" y2="104.2"/><line class="cls-12" x1="116.3" y1="99.83" x2="116.3" y2="104.2"/><line class="cls-12" x1="115.13" y1="99.83" x2="115.13" y2="104.2"/><line class="cls-12" x1="113.78" y1="99.83" x2="113.78" y2="104.2"/><line class="cls-12" x1="112.44" y1="99.83" x2="112.44" y2="104.2"/><line class="cls-12" x1="111.22" y1="99.83" x2="111.22" y2="104.2"/><line class="cls-12" x1="110.08" y1="99.83" x2="110.08" y2="104.2"/><line class="cls-12" x1="108.94" y1="99.83" x2="108.94" y2="104.2"/><line class="cls-12" x1="107.81" y1="99.83" x2="107.81" y2="104.2"/><line class="cls-12" x1="106.63" y1="99.83" x2="106.63" y2="104.2"/><line class="cls-12" x1="105.52" y1="99.83" x2="105.52" y2="104.2"/><line class="cls-12" x1="104.22" y1="99.83" x2="104.22" y2="104.2"/><line class="cls-12" x1="102.97" y1="99.83" x2="102.97" y2="104.2"/><path class="cls-36" d="M129.59,99.74c-9.92.12-33.11.09-33.11.09l-.6-1.29,34.72-.09S130.06,99.74,129.59,99.74Z"/><path class="cls-13" d="M87.16,84.13s-2.76,1.75-2.23,3.72a8.53,8.53,0,0,0,3.57,4.78c1.27.6,4.84.49,5.27.39S93.45,85.88,87.16,84.13Z"/><path class="cls-12" d="M138.93,84.13s2.51,1.7,2,3.61a8.37,8.37,0,0,1-3.23,4.63c-1.16.57-4.39.47-4.78.37S133.24,85.83,138.93,84.13Z"/><polyline class="cls-24" points="51.55 100.47 51.55 95.35 62.42 95.35"/><path class="cls-37" d="M83.13,38.34a14,14,0,0,1,.73,3.09"/><path class="cls-38" d="M83.14,38.34a9.62,9.62,0,0,1,.56,1.5,3.25,3.25,0,0,1,.17,1.58l0,0h0a6.06,6.06,0,0,1-.37-1.54,13.75,13.75,0,0,0-.36-1.54v0S83.14,38.33,83.14,38.34Z"/><path class="cls-37" d="M84.67,38.34a13.33,13.33,0,0,1,.73,3.09"/><path class="cls-38" d="M84.68,38.34a9.62,9.62,0,0,1,.56,1.5,3.25,3.25,0,0,1,.17,1.58v0h0A5.67,5.67,0,0,1,85,39.89c-.1-.52-.21-1-.36-1.54,0,0,0,0,0,0A0,0,0,0,1,84.68,38.34Z"/><path class="cls-37" d="M86.12,38.34a13.33,13.33,0,0,1,.73,3.09"/><path class="cls-38" d="M86.13,38.34a9.62,9.62,0,0,1,.56,1.5,3.25,3.25,0,0,1,.17,1.58v0h0a6.52,6.52,0,0,1-.37-1.54,13.7,13.7,0,0,0-.35-1.54s0,0,0,0A0,0,0,0,1,86.13,38.34Z"/><path class="cls-37" d="M87.63,38.34a13.33,13.33,0,0,1,.73,3.09"/><path class="cls-38" d="M87.64,38.34a9.62,9.62,0,0,1,.56,1.5,3.25,3.25,0,0,1,.17,1.58v0h0A5.67,5.67,0,0,1,88,39.89c-.1-.52-.21-1-.36-1.54,0,0,0,0,0,0A0,0,0,0,1,87.64,38.34Z"/><path class="cls-37" d="M89.08,38.34a13.33,13.33,0,0,1,.73,3.09"/><path class="cls-38" d="M89.1,38.34a8.68,8.68,0,0,1,.55,1.5,3.14,3.14,0,0,1,.18,1.58l0,0h0a5.67,5.67,0,0,1-.37-1.54,13.75,13.75,0,0,0-.36-1.54s0,0,0,0S89.1,38.33,89.1,38.34Z"/><path class="cls-37" d="M90.8,38.34a14,14,0,0,1,.73,3.09"/><path class="cls-38" d="M90.81,38.34a9.62,9.62,0,0,1,.56,1.5,3.25,3.25,0,0,1,.17,1.58l0,0h0a6.06,6.06,0,0,1-.37-1.54,13.75,13.75,0,0,0-.36-1.54s0,0,0,0S90.81,38.33,90.81,38.34Z"/><path class="cls-37" d="M92.34,38.34a13.33,13.33,0,0,1,.73,3.09"/><path class="cls-38" d="M92.35,38.34a9.62,9.62,0,0,1,.56,1.5,3.25,3.25,0,0,1,.17,1.58v0h0a6.06,6.06,0,0,1-.37-1.54,13.7,13.7,0,0,0-.35-1.54s0,0,0,0A0,0,0,0,1,92.35,38.34Z"/><path class="cls-37" d="M93.79,38.34a13.33,13.33,0,0,1,.73,3.09"/><path class="cls-38" d="M93.8,38.34a9.62,9.62,0,0,1,.56,1.5,3.25,3.25,0,0,1,.17,1.58v0h0a6.06,6.06,0,0,1-.37-1.54c-.09-.52-.21-1-.35-1.54a0,0,0,0,1,0,0S93.8,38.33,93.8,38.34Z"/><path class="cls-37" d="M95.3,38.34A13.33,13.33,0,0,1,96,41.43"/><path class="cls-38" d="M95.31,38.34a9.62,9.62,0,0,1,.56,1.5A3.25,3.25,0,0,1,96,41.42v0h0a6.06,6.06,0,0,1-.37-1.54,13.7,13.7,0,0,0-.35-1.54s0,0,0,0A0,0,0,0,1,95.31,38.34Z"/><path class="cls-37" d="M96.75,38.34a13.33,13.33,0,0,1,.73,3.09"/><path class="cls-38" d="M96.77,38.34a8.68,8.68,0,0,1,.55,1.5,3.14,3.14,0,0,1,.18,1.58l0,0h0a5.67,5.67,0,0,1-.37-1.54,13.75,13.75,0,0,0-.36-1.54s0,0,0,0Z"/><path class="cls-37" d="M98.31,38.34A13.33,13.33,0,0,1,99,41.43"/><path class="cls-38" d="M98.32,38.34a9.62,9.62,0,0,1,.56,1.5,3.25,3.25,0,0,1,.17,1.58v0h0a6.06,6.06,0,0,1-.37-1.54c-.09-.52-.21-1-.35-1.54a0,0,0,0,1,0,0S98.32,38.33,98.32,38.34Z"/><path class="cls-37" d="M99.85,38.34a13.33,13.33,0,0,1,.73,3.09"/><path class="cls-38" d="M99.86,38.34a8.71,8.71,0,0,1,.56,1.5,3.25,3.25,0,0,1,.17,1.58s0,0,0,0h0a5.67,5.67,0,0,1-.37-1.54c-.1-.52-.21-1-.36-1.54,0,0,0,0,0,0A0,0,0,0,1,99.86,38.34Z"/><path class="cls-37" d="M101.3,38.34a13.33,13.33,0,0,1,.73,3.09"/><path class="cls-38" d="M101.31,38.34a8.71,8.71,0,0,1,.56,1.5,3.25,3.25,0,0,1,.17,1.58s0,0,0,0h0a5.67,5.67,0,0,1-.37-1.54c-.1-.52-.21-1-.36-1.54,0,0,0,0,0,0A0,0,0,0,1,101.31,38.34Z"/><path class="cls-37" d="M102.81,38.34a13.33,13.33,0,0,1,.73,3.09"/><path class="cls-38" d="M102.82,38.34a8.71,8.71,0,0,1,.56,1.5,3.38,3.38,0,0,1,.18,1.58l0,0h0a5.67,5.67,0,0,1-.37-1.54c-.1-.52-.21-1-.36-1.54,0,0,0,0,0,0A0,0,0,0,1,102.82,38.34Z"/><path class="cls-37" d="M104.27,38.34a14,14,0,0,1,.73,3.09"/><path class="cls-38" d="M104.28,38.34a8.68,8.68,0,0,1,.55,1.5,3.14,3.14,0,0,1,.18,1.58l0,0h0a6.06,6.06,0,0,1-.37-1.54,13.75,13.75,0,0,0-.36-1.54s0,0,0,0S104.28,38.33,104.28,38.34Z"/><path class="cls-37" d="M106,38.34a14,14,0,0,1,.73,3.09"/><path class="cls-38" d="M106,38.34a9.62,9.62,0,0,1,.56,1.5,3.25,3.25,0,0,1,.17,1.58l0,0h0a6.06,6.06,0,0,1-.37-1.54,13.75,13.75,0,0,0-.36-1.54v0S106,38.33,106,38.34Z"/><path class="cls-37" d="M107.52,38.34a13.33,13.33,0,0,1,.73,3.09"/><path class="cls-38" d="M107.53,38.34a9.62,9.62,0,0,1,.56,1.5,3.25,3.25,0,0,1,.17,1.58s0,0,0,0h0a5.67,5.67,0,0,1-.37-1.54c-.1-.52-.21-1-.36-1.54,0,0,0,0,0,0A0,0,0,0,1,107.53,38.34Z"/><path class="cls-37" d="M109,38.34a13.33,13.33,0,0,1,.73,3.09"/><path class="cls-38" d="M109,38.34a9.62,9.62,0,0,1,.56,1.5,3.25,3.25,0,0,1,.17,1.58v0h0a5.67,5.67,0,0,1-.37-1.54c-.1-.52-.21-1-.36-1.54,0,0,0,0,0,0A0,0,0,0,1,109,38.34Z"/><path class="cls-37" d="M110.48,38.34a13.33,13.33,0,0,1,.73,3.09"/><path class="cls-38" d="M110.49,38.34a8.71,8.71,0,0,1,.56,1.5,3.25,3.25,0,0,1,.17,1.58s0,0,0,0h0a5.67,5.67,0,0,1-.37-1.54c-.1-.52-.21-1-.36-1.54,0,0,0,0,0,0A0,0,0,0,1,110.49,38.34Z"/><path class="cls-37" d="M111.94,38.34a13.63,13.63,0,0,1,.72,3.09"/><path class="cls-38" d="M112,38.34a8.68,8.68,0,0,1,.55,1.5,3.14,3.14,0,0,1,.18,1.58l0,0h0a6.06,6.06,0,0,1-.37-1.54,13.75,13.75,0,0,0-.36-1.54s0,0,0,0S112,38.33,112,38.34Z"/><path class="cls-37" d="M113.23,38.34a13.33,13.33,0,0,1,.73,3.09"/><path class="cls-38" d="M113.24,38.34a9.62,9.62,0,0,1,.56,1.5,3.25,3.25,0,0,1,.17,1.58v0h0a5.67,5.67,0,0,1-.37-1.54c-.1-.52-.21-1-.36-1.54,0,0,0,0,0,0A0,0,0,0,1,113.24,38.34Z"/><path class="cls-37" d="M114.77,38.34a13.33,13.33,0,0,1,.73,3.09"/><path class="cls-38" d="M114.79,38.34a9.59,9.59,0,0,1,.55,1.5,3.26,3.26,0,0,1,.18,1.58,0,0,0,0,1,0,0h0a5.67,5.67,0,0,1-.37-1.54,13.75,13.75,0,0,0-.36-1.54s0,0,0,0Z"/><path class="cls-37" d="M116.22,38.34a13.33,13.33,0,0,1,.73,3.09"/><path class="cls-38" d="M116.24,38.34a9.59,9.59,0,0,1,.55,1.5,3.26,3.26,0,0,1,.18,1.58l0,0h0a5.67,5.67,0,0,1-.37-1.54c-.1-.52-.21-1-.36-1.54,0,0,0,0,0,0Z"/><path class="cls-37" d="M117.73,38.34a13.33,13.33,0,0,1,.73,3.09"/><path class="cls-38" d="M117.75,38.34a9.59,9.59,0,0,1,.55,1.5,3.26,3.26,0,0,1,.18,1.58l0,0h0a5.67,5.67,0,0,1-.37-1.54,13.75,13.75,0,0,0-.36-1.54s0,0,0,0Z"/><path class="cls-37" d="M119.19,38.34a14,14,0,0,1,.73,3.09"/><path class="cls-38" d="M119.2,38.34a9.62,9.62,0,0,1,.56,1.5,3.25,3.25,0,0,1,.17,1.58l0,0h0a6.06,6.06,0,0,1-.37-1.54,13.75,13.75,0,0,0-.36-1.54v0S119.2,38.33,119.2,38.34Z"/><path class="cls-37" d="M120.9,38.34a13.33,13.33,0,0,1,.73,3.09"/><path class="cls-38" d="M120.91,38.34a9.62,9.62,0,0,1,.56,1.5,3.25,3.25,0,0,1,.17,1.58v0h0a6.06,6.06,0,0,1-.37-1.54,13.7,13.7,0,0,0-.35-1.54s0,0,0,0A0,0,0,0,1,120.91,38.34Z"/><path class="cls-37" d="M122.44,38.34a13.33,13.33,0,0,1,.73,3.09"/><path class="cls-38" d="M122.46,38.34a9.59,9.59,0,0,1,.55,1.5,3.26,3.26,0,0,1,.18,1.58s0,0,0,0h0a5.67,5.67,0,0,1-.37-1.54c-.1-.52-.21-1-.36-1.54,0,0,0,0,0,0Z"/><path class="cls-37" d="M123.89,38.34a13.33,13.33,0,0,1,.73,3.09"/><path class="cls-38" d="M123.9,38.34a8.71,8.71,0,0,1,.56,1.5,3.38,3.38,0,0,1,.18,1.58l0,0h0a5.67,5.67,0,0,1-.37-1.54c-.1-.52-.21-1-.36-1.54,0,0,0,0,0,0A0,0,0,0,1,123.9,38.34Z"/><path class="cls-37" d="M125.4,38.34a13.33,13.33,0,0,1,.73,3.09"/><path class="cls-38" d="M125.42,38.34a9.59,9.59,0,0,1,.55,1.5,3.26,3.26,0,0,1,.18,1.58l0,0h0a5.67,5.67,0,0,1-.37-1.54c-.1-.52-.21-1-.36-1.54,0,0,0,0,0,0Z"/><path class="cls-37" d="M126.86,38.34a14,14,0,0,1,.73,3.09"/><path class="cls-38" d="M126.87,38.34a9.62,9.62,0,0,1,.56,1.5,3.25,3.25,0,0,1,.17,1.58,0,0,0,0,1,0,0h0a6.06,6.06,0,0,1-.37-1.54,13.75,13.75,0,0,0-.36-1.54v0S126.87,38.33,126.87,38.34Z"/><path class="cls-38" d="M75.88,81.24c.76-.06,1.51-.1,2.27-.14a8.54,8.54,0,0,1,1.13,0,6.19,6.19,0,0,1,1.13.18l0,0s0,0,0,0a5.45,5.45,0,0,1-1.13.19,8.54,8.54,0,0,1-1.13,0c-.76,0-1.51-.09-2.27-.15l0,0A0,0,0,0,1,75.88,81.24Z"/><path class="cls-38" d="M75.88,83.24c.76-.06,1.51-.11,2.27-.14a8.54,8.54,0,0,1,1.13,0,4.84,4.84,0,0,1,1.13.18l0,0s0,0,0,0a5.45,5.45,0,0,1-1.13.19,8.54,8.54,0,0,1-1.13,0c-.76,0-1.51-.09-2.27-.15l0,0A0,0,0,0,1,75.88,83.24Z"/><path class="cls-38" d="M75.88,85.18c.76-.06,1.51-.11,2.27-.14a7.12,7.12,0,0,1,1.13,0,4.84,4.84,0,0,1,1.13.18s0,0,0,0h0a5.45,5.45,0,0,1-1.13.19,10.67,10.67,0,0,1-1.13,0c-.76,0-1.51-.09-2.27-.15l0,0A0,0,0,0,1,75.88,85.18Z"/><path class="cls-38" d="M75.88,87.18c.76-.06,1.51-.11,2.27-.15a10.67,10.67,0,0,1,1.13,0,5.45,5.45,0,0,1,1.13.19s0,0,0,0h0a5.45,5.45,0,0,1-1.13.19,8.55,8.55,0,0,1-1.13,0c-.76,0-1.51-.08-2.27-.14l0,0A0,0,0,0,1,75.88,87.18Z"/><path class="cls-38" d="M75.88,89.37c.76-.06,1.51-.11,2.27-.15a8.54,8.54,0,0,1,1.13,0,5.45,5.45,0,0,1,1.13.19,0,0,0,0,1,0,0,0,0,0,0,1,0,0,4.84,4.84,0,0,1-1.13.18,8.54,8.54,0,0,1-1.13,0c-.76,0-1.51-.08-2.27-.14a0,0,0,0,1,0,0A0,0,0,0,1,75.88,89.41Z"/><path class="cls-38" d="M75.88,91.37c.76-.06,1.51-.11,2.27-.15a8.54,8.54,0,0,1,1.13,0,5.45,5.45,0,0,1,1.13.19,0,0,0,0,1,0,0s0,0,0,0a6.19,6.19,0,0,1-1.13.18,8.54,8.54,0,0,1-1.13,0c-.76,0-1.51-.08-2.27-.14,0,0,0,0,0,0Z"/><path class="cls-38" d="M75.88,93.3c.76-.06,1.51-.1,2.27-.14a8.54,8.54,0,0,1,1.13,0,6.19,6.19,0,0,1,1.13.18s0,0,0,0,0,0,0,0a6.19,6.19,0,0,1-1.13.18,8.54,8.54,0,0,1-1.13,0l-2.27-.14s0,0,0,0Z"/><path class="cls-38" d="M75.88,95.3c.76-.06,1.51-.11,2.27-.14a8.54,8.54,0,0,1,1.13,0,4.84,4.84,0,0,1,1.13.18s0,0,0,0,0,0,0,0a5.45,5.45,0,0,1-1.13.19,8.54,8.54,0,0,1-1.13,0c-.76,0-1.51-.09-2.27-.15a0,0,0,0,1,0,0Z"/><path class="cls-39" d="M30.59,102.52s-.82-.25-.72,3.27c0,.25,0,1.63.43,2.13C31.33,109,31.36,102.75,30.59,102.52Z"/><path class="cls-39" d="M71.78,111.73s-.82-.24-.72,3.27c0,.26,0,1.64.43,2.13C72.52,118.23,72.55,112,71.78,111.73Z"/><circle class="cls-40" cx="57.39" cy="23.21" r="0.18"/><circle class="cls-40" cx="57.39" cy="25.54" r="0.18"/><circle class="cls-40" cx="57.39" cy="27.88" r="0.18"/><circle class="cls-40" cx="57.39" cy="30.03" r="0.18"/><circle class="cls-40" cx="57.39" cy="32.31" r="0.18"/><circle class="cls-40" cx="57.39" cy="34.64" r="0.18"/><circle class="cls-40" cx="57.39" cy="36.98" r="0.18"/><circle class="cls-40" cx="57.39" cy="39.13" r="0.18"/><circle class="cls-40" cx="57.39" cy="41.46" r="0.18"/><circle class="cls-40" cx="57.39" cy="43.8" r="0.18"/><circle class="cls-40" cx="57.39" cy="46.14" r="0.18"/><circle class="cls-40" cx="57.39" cy="48.28" r="0.18"/><circle class="cls-40" cx="57.39" cy="50.56" r="0.18"/><circle class="cls-40" cx="57.39" cy="52.9" r="0.18"/><circle class="cls-40" cx="57.39" cy="55.24" r="0.18"/><circle class="cls-40" cx="57.39" cy="57.38" r="0.18"/><circle class="cls-40" cx="57.39" cy="57.38" r="0.18"/><circle class="cls-40" cx="57.39" cy="59.72" r="0.18"/><circle class="cls-40" cx="57.39" cy="62.06" r="0.18"/><circle class="cls-40" cx="57.39" cy="64.2" r="0.18"/><circle class="cls-40" cx="57.39" cy="66.48" r="0.18"/><circle class="cls-40" cx="57.39" cy="68.82" r="0.18"/><circle class="cls-40" cx="57.39" cy="71.16" r="0.18"/><circle class="cls-40" cx="57.39" cy="73.3" r="0.18"/><circle class="cls-40" cx="57.39" cy="75.63" r="0.18"/><circle class="cls-40" cx="57.39" cy="77.97" r="0.18"/><circle class="cls-40" cx="57.39" cy="80.31" r="0.18"/><circle class="cls-40" cx="57.39" cy="82.45" r="0.18"/><circle class="cls-40" cx="57.39" cy="84.73" r="0.18"/><circle class="cls-40" cx="57.39" cy="87.07" r="0.18"/><circle class="cls-40" cx="57.39" cy="89.41" r="0.18"/><circle class="cls-40" cx="57.39" cy="91.55" r="0.18"/><circle class="cls-37" cx="29.45" cy="42.66" r="23.09"/><circle class="cls-41" cx="29.45" cy="42.66" r="21.27"/><path class="cls-42" d="M25.07,56.56V28.93s13.82-2.41,14.3,5.94-4.66,9.32-20.08,9"/><line class="cls-42" x1="35.35" y1="49.33" x2="19.29" y2="49.33"/></svg>